<svg xmlns="http://www.w3.org/2000/svg" viewBox="0 0 476.52 64.99"><defs><style>.cls-1{fill:#fff;}.cls-2{fill:#006278;}.cls-3{fill:none;}</style></defs><g id="Lager_2" data-name="Lager 2"><g id="Lager_1-2" data-name="Lager 1"><path d="M43.5,55.66c-.07-1.24-.44-2.46-.41-3.67a94.16,94.16,0,0,0-.56-14.45,16.24,16.24,0,0,1,0-1.85c0-4.69.34-6.61-.81-10.18a11,11,0,0,0-5-6.11c-.54-.32-1.06-.64-1.56-1a8.7,8.7,0,0,0-3.42-1.33,37.65,37.65,0,0,0-4.86-.22,18,18,0,0,0-9.09,2,37,37,0,0,0-3.61,2.39,16.36,16.36,0,0,0-1.33,1.17c-.12-.57-.3-1.17-.37-1.76s0-1.24,0-1.85c0-1.13,0-2.24-.06-3.36a16,16,0,0,1,.22-4.52c.21-1.22.18-2.48.41-3.68s-.32-2.5-.45-3.74c0-.21-.23-.57-.41-.59a31.44,31.44,0,0,0-3.48-.41c-.88-.06-1.78.14-2.66.16-1.22,0-2.46-.07-3.68,0-1.56.09-1.91.55-2,2.1C.28,6.74.14,8.7,0,10.66c0,.32,0,.66,0,1,.09,1.89.25,3.79.31,5.7.09,2.69,0,5.38.2,8.06C.7,29.24.66,33.05.46,36.86c-.12,2.62,0,5.26,0,7.9,0,1.63,0,3.25,0,4.88a52.4,52.4,0,0,1,.25,6.84,42.21,42.21,0,0,0,.3,5.86c0,.57.24.82.81.79s1.33-.15,2-.16A9.79,9.79,0,0,1,7.23,63a12.14,12.14,0,0,0,4.47.46A1.55,1.55,0,0,0,13.39,62a11.62,11.62,0,0,0,0-1.18c0-2.7-.14-5.39-.16-8.08,0-3.65,0-7.29,0-10.94a1.72,1.72,0,0,1-.32,0c.21-2.39.38-4.79.63-7.18A6.78,6.78,0,0,1,14.18,32c1.08-1.92,3-2.89,4.81-4a1.42,1.42,0,0,1,.65-.16c1.38-.16,2.78-.32,4.17-.41a4.61,4.61,0,0,1,4.61,3c.81,1.89.77,3.93,1.26,5.89a9.37,9.37,0,0,1,.16,1.85c0,1.78,0,3.56,0,5.35,0,1.11.07,2.25.16,3.36.21,2.28.71,4.54.12,6.84A3.16,3.16,0,0,0,30.22,55a20,20,0,0,1,0,5.19c-.14,1.51.42,2.71,1.58,2.78.92.06,1.69-.07,2.91-.07a23.47,23.47,0,0,1,4.82.2,10.28,10.28,0,0,0,1.49.18c1.49.09,2.42-.49,2.55-2A47,47,0,0,0,43.5,55.66Zm-2.28,6.12a11.9,11.9,0,0,1-2.64-.36,5.51,5.51,0,0,0-2.29-.07,15.32,15.32,0,0,1-3.18.09.82.82,0,0,1-.86-.86,34.53,34.53,0,0,1-.13-3.67c0-1,.32-1.93-.29-2.92-.3-.51-.09-1.31-.14-2-.15-1.74-.36-3.46-.43-5.2-.13-2.48-.22-5-.24-7.47a28.2,28.2,0,0,0-.59-6,15.58,15.58,0,0,0-.82-3.74,7.87,7.87,0,0,0-2.61-3,2,2,0,0,0-.88-.45c-2-.12-4-.93-5.94.15a5.56,5.56,0,0,1-1.47.37c-.33.09-.78.13-.92.34-1,1.44-2.8,1.8-3.93,3.09-.68.78-1.46,1.39-1.17,2.57a1.34,1.34,0,0,1-.11.83c-1,2.89-.68,5.87-.61,8.83,0,1.51,0,3,.11,4.54.22,2.34-.27,4.71.05,7s-.3,4.81.11,7.18c.11.59-.07.84-.66.86a9.47,9.47,0,0,1-2.48.09,22.67,22.67,0,0,0-5.85-.5c-1.15,0-1.08,0-1.33-1.19a13.89,13.89,0,0,1-.08-4c.13-1.49,0-3,0-4.53,0-2.53-.06-5.06-.11-7.57,0-2-.2-3.94-.22-5.89,0-1.46.18-2.91.24-4.37,0-1.06,0-2.11,0-3.16-.08-3-.13-6.07-.22-9.1-.11-3.3-.27-6.61-.4-9.91a9.45,9.45,0,0,1,0-1.19c.12-1.72.27-3.46.39-5.19.07-1.13.13-1.24,1.28-1.31s2.24,0,3.35,0V4C7.45,4,8.72,4,10,4.05c1,.07,1.18.31,1,1.29a13.94,13.94,0,0,0,.19,4.51,16.65,16.65,0,0,1-.07,3.52c-.09,1.38-.36,2.78-.37,4.18,0,2,.16,3.92.28,5.88a7.66,7.66,0,0,0,.34,1.79c.15.5.58.58.85.15,1.69-2.64,4.22-4.26,6.89-5.72a13,13,0,0,1,4.35-1.23,29,29,0,0,1,4.85-.17c1.11,0,2.22.22,3.34.35a3.11,3.11,0,0,1,.8.19c3.38,1.37,6.25,3.29,7.56,6.92.17.41.45.77.61,1.18A7.34,7.34,0,0,1,41,30.05a15.94,15.94,0,0,0,.19,2.32c.09,1.78-.25,1.27-.09,3.32.06.77.24,1.54.29,2.32.16,2.17.4,4.36.41,6.53a57.35,57.35,0,0,1-.09,7.53,20,20,0,0,0,.2,3.84c.13,1.54.31,3.11.38,4.65C42.37,61.62,42.26,61.76,41.22,61.78Z"/><path class="cls-1" d="M42.32,60.56c0,1.06-.06,1.2-1.1,1.22a11.9,11.9,0,0,1-2.64-.36,5.51,5.51,0,0,0-2.29-.07,15.32,15.32,0,0,1-3.18.09.82.82,0,0,1-.86-.86,34.53,34.53,0,0,1-.13-3.67c0-1,.32-1.93-.29-2.92-.3-.51-.09-1.31-.14-2-.15-1.74-.36-3.46-.43-5.2-.13-2.48-.22-5-.24-7.47a28.2,28.2,0,0,0-.59-6,15.58,15.58,0,0,0-.82-3.74,7.87,7.87,0,0,0-2.61-3,2,2,0,0,0-.88-.45c-2-.12-4-.93-5.94.15a5.56,5.56,0,0,1-1.47.37c-.33.09-.78.13-.92.34-1,1.44-2.8,1.8-3.93,3.09-.68.78-1.46,1.39-1.17,2.57a1.34,1.34,0,0,1-.11.83c-1,2.89-.68,5.87-.61,8.83,0,1.51,0,3,.11,4.54.22,2.34-.27,4.71.05,7s-.3,4.81.11,7.18c.11.59-.07.84-.66.86a9.47,9.47,0,0,1-2.48.09,22.67,22.67,0,0,0-5.85-.5c-1.15,0-1.08,0-1.33-1.19a13.89,13.89,0,0,1-.08-4c.13-1.49,0-3,0-4.53,0-2.53-.06-5.06-.11-7.57,0-2-.2-3.94-.22-5.89,0-1.46.18-2.91.24-4.37,0-1.06,0-2.11,0-3.16-.08-3-.13-6.07-.22-9.1-.11-3.3-.27-6.61-.4-9.91a9.45,9.45,0,0,1,0-1.19c.12-1.72.27-3.46.39-5.19.07-1.13.13-1.24,1.28-1.31s2.24,0,3.35,0V4C7.45,4,8.72,4,10,4.05c1,.07,1.18.31,1,1.29a13.94,13.94,0,0,0,.19,4.51,16.65,16.65,0,0,1-.07,3.52c-.09,1.38-.36,2.78-.37,4.18,0,2,.16,3.92.28,5.88a7.66,7.66,0,0,0,.34,1.79c.15.5.58.58.85.15,1.69-2.64,4.22-4.26,6.89-5.72a13,13,0,0,1,4.35-1.23,29,29,0,0,1,4.85-.17c1.11,0,2.22.22,3.34.35a3.11,3.11,0,0,1,.8.19c3.38,1.37,6.25,3.29,7.56,6.92.17.41.45.77.61,1.18A7.34,7.34,0,0,1,41,30.05a15.94,15.94,0,0,0,.19,2.32c.09,1.78-.25,1.27-.09,3.32.06.77.24,1.54.29,2.32.16,2.17.4,4.36.41,6.53a57.35,57.35,0,0,1-.09,7.53,20,20,0,0,0,.2,3.84C42.07,57.45,42.25,59,42.32,60.56Z"/><path d="M93.24,49.23c-2.17.23-4.32.59-6.5.79A7.86,7.86,0,0,1,83,49.8a1.19,1.19,0,0,0-1.59.52c-.18.29-.27.63-.47.9-1.31,1.69-2.84,3-5.17,2.89a32.6,32.6,0,0,1-6.52-.63,7.89,7.89,0,0,1-5.15-3.62,11,11,0,0,1-1.62-3.67c-.25-1.27-.32-1.31.88-1.58a6.59,6.59,0,0,1,1-.16c6.73-.46,13.46-1,20.2-.16,1.56.18,3.12.25,4.7.32a21.91,21.91,0,0,0,2.68-.07,2.68,2.68,0,0,1,1.88.36l1.15-.23a1.3,1.3,0,0,1,.31-.7c.23-.31.12-.95,0-1.42a10.32,10.32,0,0,1-.45-1.78,36.72,36.72,0,0,0-.91-7.68,15.76,15.76,0,0,0-1.13-4,17.66,17.66,0,0,0-4.55-6.16C87.1,22,86.24,20.66,85,20a16.88,16.88,0,0,0-7.31-2.41c-1.22-.05-2.44-.36-3.68-.4a38.32,38.32,0,0,0-5.67.06A38.72,38.72,0,0,0,63,18.67a5.27,5.27,0,0,0-1.22.52c-1.42.79-2.82,1.6-4.24,2.39a9.51,9.51,0,0,0-4,3.73c-.79,1.47-1.56,3-2.31,4.45a5.32,5.32,0,0,0-.35,1.3c-.37,1.58-.79,3.14-1.11,4.72a9.71,9.71,0,0,0-.18,2.15c.06,1.62.25,3.24.27,4.85,0,1.35-.23,2.68-.2,4s.34,2.89.51,4.34a3.65,3.65,0,0,0,1.36,2.77,3.09,3.09,0,0,1,.7,1.11,12.42,12.42,0,0,0,4,4.88A31.64,31.64,0,0,0,59.07,62a15.28,15.28,0,0,0,5.43,1.72c1.16.09,2.33.26,3.5.42,2.1.3,4.22.63,5.94.89A29.4,29.4,0,0,0,78,64.51c2.44-.63,5-1.08,7.18-2.35,1-.54,2-1,2.89-1.65,3.21-2.27,5.94-4.92,7.11-8.86C95.7,50,95,49,93.24,49.23ZM92,54.44c-.88,1-1.64,2.15-2.57,3.12a20.21,20.21,0,0,1-5,3.34,24.55,24.55,0,0,1-6.5,2.19,16.58,16.58,0,0,1-5.31.29,89.87,89.87,0,0,1-9-1.29,8.65,8.65,0,0,1-4.49-2.18,17.9,17.9,0,0,0-1.58-1.27,9.92,9.92,0,0,1-2.93-3.4c-.54-1-1.38-1.92-2-2.92A5.75,5.75,0,0,1,52,50.45c-.21-.93-.32-1.87-.5-2.8a12.1,12.1,0,0,1-.07-4.33,13.43,13.43,0,0,0-.06-5.17,5.67,5.67,0,0,1,0-2.32c.47-2,1-4,1.65-6a12.59,12.59,0,0,1,3.22-5.24,17.22,17.22,0,0,1,6.39-4.13c.81-.27,1.6-.57,2.4-.79a21.38,21.38,0,0,1,9.27-.83c1.54.27,3.14.15,4.69.45a11.23,11.23,0,0,1,6.53,3.42,9.34,9.34,0,0,0,1.22,1.13,16.48,16.48,0,0,1,4.17,5.42,19.28,19.28,0,0,1,1.72,6.45c.33,2.15.43,4.32.65,6.48.07.77-.11,1-.92,1.08-1.13.05-2.24,0-3.37,0a.16.16,0,0,1,0,.09c-1.6-.16-3.23-.25-4.83-.46-4.6-.61-9.19-.22-13.79-.24-2.75,0-5.46.58-8.21.16-1.54-.25-2.4.88-2,2.41A13.48,13.48,0,0,0,61,47.79a27.86,27.86,0,0,0,2,3.67,8,8,0,0,0,4.74,3.23,27.26,27.26,0,0,0,5.64,1,47.08,47.08,0,0,0,6.68-.52,3,3,0,0,0,2.28-2,5,5,0,0,1,.43-1.1,1.21,1.21,0,0,1,.79-.46c2.33-.24,4.68-.43,7-.63a10.23,10.23,0,0,1,1.34-.11c.74,0,1,.29,1,1A4.75,4.75,0,0,1,92,54.44Z"/><path class="cls-1" d="M62.14,42.85c2.75.42,5.46-.17,8.21-.16,4.6,0,9.19-.37,13.79.24,1.6.21,3.23.3,4.83.46a.16.16,0,0,0,0-.09c1.13,0,2.24,0,3.37,0,.81-.06,1-.31.92-1.08-.22-2.16-.32-4.33-.65-6.48a19.28,19.28,0,0,0-1.72-6.45,16.48,16.48,0,0,0-4.17-5.42,9.34,9.34,0,0,1-1.22-1.13A11.23,11.23,0,0,0,79,19.31c-1.55-.3-3.15-.18-4.69-.45a21.38,21.38,0,0,0-9.27.83c-.8.22-1.59.52-2.4.79a17.22,17.22,0,0,0-6.39,4.13A12.59,12.59,0,0,0,53,29.85c-.65,2-1.18,4-1.65,6a5.67,5.67,0,0,0,0,2.32,13.43,13.43,0,0,1,.06,5.17,12.1,12.1,0,0,0,.07,4.33c.18.93.29,1.87.5,2.8a5.75,5.75,0,0,0,.58,1.87c.59,1,1.43,1.88,2,2.92a9.92,9.92,0,0,0,2.93,3.4,17.9,17.9,0,0,1,1.58,1.27,8.65,8.65,0,0,0,4.49,2.18,89.87,89.87,0,0,0,9,1.29,16.58,16.58,0,0,0,5.31-.29,24.55,24.55,0,0,0,6.5-2.19,20.21,20.21,0,0,0,5-3.34c.93-1,1.69-2.08,2.57-3.12a4.75,4.75,0,0,0,.91-2.64c.08-.72-.23-1-1-1a10.23,10.23,0,0,0-1.34.11c-2.34.2-4.69.39-7,.63a1.21,1.21,0,0,0-.79.46,5,5,0,0,0-.43,1.1,3,3,0,0,1-2.28,2,47.08,47.08,0,0,1-6.68.52,27.26,27.26,0,0,1-5.64-1A8,8,0,0,1,63,51.46a27.86,27.86,0,0,1-2-3.67,13.48,13.48,0,0,1-.86-2.53C59.74,43.73,60.6,42.6,62.14,42.85Zm-.81-7a8.43,8.43,0,0,1,1.1-3.14A15.06,15.06,0,0,0,64,30c.9-2,2.6-3.05,4.35-4a5.54,5.54,0,0,1,2.11-.29.06.06,0,0,1,0,0c1.22,0,2.44,0,3.67,0,2.15-.08,3.73,1.09,5.15,2.47a13.49,13.49,0,0,1,3.55,5.62,6.46,6.46,0,0,0,.79,1.46c.49.72.72,1.74.36,2.12a1.4,1.4,0,0,1-2,.32,1.31,1.31,0,0,0-.79,0c-1.62.14-3.24.3-4.83.46a13.68,13.68,0,0,1-3.67-.2c-1.76-.26-3.55-.21-5.35-.34s-3.43-.34-5.15-.46A.91.91,0,0,1,61.33,35.89Z"/><path class="cls-2" d="M188.45,46.23a.53.53,0,0,1-.16,0c-1,.18-2,.39-3,.54-1.55.25-3.11.39-4.65.68-2.82.48-5.61,1.06-8.44,1.56-8.19,1.45-13.4,2.24-19.77,3.3-1,.17-1.94.31-2.91.45-.52.09-1,.18-1.57.25a6.14,6.14,0,0,0,.33.88l.14.31a2.11,2.11,0,0,0,.16.3,1.58,1.58,0,0,0,.13.26,7.56,7.56,0,0,0,.65,1.06c.57-.15,1.16-.29,1.74-.42.89-.21,1.79-.43,2.69-.63,1.47-.32,3-.59,4.47-.82,2.7-.43,5.41-.76,8.12-1.22,3.7-.63,7.38-1.39,11.08-2,3.39-.6,6.78-1.14,10.2-1.67l1.72-.29a6.35,6.35,0,0,0,.16-.85,2.14,2.14,0,0,0,.06-.35c0-.2,0-.4,0-.58,0-.34.06-.68.07-1C189.29,46.09,188.88,46.18,188.45,46.23Zm-.27,1.31a.14.14,0,0,1,0,.11,3.23,3.23,0,0,1-.16.59c-2.15.38-4.33.77-6.57,1.06-1.83.23-3.61.56-5.42.86l-3.74.67c-2.51.41-5,.79-7.56,1.2-4.06.66-8.06,1.4-12.17,1.94l-.63.11-1.51.34a.9.9,0,0,1,0-.09l-.27-.45-.11-.22c.11,0,.23,0,.34-.07,2.77-.48,5.53-1,8.31-1.45,3.06-.5,6.15-1,9.18-1.47,3.74-.61,7.42-1.26,11.13-1.87l9.34-1.55A1.23,1.23,0,0,1,188.18,47.54Zm-.77,3-.47.07c-2.68.41-5.35.73-8,1.17q-13.22,2.15-26.43,4.36c-.23,0-.47.09-.7.11l-1.94.32c.29.36.59.7.9,1l2.1-.38,1.24-.21c1.81-.31,3.64-.47,5.46-.77s3.75-.72,5.64-1c2.31-.38,4.67-.63,7-1,3.93-.65,7.83-1.41,11.76-2l2.23-.35,2-.26c.25-.45.48-.88.7-1.35C188.36,50.31,187.89,50.41,187.41,50.49Zm1.6-7.83-.47.07c-2.84.45-5.68.9-8.5,1.38-1.83.32-3.66.41-5.47.9a52.58,52.58,0,0,1-6.29,1.06,32.14,32.14,0,0,0-4.65.65,72.09,72.09,0,0,1-9.41,1.74A28.2,28.2,0,0,0,148.44,50c-.47.18-.93.37-1.38.59a10.63,10.63,0,0,1,.52,1.22c.43-.23.86-.47,1.31-.66s.61-.25.93-.36a52.46,52.46,0,0,1,6.4-1.42c2-.4,4-.65,5.94-1,.72-.11,1.42-.15,2.14-.27l7.95-1.37c2.05-.34,4.1-.64,6.12-1,1.23-.25,2.39-.74,3.6-.92,2.19-.34,4.38-.64,6.57-.93l1.34-.2c0-.39.08-.77.09-1.16ZM150.33,54.33l-.27-.45q-.81.16-1.62.36a2.11,2.11,0,0,0,.16.3,1.58,1.58,0,0,0,.13.26l1.65-.38A.9.9,0,0,1,150.33,54.33Zm37.85-6.79a.14.14,0,0,1,0,.11l.13,0a1.11,1.11,0,0,0,.16-.07A.78.78,0,0,1,188.18,47.54Z"/><path class="cls-2" d="M190,32.1l-1.06.16a1.09,1.09,0,0,1-.25,0c-4.85.77-9.7,1.63-14.55,2.49-1.38.25-2.73.61-4.11.86-5.85,1.05-11.72,2-17.58,3.11-2.19.4-4.36.88-6.52,1.37l-1.45.34c0-.25.05-.52.09-.79s.07-.43.09-.65l1.38-.27c3.18-.63,6.38-1.17,9.55-1.78s6.16-1.25,9.23-1.85c.94-.18,1.93-.18,2.84-.36,3.57-.7,7.13-1.45,10.7-2.15,1.44-.27,2.88-.43,4.31-.65.11,0,.24,0,.34,0a16.7,16.7,0,0,1,5.32-1.08l1.26-.14h0c.15.43.27.86.38,1.29A.16.16,0,0,0,190,32.1Z"/><path class="cls-2" d="M186.69,24.63l-1.55.34c-.91.22-1.83.4-2.76.57-2.35.49-4.72.9-7.09,1.35-.94.18-1.87.4-2.82.56-5.12.93-10.26,1.88-15.39,2.8-2.77.5-5.53.93-8.28,1.47a15.7,15.7,0,0,0-1.9.52c-.45.13-.88.27-1.33.42l-.23.1c.07-.48.14-.93.25-1.4.46-.16.93-.3,1.4-.45l.21-.07c.51-.14,1.91-.51,2.39-.57a25.48,25.48,0,0,0,2.55-.38l5.8-1.06c1.92-.36,3.83-.88,5.75-1.06,3.09-.29,6-1.36,9-1.85,1.78-.3,3.55-.66,5.33-.84a28.59,28.59,0,0,0,4.76-1c.4-.11.79-.2,1.19-.27h0c.58-.12,1.17-.21,1.76-.28A11.06,11.06,0,0,1,186.69,24.63Z"/><path class="cls-2" d="M188.86,28.78c-.45,0-.88.09-1.33.14a32.46,32.46,0,0,0-4.47.9,22.23,22.23,0,0,1-4,.66,56,56,0,0,0-8.26,1.44c-.66.16-1.34.12-2,.23-3.25.54-6.5,1.06-9.75,1.71-4.11.81-8.2,1.7-12.3,2.57l-.48.12a7.1,7.1,0,0,0-1.39.47c0-.4.06-.79.09-1.19a.82.82,0,0,0,0-.21,9.08,9.08,0,0,1,1.44-.5,7.53,7.53,0,0,1,1-.22c3.61-.59,7.21-1.2,10.81-1.89,4-.75,8-1.61,12-2.35,3.7-.66,7.41-1.22,11.11-1.83,1.87-.3,3.72-.65,5.59-1H187c.43-.09.84-.16,1.26-.23C188.48,28,188.68,28.38,188.86,28.78Z"/><path class="cls-2" d="M174.86,16.37a16.25,16.25,0,0,1-2.09.2,18,18,0,0,0-3,.52l-1.31.28h0c-2.24.49-4.47,1-6.71,1.44-1.67.36-3.36.68-5.05,1h0c-.43.09-.88.18-1.33.29-.84.18-1.69.36-2.53.56a16.33,16.33,0,0,1,2.53-1.87l.24-.11c.46-.09.95-.18,1.41-.29,3.67-.84,7.31-1.7,11-2.51.64,0,1.29,0,1.94,0,1.34.05,2.71.09,4,.27A8.49,8.49,0,0,1,174.86,16.37Z"/><path class="cls-2" d="M183.58,21.52c-.55.13-1.13.24-1.69.34l-.71.11c-5.61.85-11.17,1.9-16.76,2.91a6.88,6.88,0,0,0-2.06.65,19.62,19.62,0,0,1-7.06,2.1,38.43,38.43,0,0,0-7.68,1.86v0a18.69,18.69,0,0,0-1.75.69c.17-.54.34-1.08.56-1.6v0c.61-.22,1.22-.43,1.85-.59a1.41,1.41,0,0,1,.32-.09c3.32-.83,6.7-1.44,10-2.19a14.18,14.18,0,0,0,2.86-1,29.39,29.39,0,0,1,4.13-1.37c3.34-1,6.86-1,10.21-2,.86-.23,1.82-.11,2.68-.27.7-.13,1.36-.29,2.06-.47s1.13-.27,1.71-.36h0c.16.15.3.31.46.47S183.31,21.29,183.58,21.52Z"/><path class="cls-2" d="M190.39,34.81c0,.41,0,.83,0,1.24l-1.49.25c-4,.66-7.94,1.33-11.89,2-3.75.65-7.49,1.36-11.26,2-3.07.52-6.19.93-9.28,1.47-2.8.51-5.6,1.12-8.41,1.69-.71.16-1.43.27-2.17.4-.47.07-.91.16-1.38.25,0-.4-.09-.83-.09-1.24a6.42,6.42,0,0,1,.66-.13l.72-.09C151,42,156.18,41.08,161.35,40c2.19-.45,4.44-.63,6.65-1,1.86-.34,3.7-.84,5.58-1.17,2.69-.46,5.42-.84,8.13-1.27a10.35,10.35,0,0,0,2.63-.56A15,15,0,0,1,189,35C189.45,34.94,189.92,34.88,190.39,34.81Z"/><path class="cls-2" d="M190.21,38.71c0,.45-.09.91-.13,1.36-.48.09-1,.18-1.49.25-.25.06-.52.09-.77.13-2.17.29-4.35.48-6.5.81s-4.35.86-6.59,1c-1.37.09-2.71.56-4.08.79-2.64.47-5.29.86-7.93,1.31s-5.5,1-8.25,1.53c-.77.14-1.58.12-2.35.27-1.65.3-3.28.66-4.94,1l-.23,0a3.11,3.11,0,0,1-.91.07c-.17,0-.36-.29-.42-.46a.78.78,0,0,1,.22-.58c.18-.11.36-.18.54-.27a2.28,2.28,0,0,1,.54-.18,31.72,31.72,0,0,1,3.32-.61c4.15-.38,8.2-1.24,12.3-1.94,2.55-.43,5.1-.77,7.65-1.2,1.27-.22,2.51-.56,3.79-.79,1.83-.31,3.62-.7,5.47-.85a52.91,52.91,0,0,0,7.62-1.27,14.56,14.56,0,0,1,1.61-.25Z"/><path class="cls-2" d="M180.17,18.56a.22.22,0,0,1-.11,0c-.79.16-1.58.28-2.37.43h0c-2.28.41-4.57.84-6.85,1.29-4.94,1-9.88,2.07-14.8,3.11l-5.24,1.06c-.85.18-1.67.36-2.5.52a10.87,10.87,0,0,1,1-1.29l.05-.06,2.95-.61,6.05-1.2c2.64-.52,5.28-1,7.92-1.51q5-1,9.95-1.92a1,1,0,0,1,.28-.07c.87-.17,1.75-.29,2.63-.43C179.45,18.09,179.81,18.33,180.17,18.56Z"/><path class="cls-2" d="M187.19,53.25c-.2.36-.41.72-.64,1.08v0c-.72.1-1.46.23-2.18.36l-12.21,2.11c-2.21.38-4.42.7-6.64,1.08-3,.5-6,1-9.05,1.55-.77.12-1.55.27-2.34.43l-.32,0a.42.42,0,0,1-.13-.07c-.48-.31-1-.63-1.4-1,.85-.15,1.69-.27,2.54-.4l8.4-1.31c2.6-.41,5.19-.93,7.79-1.34,3.06-.51,6.11-.94,9.14-1.42,1.64-.27,3.27-.54,4.89-.83C185.75,53.48,186.49,53.36,187.19,53.25Z"/><path class="cls-2" d="M185.18,56.41c-.23.34-.48.67-.74,1h0c-.79.11-1.58.23-2.36.36-3.75.59-7.5,1.35-11.24,2-3,.54-6,1.06-9,1.63h0l-3.86.74c-.12,0-.27,0-.39.09a3.7,3.7,0,0,1-.43-.25c-.33-.18-.65-.38-1-.58l2.55-.45,10.48-1.83c3.94-.68,7.87-1.27,11.8-1.94.63-.1,1.28-.23,1.9-.34Z"/><path class="cls-2" d="M181.71,60.66c-.08.09-.16.17-.23.26a5,5,0,0,1-1.33.93c-3.25.45-6.52.92-9.78,1.36-2.21.3-4.44.51-6.65.84q-.42.06-.84.15a4,4,0,0,0-1.16-.65q6.12-.91,12.22-1.79C176.53,61.39,179.12,61,181.71,60.66Z"/><path class="cls-2" d="M190,32.1a.16.16,0,0,1,0-.09c-.11-.43-.23-.86-.38-1.29a16.31,16.31,0,0,0-.77-1.94c-.18-.4-.38-.78-.57-1.15-.34-.7-.72-1.39-1.08-2.1-.16-.31-.34-.6-.52-.9a11.06,11.06,0,0,0-.92-1.11,14.16,14.16,0,0,0-1.13-1.06c-.36-.29-.72-.61-1.06-.94s-.54-.5-.81-.77-.3-.32-.46-.47h0a14.79,14.79,0,0,0-2.12-1.72c-.36-.23-.72-.47-1.09-.66a14.59,14.59,0,0,0-4.22-1.53,8.49,8.49,0,0,0-.88-.14c-1.33-.18-2.7-.22-4-.27-.65,0-1.3-.06-1.94,0-.35,0-.7,0-1.06.05-2.05.22-4.1.69-6.14.74s-3.56,1.17-5.19,2l-.24.11a16.33,16.33,0,0,0-2.53,1.87l-.14.1a39.63,39.63,0,0,1-3.24,2.64c-.07,0-.1.13-.16.2l-.05.06a10.87,10.87,0,0,0-1,1.29,20.13,20.13,0,0,0-1.8,3.48l0,.11v0c-.22.52-.39,1.06-.56,1.6h0c-.09.38-.19.76-.28,1.15s-.18.92-.25,1.4a26.9,26.9,0,0,0-.33,2.86.82.82,0,0,1,0,.21c0,.4-.05.79-.09,1.19q-.08,1-.21,2c0,.22-.06.43-.09.65s-.07.54-.09.79a13.38,13.38,0,0,0-.09,2.44c0,.41.05.84.09,1.24a12.47,12.47,0,0,0,1.65,4.77c.31.52.63,1.06.9,1.62a10.63,10.63,0,0,1,.52,1.22c0,.16.11.32.16.5a6.57,6.57,0,0,0,.23.79,6.14,6.14,0,0,0,.33.88l.14.31a2.11,2.11,0,0,0,.16.3,1.58,1.58,0,0,0,.13.26,7.56,7.56,0,0,0,.65,1.06,3.93,3.93,0,0,0,.46.66c.29.36.59.7.9,1a17.92,17.92,0,0,0,1.54,1.35c.45.32.92.64,1.4,1a.42.42,0,0,0,.13.07c.77.49,1.54,1,2.32,1.47.32.2.64.4,1,.58a3.7,3.7,0,0,0,.43.25,7.25,7.25,0,0,0,1.52.65c.88.27,1.82.36,2.66.66a4.13,4.13,0,0,1,1.17.66.23.23,0,0,1,.09.08.74.74,0,0,0,.47.16,24.52,24.52,0,0,0,4.2,0,95,95,0,0,0,11.7-2.24c.27-.09.54-.2.81-.31a4.59,4.59,0,0,0,1.33-.93c.07-.09.15-.16.23-.25a41.84,41.84,0,0,0,2.73-3.27c.26-.32.51-.65.74-1,.49-.66.95-1.36,1.37-2.06v0c.23-.36.44-.72.64-1.08s.4-.68.58-1,.25-.47.36-.68c.25-.45.48-.88.7-1.35a8.06,8.06,0,0,0,.57-1.4,6.35,6.35,0,0,0,.16-.85,2.14,2.14,0,0,0,.06-.35c0-.2,0-.4,0-.58,0-.34.06-.68.07-1,.06-.79.11-1.56.16-2.35,0-.39.08-.77.09-1.16s.09-1.08.13-1.62c0,0,0,0-.09,0,0-.25.05-.52.07-.79,0-.45.09-.91.13-1.36s.07-.69.09-1c0-.54.09-1.09.09-1.63s0-.83,0-1.24A18.15,18.15,0,0,0,190,32.1Zm-1.15,4.43c-.09.78-.16,1.57-.2,2.34,0,.48-.07,1-.09,1.45,0,.81-.05,1.62-.05,2.41v1.13c0,.23,0,.47,0,.7a10.12,10.12,0,0,1-.11,1.67,6.82,6.82,0,0,1-.2,1,1.23,1.23,0,0,1-.07.29.14.14,0,0,1,0,.11,3.23,3.23,0,0,1-.16.59c-.09.29-.2.56-.3.85a15.56,15.56,0,0,1-.74,1.47c-.18.3-.36.61-.57.91-.08.11-.15.24-.22.34-.4.6-.75,1.19-1.11,1.8-.22.38-.45.74-.67,1.1a14.16,14.16,0,0,1-.93,1.4c-.18.25-.38.5-.58.73a11.89,11.89,0,0,1-.79.92c-.5.54-1,1.08-1.52,1.6a2.29,2.29,0,0,1-1,.59,38,38,0,0,1-6,1.44c-1.38.14-2.74.5-4.11.77l-2.94.5c-1.49.47-2.62-.57-3.84-1-.29-.08-.56-.19-.85-.25h0a3.09,3.09,0,0,0-1.06-.14,4.43,4.43,0,0,1-2-.31,5.43,5.43,0,0,1-1.76-1.16,2.8,2.8,0,0,0-.45-.34,3.66,3.66,0,0,0-.92-.56c-.25-.13-.5-.25-.73-.38a11,11,0,0,1-2-1.33,8.21,8.21,0,0,1-1.06-1,6.78,6.78,0,0,1-.66-.76,8.29,8.29,0,0,1-.74-1,.9.9,0,0,1,0-.09l-.27-.45-.11-.22a6.18,6.18,0,0,1-.41-.86,6.5,6.5,0,0,1-.36-.9c-.11-.26-.2-.53-.29-.8s-.29-.78-.45-1.15a10.89,10.89,0,0,0-1-2,5.23,5.23,0,0,1-.45-.74,7.75,7.75,0,0,1-.57-1.24,9.09,9.09,0,0,1-.49-2.06,9.57,9.57,0,0,1-.09-1.21c0-.32,0-.64,0-1,0-.54.09-1.06.12-1.59s.08-.9.11-1.37c.06-.74.13-1.47.22-2.21,0-.48.09-.95.16-1.43.12-1,.25-1.93.45-2.88a4.68,4.68,0,0,1,.09-.54c.07-.3.12-.57.21-.86a9.37,9.37,0,0,1,.42-1.33v0a9.11,9.11,0,0,1,.66-1.5,14,14,0,0,1,2.5-3.52c.12-.15.27-.29.41-.45.34-.34.7-.67,1.06-1a33.69,33.69,0,0,1,4.45-3.18h0c.38-.23.74-.45,1.11-.66a13.05,13.05,0,0,1,6-1.28,19.25,19.25,0,0,0,2.13-.23c.83-.13,1.67-.25,2.5-.31h0a10.89,10.89,0,0,1,2.84.13c1.59.31,3.28.23,4.83.9a.57.57,0,0,1,.25.11c.41.18.82.35,1.25.5h0a10.57,10.57,0,0,1,1.92.91,10.16,10.16,0,0,1,1,.72c.45.4.88.81,1.31,1.22l.61.6c.31.25.51.64.81.84a7.17,7.17,0,0,1,.69.5h0A8.88,8.88,0,0,1,185.14,25,16.82,16.82,0,0,1,187,27.86c.18.34.36.68.53,1,0,0,0,0,0,0a12.17,12.17,0,0,1,.83,1.94,11.23,11.23,0,0,1,.36,1.44,11.95,11.95,0,0,1,.18,4A.9.9,0,0,1,188.88,36.53Z"/><path class="cls-2" d="M150.33,54.33l-1.1.2-.52.12a.38.38,0,0,1-.11-.11,1.55,1.55,0,0,1-.45-.59l.15,0,1.65-.27.11.22Z"/><path class="cls-2" d="M189.65,47c0,.18,0,.38,0,.58a2.14,2.14,0,0,1-.06.35l-.63.11-1,.18a3.23,3.23,0,0,0,.16-.59.14.14,0,0,0,0-.11,1.23,1.23,0,0,0,.07-.29C188.72,47.18,189.18,47.11,189.65,47Z"/><path d="M112.24,2.49h0c-2.22,0-4.45.16-6.69.25a17.65,17.65,0,0,1-3,.09c-1.32-.18-1.41-.25-1.83,1a4.67,4.67,0,0,0-.18,1.63c.06,1,.33,1.89.33,2.84,0,5.51,0,11,0,16.5,0,1.74-.12,3.49-.16,5.21,0,1.08.07,2.14.07,3.2s-.11,2.35,0,3.53c.12,3.63.37,7.26.46,10.89s0,7,0,10.59h.11c-.07,1.24-.16,2.46-.25,3.7a1.12,1.12,0,0,0,1.31,1.29c1.17-.12,2.32-.32,3.48-.47a6.34,6.34,0,0,1,2.32-.12c1.44.38,2.78-.16,4.18-.13a1,1,0,0,0,1-.91c.07-.9.14-1.8.14-2.68,0-2.93-.13-5.83-.11-8.74,0-4.38.18-8.77.22-13.15,0-7.47,0-14.94.11-22.41,0-1.63.09-3.25.1-4.88s-.34-3.56.13-5.35C114.16,3.46,113.19,2.49,112.24,2.49Zm0,5.58c0,2.75,0,5.48,0,8.23-.05,3.12-.2,6.25-.23,9.39,0,1.43.1,2.89.16,4.34,0,.29,0,.56,0,.85,0,2.22,0,4.47,0,6.7a40.87,40.87,0,0,1-.28,5.18,50.19,50.19,0,0,0,0,5.88c.06,2.85.13,5.71.15,8.58a7.42,7.42,0,0,1-.2,1.49c-.27,1.69-.4,1.94-2,1.71-1.77-.27-3.39.52-5.11.55-.43,0-.88.15-1.33.2-.67.11-.9-.25-.9-.86V49.71h.18c-.25-4.37-.5-8.73-.74-13.11,0-.72,0-1.46,0-2.17,0-2.86.07-5.72.1-8.59.06-3.86.15-7.72.15-11.58,0-2.64-.15-5.26-.22-7.9,0-1.08.2-1.51,1.29-1.76a14.61,14.61,0,0,1,2.48-.29c1.26-.09,2.53-.12,3.81-.18a12.16,12.16,0,0,1,1.35,0c1.41.11,1.43.22,1.25,1.67A16.11,16.11,0,0,0,112.28,8.07Z"/><path class="cls-1" d="M112.28,8.07c0,2.75,0,5.48,0,8.23-.05,3.12-.2,6.25-.23,9.39,0,1.43.1,2.89.16,4.34,0,.29,0,.56,0,.85,0,2.22,0,4.47,0,6.7a40.87,40.87,0,0,1-.28,5.18,50.19,50.19,0,0,0,0,5.88c.06,2.85.13,5.71.15,8.58a7.42,7.42,0,0,1-.2,1.49c-.27,1.69-.4,1.94-2,1.71-1.77-.27-3.39.52-5.11.55-.43,0-.88.15-1.33.2-.67.11-.9-.25-.9-.86V49.71h.18c-.25-4.37-.5-8.73-.74-13.11,0-.72,0-1.46,0-2.17,0-2.86.07-5.72.1-8.59.06-3.86.15-7.72.15-11.58,0-2.64-.15-5.26-.22-7.9,0-1.08.2-1.51,1.29-1.76a14.61,14.61,0,0,1,2.48-.29c1.26-.09,2.53-.12,3.81-.18a12.16,12.16,0,0,1,1.35,0c1.41.11,1.43.22,1.25,1.67A16.11,16.11,0,0,0,112.28,8.07Z"/><path d="M136.72,52.32c0-.51-.06-1-.06-1.51-.07-2.91-.12-5.84-.18-8.75,0-.84-.07-1.68,0-2.53,0-4,.12-8,.16-11.94,0-3.61,0-7.2,0-10.79,0-2.07.21-4.13.34-6.21h-.09c0-.45,0-.9,0-1.35a23,23,0,0,0-.81-6.12c-.09-.25-.16-.47-.23-.63H124.92c-.32.2-.41.54-.36,1.15q.31,4.09.61,8.19c0,.73,0,1.45.07,2.19.07,1.22.27,2.46.22,3.68-.22,4.18-.77,8.35-.42,12.55a2.12,2.12,0,0,1-.05.5,53,53,0,0,0-.2,8.73,17.36,17.36,0,0,1,0,5.19,4.86,4.86,0,0,0,0,1c.09,2.57.27,5.14.26,7.71s-.24,5-.35,7.52a1.68,1.68,0,0,0,1.87,1.81c1.35,0,2.68,0,4-.05l6.36-.14h0V57.24C137,55.59,136.84,54,136.72,52.32Zm-2.36,7.77c-1.61.13-3.21.33-4.83.49,0-.06,0-.13,0-.18-.78.05-1.57.12-2.36.14s-1-.18-1-1c0-1.5.11-3,.13-4.52,0-3.3,0-6.61,0-9.91,0-3.07-.16-6.16-.19-9.25,0-.95.07-1.9.07-2.86,0-1.5,0-3,0-4.54.06-2.17.13-4.36.25-6.53.18-2.84.58-5.66.09-8.55A49.81,49.81,0,0,1,126.37,7c0-.79-.12-1.56-.14-2.35,0-.41.09-.75.66-.75,2.34,0,4.65-.09,7-.13.91,0,1.22.21,1.33,1.09a28.41,28.41,0,0,1,.25,3.67c-.05,5.42-.16,10.84-.27,16.25-.09,4.4-.23,8.8-.25,13.2,0,2,.23,3.91.36,5.87a11.85,11.85,0,0,1,.07,1.33,96.94,96.94,0,0,0,.47,12.4c0,.27,0,.56,0,.83C135.91,60.4,135.71,60,134.36,60.09Z"/><path class="cls-1" d="M134.36,60.09c-1.61.13-3.21.33-4.83.49,0-.06,0-.13,0-.18-.78.05-1.57.12-2.36.14s-1-.18-1-1c0-1.5.11-3,.13-4.52,0-3.3,0-6.61,0-9.91,0-3.07-.16-6.16-.19-9.25,0-.95.07-1.9.07-2.86,0-1.5,0-3,0-4.54.06-2.17.13-4.36.25-6.53.18-2.84.58-5.66.09-8.55A49.81,49.81,0,0,1,126.37,7c0-.79-.12-1.56-.14-2.35,0-.41.09-.75.66-.75,2.34,0,4.65-.09,7-.13.91,0,1.22.21,1.33,1.09a28.41,28.41,0,0,1,.25,3.67c-.05,5.42-.16,10.84-.27,16.25-.09,4.4-.23,8.8-.25,13.2,0,2,.23,3.91.36,5.87a11.85,11.85,0,0,1,.07,1.33,96.94,96.94,0,0,0,.47,12.4c0,.27,0,.56,0,.83C135.91,60.4,135.71,60,134.36,60.09Z"/><path d="M83.65,35.26a6.46,6.46,0,0,1-.79-1.46,13.49,13.49,0,0,0-3.55-5.62c-1.42-1.38-3-2.55-5.15-2.47-1.23,0-2.45,0-3.67,0a.06.06,0,0,0,0,0,5.54,5.54,0,0,0-2.11.29C66.61,27,64.91,28,64,30a15.06,15.06,0,0,1-1.58,2.75,8.43,8.43,0,0,0-1.1,3.14.91.91,0,0,0,.94,1.24c1.72.12,3.43.34,5.15.46s3.59.08,5.35.34a13.68,13.68,0,0,0,3.67.2c1.59-.16,3.21-.32,4.83-.46a1.31,1.31,0,0,1,.79,0,1.4,1.4,0,0,0,2-.32C84.37,37,84.14,36,83.65,35.26Zm-2.69.9a18.3,18.3,0,0,1-6.95.5c-1.67-.16-3.36-.16-5-.23-1.45-.08-2.89-.13-4.34-.24-1-.07-1.4-.59-1-1.58a17.06,17.06,0,0,1,1-2.12c.69-1.22,1.37-2.44,2.1-3.62a3.07,3.07,0,0,1,2.23-1.37c1.33-.16,2.66-.29,4-.43a5.39,5.39,0,0,1,4.59,1.72,17.81,17.81,0,0,1,2.09,2.79c.68,1.15,1.24,2.37,1.85,3.57C81.7,35.65,81.52,36,81,36.16Z"/><path d="M475.11,57.74c-1.21-2-2.23-4-3.42-6-1.54-2.55-3.1-5.06-4.77-7.52s-3.49-4.82-5.21-7.22a12.49,12.49,0,0,1-1.11-1.71,2.05,2.05,0,0,1,.27-2.49c.77-.83,1.54-1.64,2.33-2.45s1.54-1.59,2.3-2.42c1.63-1.83,3.07-3.88,5.28-5.13a2.31,2.31,0,0,0,.39-.31,44,44,0,0,0,4.17-3.79c.68-.68,1.45-2.24,1-2.26-1.1-.06-2.71-.07-3.59-.09-1.31,0-2.55-.2-3.83-.11a49.72,49.72,0,0,1-5.67.5,2.68,2.68,0,0,0-2.84,1.8A13.74,13.74,0,0,1,458,22c-.92,1-1.9,2.05-2.91,3-1.54,1.45-3.38,2.6-4.65,4.36a12,12,0,0,1-1.87,1.9,1,1,0,0,1-.72.29c-.14,0-.28-.45-.28-.68-.08-2.64-.27-5.28-.13-7.9a85.1,85.1,0,0,0-.05-8.75A54.51,54.51,0,0,1,448,2.47c.19-1.15-.29-1.56-1.51-1.51a29.18,29.18,0,0,1-4.67.06,10.35,10.35,0,0,0-4.6.14c-.05,0-.1,0-.16,0a1.18,1.18,0,0,0-1.17,1.37c0,1.49,0,3,0,4.5H436c0,1.13,0,2.25,0,3.38.07,4,.18,8.06.2,12.08,0,3.38-.13,6.74-.15,10.11,0,3.15.08,6.29.11,9.43,0,2,.06,4,0,6.05,0,1.64-.22,3.25-.22,4.87,0,2.35.08,4.7.18,7a2,2,0,0,0,.54,1.31,1.08,1.08,0,0,0,1.51-.2,3.35,3.35,0,0,1,2.64-.79c1.78.11,3.56.2,5.33.18s2-.41,2-2.08c-.09-2.75-.11-5.52-.13-8.26,0-.49-.59-2.77-.16-3.2.6-.56.88-.77,1-.9.76-.81,1.51-1.63,2.34-2.39a.79.79,0,0,1,1.29.22c.52.81,1,1.62,1.47,2.44,1,1.82,1.9,3.7,3,5.44,1.49,2.3,3.16,4.47,4.72,6.74.41.61,1.92,3,2.48,3s1.4,0,1.85,0c3.07,0,7.41-.1,10.48-.16C476.88,61.22,475.48,58.37,475.11,57.74Zm-2.79,2.14a13.25,13.25,0,0,1-1.67,0c-1.83,0-3.66,0-5.49-.06a1.48,1.48,0,0,1-.94-.59c-1.25-1.64-2.47-3.31-3.68-5a35.43,35.43,0,0,1-3.82-6.11,49.29,49.29,0,0,0-3.61-6c-.74-1.15-1.46-1.24-2.43-.29-1.29,1.29-2.55,2.64-3.82,4a1.66,1.66,0,0,0-.49,1.35,75.65,75.65,0,0,1,.22,10.54c0,.93-.45,1.31-1.38,1.33-.54,0-1.1-.08-1.64-.11a8.37,8.37,0,0,0-4,.11,1.74,1.74,0,0,1-.51,0c-1.13,0-1.41-.23-1.41-1.29,0-2.24,0-4.49.05-6.72h-.09a53.29,53.29,0,0,0,0-6.06c-.41-3.69,0-7.38-.34-11.08-.15-1.94.09-3.9.12-5.86,0-1,0-2,.06-3,0-4.39.16-8.77,0-13.13-.09-2.48.19-4.92.25-7.38,0-1.67.63-2.21,2.24-2.16,2,0,3.9.13,5.86.24.61,0,.62.55.59,1-.09,1.55-.29,3.11-.29,4.65,0,2.46.18,4.92.16,7.38,0,3.52-.14,7.06-.23,10.58a3.79,3.79,0,0,0,0,1,18.47,18.47,0,0,1,.08,5.7,5.92,5.92,0,0,0,.16,1.83c.05.25.43.5.72.57.14.06.48-.25.59-.46a9.75,9.75,0,0,1,2.8-3.49c.93-.77,1.63-1.83,2.53-2.67,1.58-1.51,3.27-2.89,4.8-4.44s2.83-3.16,4.2-4.76c.12-.14,0-.43.12-.61a1.23,1.23,0,0,1,1.51-.9c.52.13,1,.22,1.38-.21.08-.07.24-.16.31-.13,1.18.56,2.37-.23,3.59,0a23.57,23.57,0,0,0,3.47.05,3,3,0,0,1,.8,0c.61.16.74.66.29,1.13a13.4,13.4,0,0,1-1.15,1c-.55.45-1.13.88-1.7,1.31l-1.35.95a7.89,7.89,0,0,0-.9.72c-.55.61-1.06,1.29-1.63,1.9-2,2.12-4,4.2-6,6.32-.61.65-1.24,1.31-1.83,2a1.38,1.38,0,0,0-.14,2,23.61,23.61,0,0,0,1.79,2.45c1.31,1.52,2.21,3.35,3.79,4.68a4.72,4.72,0,0,1,1.22,1.8,29.7,29.7,0,0,0,4,6.59,2.36,2.36,0,0,1,.45.72c.79,2.47,2.39,4.54,3.61,6.8a9.61,9.61,0,0,1,.57,1.55A17.09,17.09,0,0,1,472.32,59.88Z"/><path class="cls-1" d="M474.08,59.54a17.09,17.09,0,0,1-1.76.34,13.25,13.25,0,0,1-1.67,0c-1.83,0-3.66,0-5.49-.06a1.48,1.48,0,0,1-.94-.59c-1.25-1.64-2.47-3.31-3.68-5a35.43,35.43,0,0,1-3.82-6.11,49.29,49.29,0,0,0-3.61-6c-.74-1.15-1.46-1.24-2.43-.29-1.29,1.29-2.55,2.64-3.82,4a1.66,1.66,0,0,0-.49,1.35,75.65,75.65,0,0,1,.22,10.54c0,.93-.45,1.31-1.38,1.33-.54,0-1.1-.08-1.64-.11a8.37,8.37,0,0,0-4,.11,1.74,1.74,0,0,1-.51,0c-1.13,0-1.41-.23-1.41-1.29,0-2.24,0-4.49.05-6.72h-.09a53.29,53.29,0,0,0,0-6.06c-.41-3.69,0-7.38-.34-11.08-.15-1.94.09-3.9.12-5.86,0-1,0-2,.06-3,0-4.39.16-8.77,0-13.13-.09-2.48.19-4.92.25-7.38,0-1.67.63-2.21,2.24-2.16,2,0,3.9.13,5.86.24.61,0,.62.55.59,1-.09,1.55-.29,3.11-.29,4.65,0,2.46.18,4.92.16,7.38,0,3.52-.14,7.06-.23,10.58a3.79,3.79,0,0,0,0,1,18.47,18.47,0,0,1,.08,5.7,5.92,5.92,0,0,0,.16,1.83c.05.25.43.5.72.57.14.06.48-.25.59-.46a9.75,9.75,0,0,1,2.8-3.49c.93-.77,1.63-1.83,2.53-2.67,1.58-1.51,3.27-2.89,4.8-4.44s2.83-3.16,4.2-4.76c.12-.14,0-.43.12-.61a1.23,1.23,0,0,1,1.51-.9c.52.13,1,.22,1.38-.21.08-.07.24-.16.31-.13,1.18.56,2.37-.23,3.59,0a23.57,23.57,0,0,0,3.47.05,3,3,0,0,1,.8,0c.61.16.74.66.29,1.13a13.4,13.4,0,0,1-1.15,1c-.55.45-1.13.88-1.7,1.31l-1.35.95a7.89,7.89,0,0,0-.9.72c-.55.61-1.06,1.29-1.63,1.9-2,2.12-4,4.2-6,6.32-.61.65-1.24,1.31-1.83,2a1.38,1.38,0,0,0-.14,2,23.61,23.61,0,0,0,1.79,2.45c1.31,1.52,2.21,3.35,3.79,4.68a4.72,4.72,0,0,1,1.22,1.8,29.7,29.7,0,0,0,4,6.59,2.36,2.36,0,0,1,.45.72c.79,2.47,2.39,4.54,3.61,6.8A9.61,9.61,0,0,1,474.08,59.54Z"/><path d="M323.88,41.15a2,2,0,0,1-.26-.63.76.76,0,0,1,0-.14.93.93,0,0,1,0-.33c-.09-2.12-.09-4.25-.25-6.37a7.66,7.66,0,0,0-.65-3.11c-1.36-2.57-2.87-5-4.41-7.52a7,7,0,0,0-2.77-2.64c-.61-.31-1.15-.72-1.76-1-2.19-1-4.42-1.88-6.63-2.8a1.53,1.53,0,0,0-.48-.11c-1.74-.18-3.47-.39-5.21-.5a13.21,13.21,0,0,0-3,.18,39.23,39.23,0,0,0-9.11,2.93,11.34,11.34,0,0,0-5,4.32,51.76,51.76,0,0,0-4,6.79,2.33,2.33,0,0,1-.36.56,5.62,5.62,0,0,0-1.37,3.71c-.07,1.69-.05,3.38-.07,5h0c0,1.58-.06,3.14,0,4.72a5.76,5.76,0,0,0,.66,2.73,7.68,7.68,0,0,1,.67,2.23,12.64,12.64,0,0,0,.39,2.66c1,2.08,2.12,4.07,3.22,6.08a2.3,2.3,0,0,0,.81.83c1.33.83,2.65,1.67,4,2.39a15.26,15.26,0,0,0,3.68,1.63c3.21.72,6.46,1.24,9.71,1.8a10.36,10.36,0,0,0,2.84.34,19.51,19.51,0,0,0,6.48-1.72,22.54,22.54,0,0,1,2.28-1.08,12.43,12.43,0,0,0,6.52-5.8c1-1.82,1.87-3.68,2.79-5.55.59-1.24.26-1.87-1.1-2.14a6.73,6.73,0,0,0-1,0c-2.78,0-5.56.11-8.33.15a1.82,1.82,0,0,0-1.69,1.13,6.77,6.77,0,0,1-2,2.6,14.35,14.35,0,0,1-9.08,2.37,7.3,7.3,0,0,1-5.3-3.12,38.18,38.18,0,0,1-3-5.24,4.47,4.47,0,0,1-.31-1.76c0-.44.31-.69.79-.69,1.3,0,2.57-.05,3.87-.1,2.06-.08,4.14-.09,6.21-.24,2.51-.18,5-.48,7.52-.66s5-.31,7.53-.4a4.64,4.64,0,0,1,2,.25c1.42.65,2.89.15,4.33.33a1,1,0,0,0,.52-.16,5.64,5.64,0,0,0,.86-.83C324.63,41.85,324.15,41.51,323.88,41.15Zm-3,.45c-1.33-.16-2.66-.36-4-.54a2.11,2.11,0,0,0-.83,0,15.54,15.54,0,0,1-5.17.39,46.43,46.43,0,0,0-7.34.63c-1.21.2-2.48,0-3.67.27-2.28.49-4.56-.16-6.84.15a18.93,18.93,0,0,1-2,.09,2,2,0,0,0-2.21,1.9,5.39,5.39,0,0,0,.74,3.21c1,1.89,2.15,3.68,3.12,5.57.86,1.63,2.37,2.23,3.93,2.85a12.87,12.87,0,0,0,4.8.53,10.88,10.88,0,0,0,6.43-1.48,9.68,9.68,0,0,0,3.59-3.89,1,1,0,0,1,1-.7c.67,0,1.33,0,2,0,1.16,0,2.31-.09,3.48-.11a10.84,10.84,0,0,1,1.51.09c1,.14,1.15.36.81,1.33a11.12,11.12,0,0,1-.94,2c-.82,1.39-1.65,2.79-2.56,4.13-1.33,2-3.56,2.63-5.54,3.61-1,.47-2,.76-3,1.15a9.58,9.58,0,0,1-5.13.52A44.46,44.46,0,0,1,295.68,62c-1.31-.43-2.76-.39-4-1-1.95-1-3.95-1.88-5.83-3A7,7,0,0,1,284,56a14.54,14.54,0,0,1-2.71-6.78A28.37,28.37,0,0,0,280.4,45a8.19,8.19,0,0,1-.16-2.46c0-1.51-.16-3-.07-4.52a52.82,52.82,0,0,1,.65-5.62,5.22,5.22,0,0,1,.84-1.62c1.33-2.28,2.53-4.65,4-6.81A10.83,10.83,0,0,1,288.86,21a25.15,25.15,0,0,1,7.26-3,25.61,25.61,0,0,1,8.11-.7c4.17.36,7.47,2.39,10.83,4.49A9,9,0,0,1,317.9,25c.48.82,1,1.59,1.59,2.37a12.64,12.64,0,0,1,2.29,6.93c0,.54,0,1.09,0,1.65.36,1.54-.36,3.11.14,4.67C322.17,41.44,321.81,41.72,320.9,41.6Z"/><path class="cls-1" d="M321.9,40.63c-.5-1.56.22-3.13-.14-4.67,0-.56,0-1.11,0-1.65a12.64,12.64,0,0,0-2.29-6.93c-.55-.78-1.11-1.55-1.59-2.37a9,9,0,0,0-2.84-3.22c-3.36-2.1-6.66-4.13-10.83-4.49a25.61,25.61,0,0,0-8.11.7,25.15,25.15,0,0,0-7.26,3A10.83,10.83,0,0,0,285.68,24c-1.49,2.16-2.69,4.53-4,6.81a5.22,5.22,0,0,0-.84,1.62,52.82,52.82,0,0,0-.65,5.62c-.09,1.5.11,3,.07,4.52A8.19,8.19,0,0,0,280.4,45a28.37,28.37,0,0,1,.92,4.26A14.54,14.54,0,0,0,284,56a7,7,0,0,0,1.78,2c1.88,1.1,3.88,2,5.83,3,1.28.65,2.73.61,4,1a44.46,44.46,0,0,0,7.46,1.22,9.58,9.58,0,0,0,5.13-.52c1-.39,2-.68,3-1.15,2-1,4.21-1.65,5.54-3.61.91-1.34,1.74-2.74,2.56-4.13a11.12,11.12,0,0,0,.94-2c.34-1,.18-1.19-.81-1.33a10.84,10.84,0,0,0-1.51-.09c-1.17,0-2.32.09-3.48.11-.67,0-1.33,0-2,0a1,1,0,0,0-1,.7,9.68,9.68,0,0,1-3.59,3.89,10.88,10.88,0,0,1-6.43,1.48,12.87,12.87,0,0,1-4.8-.53c-1.56-.62-3.07-1.22-3.93-2.85-1-1.89-2.14-3.68-3.12-5.57a5.39,5.39,0,0,1-.74-3.21,2,2,0,0,1,2.21-1.9,18.93,18.93,0,0,0,2-.09c2.28-.31,4.56.34,6.84-.15,1.19-.25,2.46-.07,3.67-.27a46.43,46.43,0,0,1,7.34-.63,15.54,15.54,0,0,0,5.17-.39,2.11,2.11,0,0,1,.83,0c1.33.18,2.66.38,4,.54C321.81,41.72,322.17,41.44,321.9,40.63ZM311.45,36.8a1.12,1.12,0,0,1-.93.13,6.7,6.7,0,0,0-3.58-.16,27.22,27.22,0,0,1-3.5.28c-3.75.11-7.5.17-11.26.24l-.66,0c-.65,0-1.08-.23-1.11-1,0-.45-.17-.88-.24-1.35l.27-1a12,12,0,0,1,4.63-6.61,8.85,8.85,0,0,1,5.68-1.7,10.07,10.07,0,0,0,2.33-.06,8.44,8.44,0,0,1,6.31,1.78,1.06,1.06,0,0,1,.34.36c.89,2.21,2.12,4.31,2.65,6.66A2.43,2.43,0,0,1,311.45,36.8Z"/><path d="M371.17,23.16c-.05-.67.06-1.35,0-2-.08-1-.31-2-.36-3-.09-1.77-.63-3.52-.4-5.31a3.6,3.6,0,0,0-.14-.83,23.69,23.69,0,0,1,.36-8.18c.16-.65.12-1.85-.13-2A17.85,17.85,0,0,0,367,1.57c-.09,0-.18.06-.27.09a5.24,5.24,0,0,1-1.85,0c-.53,0-1.09,0-1.63-.1-1.49-.2-3,.75-4.49,0a1.13,1.13,0,0,0-.41.56c-.11.84-.15,1.67-.2,2.51a37.45,37.45,0,0,0-.39,5.67,43.69,43.69,0,0,1-.51,9.7c-.05.38-.34.54-.54.23-.91-1.36-2.4-1.81-3.69-2.56a23.19,23.19,0,0,0-3.33-1.71A27.52,27.52,0,0,0,346,14.84a4.66,4.66,0,0,0-2.48.2c-1.45.52-2.83,1.26-4.27,1.89a14.46,14.46,0,0,0-7,5.76A9.73,9.73,0,0,1,331,24.27a11.65,11.65,0,0,0-2.58,5,46,46,0,0,0-1.78,12.62c0,.9,0,1.8,0,2.7A25,25,0,0,0,328,52.32c.38,1.07,1.35,1.94,1.31,3.21,0,.25.38.52.63.74A59.85,59.85,0,0,0,336.09,61a12.43,12.43,0,0,0,5.8,2,22.59,22.59,0,0,1,2.35.17,13.19,13.19,0,0,0,6.8-.36,15.22,15.22,0,0,0,5.55-3c.51-.41,1-1.18,1.69-.84.84.43.36,1.24.16,1.94-.34,1.13.33,1.86,1.49,1.76a4.79,4.79,0,0,0,.81-.2,16.14,16.14,0,0,1,7.49-.65,4.19,4.19,0,0,0,1.79-.18V56.5a.9.9,0,0,0,0-.16,7.84,7.84,0,0,1-.16-2c.05-1.67.12-3.38.19-5.07v0c0-.15,0-.29,0-.43,0-.61.06-1.24.09-1.85.11-1.46.27-2.89.32-4.35.11-3.09.15-6.18.2-9.25a2.28,2.28,0,0,1,0-.52A41.37,41.37,0,0,0,371.17,23.16Zm-1.59,11.47a33.53,33.53,0,0,1-.36,7,76.91,76.91,0,0,0-.76,9.84c0,1.16.25,2.33.36,3.5.13,1.56.23,3.1.32,4.67,0,.5-.32.82-.73.7-2.25-.61-4.42.18-6.65.23-.16,0-.32,0-.48,0-.43-.08-.74-.24-.67-.78.11-.88.2-1.77.29-2.67a10.38,10.38,0,0,0,0-1.67c0-.72-.45-1-1.21-1.12a1.27,1.27,0,0,0-1.49.81c-.57,2.37-2.6,3.4-4.25,4.76-2,1.64-4.51,1.87-6.88,2.32a8.47,8.47,0,0,1-3-.27c-1.72-.27-3.43-.54-5.12-.94a5.5,5.5,0,0,1-1.76-.95c-1.67-1.09-3.35-2.19-5-3.36a8.34,8.34,0,0,1-2.6-3.82,23,23,0,0,1-2.09-9.28c.07-2.79.49-5.57.69-8.37a28.28,28.28,0,0,1,1.27-6.39,6.14,6.14,0,0,1,.57-1.4,29.6,29.6,0,0,1,5-6.5,18.47,18.47,0,0,1,3.76-2.46A17.14,17.14,0,0,1,342.05,17a7.25,7.25,0,0,1,3-.73h.05A5.74,5.74,0,0,1,348,17a3.08,3.08,0,0,1,1.54.9,7.85,7.85,0,0,0,1.51,1c1.19.72,2.39,1.46,3.63,2.11a2.42,2.42,0,0,1,.93.79c.67.52,2.19,1.67,3.09,2.53.07-.09.09-1.58.15-2.05s.1-1.85.1-1.85c.16-2.66.31-5.33.47-8a4.06,4.06,0,0,0,0-1.35c-.64-2.42.06-4.77.24-7.16a1.11,1.11,0,0,1,1.27-1.19h4.19c1.13,0,2.24,0,3.37.07.59,0,1,.11.92.95a53.25,53.25,0,0,0-.13,10c-.59,2.1.52,4.06.52,6.12,0,1.28,0,2.55.09,3.83C370.19,27.39,369.27,31,369.58,34.63Z"/><path class="cls-1" d="M369.86,23.77c-.11-1.28-.09-2.55-.09-3.83,0-2.06-1.11-4-.52-6.12a53.25,53.25,0,0,1,.13-10c.05-.84-.33-.95-.92-.95-1.13,0-2.24-.06-3.37-.07H360.9A1.11,1.11,0,0,0,359.63,4c-.18,2.39-.88,4.74-.24,7.16a4.06,4.06,0,0,1,0,1.35c-.16,2.66-.31,5.33-.47,8,0,0,0,1.24-.1,1.85s-.08,2-.15,2.05c-.9-.86-2.42-2-3.09-2.53a2.42,2.42,0,0,0-.93-.79c-1.24-.65-2.44-1.39-3.63-2.11a7.85,7.85,0,0,1-1.51-1A3.08,3.08,0,0,0,348,17a5.74,5.74,0,0,0-2.91-.8h-.05a7.25,7.25,0,0,0-3,.73,17.14,17.14,0,0,0-3.16,1.55A18.47,18.47,0,0,0,335.13,21a29.6,29.6,0,0,0-5,6.5,6.14,6.14,0,0,0-.57,1.4,28.28,28.28,0,0,0-1.27,6.39c-.2,2.8-.62,5.58-.69,8.37a23,23,0,0,0,2.09,9.28,8.34,8.34,0,0,0,2.6,3.82c1.62,1.17,3.3,2.27,5,3.36A5.5,5.5,0,0,0,339,61c1.69.4,3.4.67,5.12.94a8.47,8.47,0,0,0,3,.27c2.37-.45,4.89-.68,6.88-2.32,1.65-1.36,3.68-2.39,4.25-4.76a1.27,1.27,0,0,1,1.49-.81c.76.08,1.17.4,1.21,1.12a10.38,10.38,0,0,1,0,1.67c-.09.9-.18,1.79-.29,2.67-.07.54.24.7.67.78.16,0,.32,0,.48,0,2.23-.05,4.4-.84,6.65-.23.41.12.77-.2.73-.7-.09-1.57-.19-3.11-.32-4.67-.11-1.17-.36-2.34-.36-3.5a76.91,76.91,0,0,1,.76-9.84,33.53,33.53,0,0,0,.36-7C369.27,31,370.19,27.39,369.86,23.77Zm-10.7,18.1a10,10,0,0,0-.38,2.65c.11,2.7-1.15,4.85-2.64,6.9a7.58,7.58,0,0,1-3.68,2.24,14.27,14.27,0,0,1-2.85,1c-1.69.28-3.45.55-4.85-.87-.09-.07-.14-.18-.23-.23a8.74,8.74,0,0,1-2.34-1.26,25.84,25.84,0,0,0-1.65-2,7.64,7.64,0,0,1-2.42-4.47c-.17-1-.45-1.92-.62-2.89-.19-1.38-.32-2.78-.5-4.16a4.43,4.43,0,0,0-.32-1.46,3.32,3.32,0,0,1,0-2.44c.16-.59.43-1.15.59-1.74a5.45,5.45,0,0,1,1.64-2.86c.68-.55.82-1.45,1.63-2,2.44-1.73,5.19-2.19,8-2.55a9.22,9.22,0,0,1,7.87,2.8,13.28,13.28,0,0,1,3.46,5.87,12.76,12.76,0,0,1,.22,2A38.79,38.79,0,0,1,359.16,41.87Z"/><path d="M242.16,19.44c-.24-1.11-.43-1.22-1.49-.93a3.67,3.67,0,0,1-2.61-.09,3.77,3.77,0,0,0-1.78-.18c-1,.05-1.36-.18-1.56-1.06a4,4,0,0,1,2.52-4.37l.39-.12,2.52-.76a1,1,0,0,0,.17-.18,2.87,2.87,0,0,0,1.21-1.7,2.73,2.73,0,0,0,.09-.76c-.16-2.58-.31-4.66-.43-7.23,0-.68-.27-1.08-1-1-1.35.09-2.69.17-4,.27s-2.46.24-3.68.38a13.62,13.62,0,0,0-2.8.43,21,21,0,0,0-4.15,1.8c-1.92,1.18-3.4,2.74-3.18,5.33a34.62,34.62,0,0,1,0,4.2c0,1.19-.11,2.35-.2,3.54A1,1,0,0,1,221,18.11c-1.14,0-2.25,0-3.36.07a10.66,10.66,0,0,0-1.51.09c-.81.16-1.11.51-1,1.28a16.52,16.52,0,0,1,.18,6c-.14.78.27,1.15,1,1.21,1.51.11,3,.2,4.53.34,1.06.09,1.25.3,1.18,1.35a17.83,17.83,0,0,0-.28,2.15c.14,4.44-.17,8.87.39,13.29a8.55,8.55,0,0,1,0,1.34c-.09,1.78-.19,3.56-.25,5.36a22.6,22.6,0,0,1-.07,4.2c-.52,2.46-.22,4.9-.25,7.34a1.07,1.07,0,0,0,.07.41l4.94-.07h.11a18.66,18.66,0,0,1,3.66-.06l2.67,0a1.58,1.58,0,0,0,1.06-1.55c0-1.11-.18-2.24-.28-3.35a16.41,16.41,0,0,1-.34-2.48c.05-2.3.21-4.6.3-6.9.07-1.67,0-3.36.11-5,.18-3.13.41-6.27.59-9.41.07-1.57.09-3.15.09-4.73a1.19,1.19,0,0,1,1.11-1.38c.83-.12,1.66-.23,2.5-.3,1.17-.11,2.35-.11,3.52-.27a2.83,2.83,0,0,0,.61-.16v-6.5C242.25,20,242.21,19.71,242.16,19.44Zm-1,4.76c0,.55-.16.77-.75.84-1.22.13-2.43.45-3.65.58a6.31,6.31,0,0,1-2-.25c-.85-.2-1.42.05-1.53.89-.11,1-.14,2-.18,3-.09,2.33-.16,4.69-.27,7-.07,1.62-.2,3.23-.25,4.87-.11,3.35-.11,6.73-.32,10.09-.17,2.42-.52,4.81.19,7.18a2.74,2.74,0,0,1,.09,1.17c0,1-.18,1.09-1.22,1.15-2.12.12-4.25-.34-6.35.28a1.1,1.1,0,0,1-.51,0c-.93,0-1.18-.23-1.27-1.2a18.37,18.37,0,0,1,0-2.35c.06-2,.16-4,.24-6.05,0-1.06,0-2.12,0-3.2,0-1.56.18-3.12.2-4.69,0-.95-.2-1.9-.2-2.85,0-3.2,0-6.37,0-9.57a11.87,11.87,0,0,1,.55-4.62c.36-1,0-1.22-1.07-1.22-1.74,0-3.47-.1-5.21-.19-.2,0-.56-.29-.57-.45,0-1.4,0-2.8,0-4.21,0-.39.25-.57.65-.59,1.13-.05,2.24-.16,3.36-.18,1.59,0,2.33-.57,2.47-2.1.16-1.78.24-3.55.34-5.35h0c0-1.29.07-2.58,0-3.88a2.74,2.74,0,0,1,1.65-2.69c.82-.47,1.69-.88,2.53-1.33a8.34,8.34,0,0,1,4.18-1.1A17.85,17.85,0,0,0,235.08,3c.74-.09,1.46-.23,2.17-.27a1.86,1.86,0,0,1,1.1.27,4,4,0,0,1,1.83,3.24c0,1.31.59,2.64-.18,4a6.21,6.21,0,0,0-1.9.66c-.06,0-.11,0-.16.09-.74.36-1.44.84-2.19,1.19a4.21,4.21,0,0,0-2.37,3.44,21.88,21.88,0,0,1-.54,3.65c-.27.7.19,1.15,1,1.17.38,0,.81-.2,1.15-.11a13.56,13.56,0,0,0,5,.39c.76-.09,1.08.25,1.13.88C241.19,22.42,241.13,23.3,241.15,24.2Z"/><path class="cls-1" d="M241.15,24.2c0,.55-.16.77-.75.84-1.22.13-2.43.45-3.65.58a6.31,6.31,0,0,1-2-.25c-.85-.2-1.42.05-1.53.89-.11,1-.14,2-.18,3-.09,2.33-.16,4.69-.27,7-.07,1.62-.2,3.23-.25,4.87-.11,3.35-.11,6.73-.32,10.09-.17,2.42-.52,4.81.19,7.18a2.74,2.74,0,0,1,.09,1.17c0,1-.18,1.09-1.22,1.15-2.12.12-4.25-.34-6.35.28a1.1,1.1,0,0,1-.51,0c-.93,0-1.18-.23-1.27-1.2a18.37,18.37,0,0,1,0-2.35c.06-2,.16-4,.24-6.05,0-1.06,0-2.12,0-3.2,0-1.56.18-3.12.2-4.69,0-.95-.2-1.9-.2-2.85,0-3.2,0-6.37,0-9.57a11.87,11.87,0,0,1,.55-4.62c.36-1,0-1.22-1.07-1.22-1.74,0-3.47-.1-5.21-.19-.2,0-.56-.29-.57-.45,0-1.4,0-2.8,0-4.21,0-.39.25-.57.65-.59,1.13-.05,2.24-.16,3.36-.18,1.59,0,2.33-.57,2.47-2.1.16-1.78.24-3.55.34-5.35h0c0-1.29.07-2.58,0-3.88a2.74,2.74,0,0,1,1.65-2.69c.82-.47,1.69-.88,2.53-1.33a8.34,8.34,0,0,1,4.18-1.1A17.85,17.85,0,0,0,235.08,3c.74-.09,1.46-.23,2.17-.27a1.86,1.86,0,0,1,1.1.27,4,4,0,0,1,1.83,3.24c0,1.31.59,2.64-.18,4a6.21,6.21,0,0,0-1.9.66c-.06,0-.11,0-.16.09-.74.36-1.44.84-2.19,1.19a4.21,4.21,0,0,0-2.37,3.44,21.88,21.88,0,0,1-.54,3.65c-.27.7.19,1.15,1,1.17.38,0,.81-.2,1.15-.11a13.56,13.56,0,0,0,5,.39c.76-.09,1.08.25,1.13.88C241.19,22.42,241.13,23.3,241.15,24.2Z"/><path d="M275.05,16.82c-.18-.92-.66-1.17-1.61-1a28,28,0,0,0-3.4.93c-.88.31-1.67,1-2.57,1.19-1.86.43-3,1.81-4.41,2.92a6.61,6.61,0,0,1-.77.63c-.44.24-.81.15-.85-.39-.05-.79,0-1.58-.05-2.37,0-.94-.33-1.13-1.3-1a34.4,34.4,0,0,1-8,.2c-.37,0-.77-.27-1.15-.2a6.19,6.19,0,0,0-2.35.66c-.34.22-.34,1.1-.36,1.69-.05,2-.1,4-.09,6.05a14.08,14.08,0,0,0,.34,3.18,11,11,0,0,1,.08,5,13,13,0,0,0-.13,1.65c0,1.06,0,2.12,0,3.2a10.87,10.87,0,0,0,0,1.51c.29,1.7.61,3.41.91,5.1a5.66,5.66,0,0,1,.06.82l-.06,6.2h-.21c0,2-.07,4,0,6.07a25.27,25.27,0,0,0,.34,3,.37.37,0,0,0,0,.14l10.65-.2a2.64,2.64,0,0,0,.36-.2l.12-3.53v0a10,10,0,0,1-.14-2.33c0-2.12.3-4.26.41-6.38a32.14,32.14,0,0,0,0-3.54,21.53,21.53,0,0,1,.13-6.21c.52-2.12,1.2-4.2,1.74-6.32a4.84,4.84,0,0,1,2.46-3.05,12.15,12.15,0,0,1,2.25-1.13,9.14,9.14,0,0,1,6.23-.13,1.09,1.09,0,0,0,.34.07l.75-4.07c.2-1.67.4-3.34.49-5A13.55,13.55,0,0,0,275.05,16.82Zm-1.79,7.92c0,.45-.15.88-.22,1.33-.14.86-.2.95-1.08.71a5.35,5.35,0,0,0-3.12.24,15.42,15.42,0,0,0-4,1.63c-.31.22-.63.45-.95.65-2,1.24-2.55,3.36-3.13,5.37a65.52,65.52,0,0,0-1.34,6.55,4.2,4.2,0,0,0-.09,1.65c.63,3.36.14,6.72,0,10.08a40.24,40.24,0,0,0,.09,6.21c.15,1.09.08,1.15-1,1.18s-2.12,0-3.16.06-2.21.2-3.29.38c-.66.1-.79-.2-.75-.74,0-.06,0-.13,0-.16.72-1.73.07-3.45-.13-5.14a38.08,38.08,0,0,1,.11-5.85,17.11,17.11,0,0,0-.64-6.77,12,12,0,0,1-.45-4.31c0-1.73.25-3.47.28-5.21a22.37,22.37,0,0,0-.21-3.16c-.11-1.17-.32-2.33-.38-3.5-.09-1.51-.07-3-.11-4.54,0-.4,0-.78,0-1.17a.69.69,0,0,1,.77-.7c.38,0,.81-.25,1.14-.14,1.77.53,3.55,0,5.33.07.38,0,.77,0,1.17,0,1.76,0,1.76,0,1.76,2.48-.11.71-.33,2.08-.54,3.46-.09.54-.33,1.17.37,1.49.36.16,1.4-.56,1.53-1.09a3.52,3.52,0,0,1,.86-2.14,28.75,28.75,0,0,1,3.68-3.16,29,29,0,0,1,4.26-2,17.63,17.63,0,0,1,2-.82c1.22-.36,1.92-.33,1.85,1.18C273.76,20.84,273.47,22.8,273.26,24.74Z"/><path class="cls-1" d="M273.85,18.88c-.09,2-.38,3.92-.59,5.86,0,.45-.15.88-.22,1.33-.14.86-.2.95-1.08.71a5.35,5.35,0,0,0-3.12.24,15.42,15.42,0,0,0-4,1.63c-.31.22-.63.45-.95.65-2,1.24-2.55,3.36-3.13,5.37a65.52,65.52,0,0,0-1.34,6.55,4.2,4.2,0,0,0-.09,1.65c.63,3.36.14,6.72,0,10.08a40.24,40.24,0,0,0,.09,6.21c.15,1.09.08,1.15-1,1.18s-2.12,0-3.16.06-2.21.2-3.29.38c-.66.1-.79-.2-.75-.74,0-.06,0-.13,0-.16.72-1.73.07-3.45-.13-5.14a38.08,38.08,0,0,1,.11-5.85,17.11,17.11,0,0,0-.64-6.77,12,12,0,0,1-.45-4.31c0-1.73.25-3.47.28-5.21a22.37,22.37,0,0,0-.21-3.16c-.11-1.17-.32-2.33-.38-3.5-.09-1.51-.07-3-.11-4.54,0-.4,0-.78,0-1.17a.69.69,0,0,1,.77-.7c.38,0,.81-.25,1.14-.14,1.77.53,3.55,0,5.33.07.38,0,.77,0,1.17,0,1.76,0,1.76,0,1.76,2.48-.11.71-.33,2.08-.54,3.46-.09.54-.33,1.17.37,1.49.36.16,1.4-.56,1.53-1.09a3.52,3.52,0,0,1,.86-2.14,28.75,28.75,0,0,1,3.68-3.16,29,29,0,0,1,4.26-2,17.63,17.63,0,0,1,2-.82C273.22,17.34,273.92,17.37,273.85,18.88Z"/><path d="M406.85,16.75a1.24,1.24,0,0,0-1.78-1.12c-2.47.81-5.09,1.3-7.38,2.61-1.32.75-2.83,1.38-3.48,3a2.89,2.89,0,0,1-.91,1c-.26.18-.6.13-.6-.28a6.37,6.37,0,0,1,.16-1.15c.17-1.06.4-2.1-.43-3a1.08,1.08,0,0,1-.1-.63c0-.75-.4-.81-1-.72a10.11,10.11,0,0,1-2.66.27,18.64,18.64,0,0,0-5.87.15,6.82,6.82,0,0,0-1.71.55l-.3,2.3a3.06,3.06,0,0,1,.09,1c0,1.35-.07,2.7-.09,4-.06,2.57.54,5.14.16,7.73a2.49,2.49,0,0,0,0,.66h.09c-.15,2.46-.31,4.9-.45,7.36-.09,1.85-.31,3.7-.24,5.55a79.84,79.84,0,0,1,0,9.41c-.14,1.72-.32,3.45-.43,5.19-.09,1.13.25,1.4,1.33,1.24a4.34,4.34,0,0,1,1-.11c3.12.09,5.76-.07,9,.11.63,0,.86-.54.94-1s.07-.9.07-1.2c0-1.91-.06-3.81,0-5.73.11-3,.36-6.05.41-9.09A42.54,42.54,0,0,1,394,35.58a10.37,10.37,0,0,0,.33-2.13,2.84,2.84,0,0,1,.91-2.09,10.62,10.62,0,0,1,9.52-3.18c1.62.24,2-.05,2-1.74a4.53,4.53,0,0,1,0-1.33A22.59,22.59,0,0,0,406.85,16.75Zm-1.38,9.05c-.11.73-.56.8-1.2.8a14.49,14.49,0,0,0-7.38,1.85,14.75,14.75,0,0,0-3.5,3.09,10.12,10.12,0,0,0-2,4.33,4.7,4.7,0,0,0-.12,1c0,1.67,0,3.34,0,5h.2c-.16,4.14-.27,8.29-.52,12.42a45.43,45.43,0,0,1-.75,5.34.91.91,0,0,1-.67.53c-2,.08-4,.15-6,.11-1.67,0-1.93-.37-1.87-2.06.12-3.25.27-6.5.32-9.75,0-2.23-.09-4.47-.07-6.7a29.45,29.45,0,0,1,.25-3.52,49.23,49.23,0,0,0,.16-10.58,55.59,55.59,0,0,1,0-8.56.81.81,0,0,1,.83-.86,19.85,19.85,0,0,1,4.81-.24c.59.09,1.22-.05,1.81,0,1.1,0,1.48.27,1.69,1.28.4,1.81.31,3.57-1.16,5-.74.72-.71,1.05.14,1.94.47.51,1,.51,1.54-.18.81-.91,1.51-1.94,2.27-2.91a16.41,16.41,0,0,1,4.39-3.8,16.77,16.77,0,0,1,5.64-1.92c.76-.15,1.1.12,1.21.77A24.07,24.07,0,0,1,405.47,25.8Z"/><path class="cls-1" d="M405.47,25.8c-.11.73-.56.8-1.2.8a14.49,14.49,0,0,0-7.38,1.85,14.75,14.75,0,0,0-3.5,3.09,10.12,10.12,0,0,0-2,4.33,4.7,4.7,0,0,0-.12,1c0,1.67,0,3.34,0,5h.2c-.16,4.14-.27,8.29-.52,12.42a45.43,45.43,0,0,1-.75,5.34.91.91,0,0,1-.67.53c-2,.08-4,.15-6,.11-1.67,0-1.93-.37-1.87-2.06.12-3.25.27-6.5.32-9.75,0-2.23-.09-4.47-.07-6.7a29.45,29.45,0,0,1,.25-3.52,49.23,49.23,0,0,0,.16-10.58,55.59,55.59,0,0,1,0-8.56.81.81,0,0,1,.83-.86,19.85,19.85,0,0,1,4.81-.24c.59.09,1.22-.05,1.81,0,1.1,0,1.48.27,1.69,1.28.4,1.81.31,3.57-1.16,5-.74.72-.71,1.05.14,1.94.47.51,1,.51,1.54-.18.81-.91,1.51-1.94,2.27-2.91a16.41,16.41,0,0,1,4.39-3.8,16.77,16.77,0,0,1,5.64-1.92c.76-.15,1.1.12,1.21.77A24.07,24.07,0,0,1,405.47,25.8Z"/><path d="M425.83,55.33c0-3.93.11-7.84.09-11.78,0-4.93-.16-9.87-.23-14.81-.05-3.36-.05-6.71-.07-10.07h.18a4.14,4.14,0,0,0,0-1.17c-.11-.32-.41-.77-.67-.81-1.67-.21-3.35-.41-5-.46-1.39,0-2.79.16-4.17.19-1.76.06-2.67.86-2.71,2.61,0,1.24.12,2.46.12,3.7,0,4.3,0,8.61,0,12.94a33.36,33.36,0,0,0,.07,4.69,37.38,37.38,0,0,1,.47,7.83c-.31,4-.7,8-1,12.05,0,.55,3.16.43,4,.46,2.51.15,5,.29,7.52.49,1.15.09,1.19.16,1.51-.86a4,4,0,0,0,.18-1.46C426,57.69,425.83,56.52,425.83,55.33Zm-1.13,2.84c-.11,1.38-.36,1.67-1.65,1.42a33.75,33.75,0,0,0-6-.25c-2.53-.06-2.53,0-2.44-2.71.34-2.8.18-5.84.67-8.82a12.59,12.59,0,0,0-.08-3c-.12-2.12-.37-4.24-.43-6.35-.09-3.47-.05-6.94-.09-10.4,0-2.52-.05-5,0-7.56,0-1.76.5-2.32,2.24-2.52a25.88,25.88,0,0,1,3.18-.07c.93,0,1.89.13,2.84.22s1.16.32,1.18,1.26a89.62,89.62,0,0,1,.22,9.57,12.09,12.09,0,0,0,0,2.17,113.32,113.32,0,0,1,.2,13.29c-.07,2.4,0,4.81.09,7.22,0,1.9.11,3.78.16,5.69C424.72,57.61,424.72,57.9,424.7,58.17Z"/><path class="cls-1" d="M424.72,57.33c0,.28,0,.57,0,.84-.11,1.38-.36,1.67-1.65,1.42a33.75,33.75,0,0,0-6-.25c-2.53-.06-2.53,0-2.44-2.71.34-2.8.18-5.84.67-8.82a12.59,12.59,0,0,0-.08-3c-.12-2.12-.37-4.24-.43-6.35-.09-3.47-.05-6.94-.09-10.4,0-2.52-.05-5,0-7.56,0-1.76.5-2.32,2.24-2.52a25.88,25.88,0,0,1,3.18-.07c.93,0,1.89.13,2.84.22s1.16.32,1.18,1.26a89.62,89.62,0,0,1,.22,9.57,12.09,12.09,0,0,0,0,2.17,113.32,113.32,0,0,1,.2,13.29c-.07,2.4,0,4.81.09,7.22C424.59,53.54,424.67,55.42,424.72,57.33Z"/><path d="M425.46,10.26c-.2-1.56-.49-3.1-.56-4.67,0-1.38-.13-2.53-.16-3.93,0-1,0-1.42-1.19-1.47-.48,0-.95,0-1.43,0-2.59-.38-5.14.12-7.69.34a1.41,1.41,0,0,0-1.29,1.15,6.24,6.24,0,0,0-.22,1.65c0,.79.06,1.56.09,2.35.07,1.83.16,3.68.25,5.51a.8.8,0,0,0,.81.88c1.38.13,2.69.22,4.08.36.25,0,1.09,0,1.6,0a13.07,13.07,0,0,0,4.81-.59C425.38,11.48,425.58,11.13,425.46,10.26Zm-3,.36a14.74,14.74,0,0,1-5.46-.07,6.56,6.56,0,0,0-1-.14c-1.22-.11-1.24-.09-1.27-1.31,0-.9,0-1.8,0-2.7h0c0-.88-.13-1.77-.11-2.67,0-1.62.54-2,2.16-2,1,0,1.95-.16,2.94-.16a29,29,0,0,1,3,.25c.2,0,.36.33.54.5a.44.44,0,0,1,0,.17c-.27,2.24.54,4.4.49,6.64C423.66,10.39,423.71,10.44,422.44,10.62Z"/><path class="cls-1" d="M423.7,9.15c0,1.24,0,1.29-1.26,1.47a14.74,14.74,0,0,1-5.46-.07,6.56,6.56,0,0,0-1-.14c-1.22-.11-1.24-.09-1.27-1.31,0-.9,0-1.8,0-2.7h0c0-.88-.13-1.77-.11-2.67,0-1.62.54-2,2.16-2,1,0,1.95-.16,2.94-.16a29,29,0,0,1,3,.25c.2,0,.36.33.54.5a.44.44,0,0,1,0,.17C422.94,4.75,423.75,6.91,423.7,9.15Z"/><path d="M312.38,34.43c-.53-2.35-1.76-4.45-2.65-6.66a1.06,1.06,0,0,0-.34-.36,8.44,8.44,0,0,0-6.31-1.78,10.07,10.07,0,0,1-2.33.06,8.85,8.85,0,0,0-5.68,1.7A12,12,0,0,0,290.44,34l-.27,1c.07.47.2.9.24,1.35,0,.72.46,1,1.11,1l.66,0c3.76-.07,7.51-.13,11.26-.24a27.22,27.22,0,0,0,3.5-.28,6.7,6.7,0,0,1,3.58.16,1.12,1.12,0,0,0,.93-.13A2.43,2.43,0,0,0,312.38,34.43Zm-2.83.36c-2,.27-4,.61-6,.79-1.23.11-2.45-.07-3.67,0-1.9.06-3.8.18-5.69.31-2.51.16-2.87-.29-1.83-2.57a12,12,0,0,1,2-3.28,7.4,7.4,0,0,1,5.1-2.59c1.12-.05,2.23-.16,3.34-.23v.07a15.86,15.86,0,0,1,2.18,0,4.17,4.17,0,0,1,3.26,2.12,46.8,46.8,0,0,1,2,4.38C310.59,34.61,310.52,34.65,309.55,34.79Z"/><path d="M359.86,34.29a13.28,13.28,0,0,0-3.46-5.87,9.22,9.22,0,0,0-7.87-2.8c-2.82.36-5.57.82-8,2.55-.81.59-.95,1.49-1.63,2a5.45,5.45,0,0,0-1.64,2.86c-.16.59-.43,1.15-.59,1.74a3.32,3.32,0,0,0,0,2.44,4.43,4.43,0,0,1,.32,1.46c.18,1.38.31,2.78.5,4.16.17,1,.45,1.91.62,2.89a7.64,7.64,0,0,0,2.42,4.47,25.84,25.84,0,0,1,1.65,2,8.74,8.74,0,0,0,2.34,1.26c.09,0,.14.16.23.23,1.4,1.42,3.16,1.15,4.85.87a14.27,14.27,0,0,0,2.85-1,7.58,7.58,0,0,0,3.68-2.24c1.49-2.05,2.75-4.2,2.64-6.9a10,10,0,0,1,.38-2.65,38.79,38.79,0,0,0,.92-5.59A12.76,12.76,0,0,0,359.86,34.29Zm-1.94,6.48c-.07.5-.12,1-.2,1.51-.12.83-.23,1.65-.37,2.48a2.5,2.5,0,0,0-.16.64c.17,2.2-1.24,3.72-2.3,5.37a1.75,1.75,0,0,1-.6.58,22.47,22.47,0,0,1-5.67,1.87,4.2,4.2,0,0,1-3-.76c-1.22-.79-2.4-1.65-3.59-2.51A5.81,5.81,0,0,1,339.66,46a6.22,6.22,0,0,0-.27-1.15,17.78,17.78,0,0,1-.92-5.63,18.62,18.62,0,0,1,1.26-8,5.94,5.94,0,0,1,3.95-3.43,31.29,31.29,0,0,1,3.95-.88c3.45-.58,6.23.74,8.57,3.16a3.93,3.93,0,0,1,.55.84,17.85,17.85,0,0,1,1.33,2.89,10.63,10.63,0,0,1,.38,3.33A31.94,31.94,0,0,1,357.92,40.77Z"/><line class="cls-3" x1="323.33" y1="44.06" x2="323.77" y2="38.22"/></g></g></svg>