<svg xmlns="http://www.w3.org/2000/svg" viewBox="0 0 302.32 188.69"><defs><style>.cls-1{fill:#006278;}.cls-2{fill:none;}</style></defs><g id="Lager_2" data-name="Lager 2"><g id="Lager_1-2" data-name="Lager 1"><path class="cls-1" d="M222.05,50a.65.65,0,0,1-.19,0c-1.14.21-2.28.45-3.45.62-1.78.29-3.59.46-5.37.79-3.26.56-6.48,1.23-9.76,1.81-9.47,1.68-15.5,2.59-22.87,3.82l-3.36.52-1.81.29a9.58,9.58,0,0,0,.37,1,3.78,3.78,0,0,1,.17.35,1.48,1.48,0,0,0,.19.35,1.55,1.55,0,0,0,.14.29,8.8,8.8,0,0,0,.75,1.23c.66-.17,1.35-.33,2-.48,1-.25,2.08-.5,3.12-.73,1.7-.37,3.43-.68,5.17-.95,3.12-.5,6.25-.87,9.39-1.41,4.27-.73,8.53-1.6,12.81-2.33,3.92-.69,7.85-1.31,11.8-1.93.64-.11,1.3-.23,2-.33.08-.34.14-.65.19-1a3,3,0,0,0,.06-.42c0-.22,0-.45,0-.66,0-.39.06-.79.08-1.16C223,49.78,222.55,49.88,222.05,50Zm-.31,1.51a.2.2,0,0,1,0,.13,5.76,5.76,0,0,1-.19.68c-2.49.44-5,.9-7.6,1.23-2.12.27-4.18.64-6.27,1-1.46.25-2.87.52-4.32.77-2.91.48-5.84.92-8.75,1.39-4.69.77-9.32,1.62-14.08,2.25l-.72.12-1.75.4a1.09,1.09,0,0,0-.06-.11l-.31-.52-.13-.25.4-.08c3.2-.56,6.4-1.14,9.61-1.68,3.53-.58,7.11-1.12,10.62-1.7,4.32-.71,8.57-1.46,12.87-2.16,3.59-.61,7.21-1.19,10.8-1.79A1.59,1.59,0,0,1,221.74,51.46Zm-.9,3.41a4.68,4.68,0,0,1-.54.08c-3.09.48-6.18.85-9.28,1.35-10.2,1.66-20.37,3.37-30.57,5.05-.27,0-.54.1-.81.12l-2.24.38c.33.41.69.81,1,1.2l2.43-.44,1.43-.25c2.1-.35,4.22-.54,6.31-.89s4.34-.83,6.52-1.16c2.68-.44,5.4-.73,8.08-1.16,4.55-.75,9.06-1.62,13.61-2.35l2.57-.4,2.28-.31a16.34,16.34,0,0,0,.81-1.55C221.94,54.66,221.4,54.79,220.84,54.87Zm1.85-9.06a3.58,3.58,0,0,1-.54.09c-3.28.52-6.56,1-9.82,1.6-2.12.37-4.24.47-6.33,1a58.68,58.68,0,0,1-7.27,1.23,37.47,37.47,0,0,0-5.38.75,81.28,81.28,0,0,1-10.88,2,32.71,32.71,0,0,0-6.69,1.73c-.54.2-1.08.43-1.6.68a12.16,12.16,0,0,1,.6,1.41c.5-.27,1-.54,1.52-.77.35-.14.71-.29,1.08-.41a62.73,62.73,0,0,1,7.39-1.64c2.29-.46,4.59-.75,6.88-1.1.83-.13,1.64-.17,2.47-.31l9.2-1.58c2.36-.4,4.73-.75,7.08-1.19,1.41-.29,2.76-.85,4.15-1.05,2.54-.4,5.07-.75,7.6-1.08.52-.09,1-.15,1.56-.23,0-.46.08-.9.1-1.35ZM178,59.31l-.31-.52c-.62.13-1.25.27-1.87.42a1.48,1.48,0,0,0,.19.35,1.55,1.55,0,0,0,.14.29l1.91-.43A1.09,1.09,0,0,0,178,59.31Zm43.78-7.85a.2.2,0,0,1,0,.13s.1,0,.14,0l.19-.08Z"/><path class="cls-1" d="M223.88,33.6l-1.23.19a1.45,1.45,0,0,1-.29,0c-5.61.89-11.21,1.89-16.82,2.89-1.6.29-3.16.7-4.76,1-6.77,1.21-13.56,2.35-20.33,3.6-2.53.45-5,1-7.54,1.58l-1.68.39c0-.29.06-.6.11-.91s.08-.5.1-.75l1.6-.31c3.67-.73,7.37-1.35,11.05-2.06s7.12-1.45,10.67-2.14c1.08-.21,2.22-.21,3.28-.41,4.13-.81,8.25-1.68,12.38-2.49,1.66-.32,3.32-.5,5-.75a2.71,2.71,0,0,0,.4,0,19.25,19.25,0,0,1,6.14-1.25c.48,0,1-.1,1.46-.17h0c.17.5.31,1,.44,1.5A.18.18,0,0,0,223.88,33.6Z"/><path class="cls-1" d="M220,25c-.6.15-1.2.27-1.78.4-1.06.25-2.12.46-3.2.66-2.72.56-5.46,1-8.2,1.56-1.08.21-2.16.46-3.26.64-5.92,1.08-11.86,2.18-17.8,3.24-3.2.59-6.4,1.08-9.57,1.71a15.71,15.71,0,0,0-2.21.6c-.51.14-1,.31-1.53.48l-.27.12c.08-.56.16-1.08.29-1.62.54-.19,1.08-.35,1.62-.52a1,1,0,0,1,.25-.08c.58-.17,2.21-.6,2.76-.67a26.85,26.85,0,0,0,2.95-.43c2.24-.42,4.48-.81,6.71-1.23s4.42-1,6.64-1.22c3.57-.33,7-1.58,10.45-2.14,2-.35,4.11-.77,6.16-1a32.53,32.53,0,0,0,5.51-1.16c.45-.12.91-.23,1.37-.31h0a19.51,19.51,0,0,1,2-.33A14.39,14.39,0,0,1,220,25Z"/><path class="cls-1" d="M222.53,29.76c-.52,0-1,.11-1.54.17a36.41,36.41,0,0,0-5.17,1,26.49,26.49,0,0,1-4.59.76,63.8,63.8,0,0,0-9.55,1.67c-.77.18-1.56.14-2.33.27-3.76.62-7.52,1.22-11.28,2-4.75.93-9.49,2-14.22,3a5.73,5.73,0,0,0-.56.14,8.36,8.36,0,0,0-1.6.54c0-.45.06-.91.1-1.37a1.1,1.1,0,0,0,0-.25,11.34,11.34,0,0,1,1.67-.58,10,10,0,0,1,1.14-.25c4.17-.68,8.35-1.39,12.5-2.18,4.63-.87,9.26-1.87,13.91-2.72,4.28-.77,8.58-1.41,12.86-2.12,2.16-.35,4.3-.74,6.46-1.12h.06l1.45-.27C222.09,28.87,222.32,29.3,222.53,29.76Z"/><path class="cls-1" d="M206.33,15.41a17.56,17.56,0,0,1-2.41.23,21.63,21.63,0,0,0-3.43.6l-1.51.33h0c-2.6.57-5.18,1.13-7.77,1.67-1.93.41-3.88.78-5.84,1.2h0l-1.53.33c-1,.21-2,.42-2.93.65a18.56,18.56,0,0,1,2.93-2.16l.27-.13c.54-.1,1.1-.21,1.64-.33,4.23-1,8.45-2,12.69-2.91.74,0,1.49,0,2.24,0,1.56.07,3.13.11,4.67.32C205.66,15.29,206,15.35,206.33,15.41Z"/><path class="cls-1" d="M216.42,21.37c-.64.15-1.31.27-1.95.4l-.83.12c-6.48,1-12.92,2.2-19.38,3.36a8.13,8.13,0,0,0-2.39.75,22.22,22.22,0,0,1-8.16,2.43,44.72,44.72,0,0,0-8.89,2.16v0c-.68.23-1.34.5-2,.79.19-.62.4-1.24.64-1.85v0c.71-.25,1.42-.5,2.14-.68a2.72,2.72,0,0,1,.38-.11c3.84-.95,7.74-1.66,11.61-2.53a15.86,15.86,0,0,0,3.3-1.12,34.17,34.17,0,0,1,4.77-1.58c3.87-1.2,7.94-1.2,11.82-2.3,1-.27,2.1-.13,3.09-.32.81-.14,1.58-.33,2.39-.54.65-.14,1.31-.31,2-.41h0c.18.16.35.35.54.54S216.11,21.1,216.42,21.37Z"/><path class="cls-1" d="M224.29,36.74c0,.48,0,.95,0,1.43-.58.11-1.14.19-1.72.29-4.57.77-9.18,1.54-13.75,2.35-4.34.75-8.66,1.58-13,2.32-3.55.61-7.17,1.08-10.74,1.71-3.24.58-6.48,1.29-9.72,1.95-.83.19-1.66.31-2.51.46-.54.08-1.06.18-1.6.29,0-.46-.1-1-.1-1.44.25-.06.5-.1.77-.14s.56-.08.83-.1c6-.84,12-1.87,18-3.1,2.54-.52,5.13-.73,7.69-1.16,2.15-.4,4.27-1,6.45-1.35,3.12-.54,6.28-1,9.41-1.48a11.59,11.59,0,0,0,3-.64,17.06,17.06,0,0,1,5.38-1.2C223.21,36.88,223.75,36.82,224.29,36.74Z"/><path class="cls-1" d="M224.08,41.25c0,.51-.1,1-.14,1.57-.56.11-1.14.21-1.73.29-.29.07-.6.11-.89.15-2.51.33-5,.56-7.52.93s-5,1-7.62,1.19a46,46,0,0,0-4.71.91c-3.05.54-6.13,1-9.18,1.52s-6.35,1.2-9.53,1.76c-.9.17-1.83.15-2.72.31-1.91.36-3.8.77-5.71,1.17l-.27,0a3.82,3.82,0,0,1-1.06.08c-.19,0-.42-.33-.48-.54a.87.87,0,0,1,.25-.66c.21-.13.41-.21.62-.32a2.56,2.56,0,0,1,.63-.2,36.47,36.47,0,0,1,3.84-.71c4.79-.43,9.49-1.43,14.22-2.24,2.95-.5,5.9-.89,8.85-1.39,1.47-.25,2.91-.65,4.38-.92,2.12-.35,4.2-.81,6.33-1a62.31,62.31,0,0,0,8.81-1.48c.62-.12,1.25-.23,1.87-.29Z"/><path class="cls-1" d="M212.47,17.94a.18.18,0,0,1-.12,0c-.91.18-1.83.33-2.74.49h0c-2.64.48-5.3,1-7.93,1.5-5.72,1.16-11.43,2.39-17.12,3.59-2,.42-4,.81-6.06,1.23l-2.89.6a14.61,14.61,0,0,1,1.12-1.5l.07-.06c1.14-.25,2.26-.48,3.4-.7,2.35-.48,4.68-.94,7-1.4,3-.6,6.11-1.16,9.16-1.74,3.82-.75,7.66-1.5,11.5-2.22l.34-.08c1-.19,2-.34,3-.5C211.64,17.41,212.06,17.68,212.47,17.94Z"/><path class="cls-1" d="M220.59,58.07c-.22.41-.47.83-.74,1.24v0l-2.52.42L203.21,62.2c-2.55.43-5.11.81-7.68,1.24-3.49.59-7,1.15-10.47,1.79-.89.15-1.78.31-2.7.5l-.37.06a.74.74,0,0,1-.15-.08c-.56-.35-1.1-.73-1.62-1.1,1-.17,2-.31,2.93-.46l9.72-1.52c3-.47,6-1.07,9-1.55,3.53-.58,7.06-1.08,10.57-1.64,1.89-.31,3.78-.63,5.65-1C218.93,58.34,219.78,58.19,220.59,58.07Z"/><path class="cls-1" d="M218.27,61.72c-.27.4-.56.77-.85,1.14h0c-.92.13-1.83.27-2.72.42-4.34.68-8.68,1.56-13,2.32-3.49.63-7,1.23-10.45,1.89h0c-1.5.27-3,.56-4.46.86l-.46.1c-.17-.08-.33-.19-.5-.29-.37-.21-.75-.44-1.12-.67l3-.51q6.07-1.1,12.13-2.12c4.54-.79,9.09-1.48,13.64-2.25l2.2-.39Z"/><path class="cls-1" d="M214.26,66.64l-.28.29A5.49,5.49,0,0,1,212.46,68c-3.77.52-7.55,1.06-11.32,1.57-2.56.35-5.14.59-7.69,1-.32,0-.65.1-1,.18a4.51,4.51,0,0,0-1.35-.75q7.08-1.07,14.14-2.08C208.27,67.47,211.26,67,214.26,66.64Z"/><path class="cls-1" d="M223.88,33.6a.18.18,0,0,1,0-.1c-.13-.5-.27-1-.44-1.5a22.69,22.69,0,0,0-.89-2.24c-.21-.46-.44-.89-.67-1.33-.39-.81-.83-1.6-1.24-2.43-.19-.35-.4-.68-.61-1A14.39,14.39,0,0,0,219,23.68c-.41-.44-.85-.83-1.3-1.23s-.83-.7-1.23-1.08-.62-.58-.93-.89-.36-.38-.54-.54h0a17.09,17.09,0,0,0-2.46-2c-.41-.26-.83-.53-1.26-.76a17,17,0,0,0-4.88-1.77c-.33-.06-.67-.12-1-.16-1.54-.21-3.11-.25-4.67-.32-.75,0-1.5-.06-2.24,0q-.6,0-1.23.06c-2.37.25-4.73.79-7.1.86s-4.11,1.35-6,2.32l-.27.13a18.56,18.56,0,0,0-2.93,2.16l-.17.12A44.72,44.72,0,0,1,177,23.59c-.08.05-.12.15-.18.23l-.07.06a14.61,14.61,0,0,0-1.12,1.5,23.25,23.25,0,0,0-2.07,4l-.07.12v0c-.24.61-.45,1.23-.64,1.85v0c-.1.44-.23.87-.33,1.33s-.21,1.06-.29,1.62c-.19,1.08-.29,2.18-.38,3.3a1.1,1.1,0,0,1,0,.25c0,.46-.06.92-.1,1.37-.06.79-.15,1.56-.25,2.33,0,.25-.06.5-.1.75s-.09.62-.11.91a16.81,16.81,0,0,0-.1,2.82c0,.48.06,1,.1,1.44a14.56,14.56,0,0,0,1.91,5.52c.36.6.73,1.23,1,1.87a12.16,12.16,0,0,1,.6,1.41c.07.19.13.38.19.58a6.55,6.55,0,0,0,.27.92,9.58,9.58,0,0,0,.37,1,3.78,3.78,0,0,1,.17.35,1.48,1.48,0,0,0,.19.35,1.55,1.55,0,0,0,.14.29,8.8,8.8,0,0,0,.75,1.23,4.87,4.87,0,0,0,.54.77c.33.41.69.81,1,1.2a22.07,22.07,0,0,0,1.78,1.56c.52.37,1.06.75,1.62,1.1a.74.74,0,0,0,.15.08l2.68,1.7c.37.23.75.46,1.12.67.17.1.33.21.5.29a8.47,8.47,0,0,0,1.76.75c1,.31,2.1.41,3.08.77a4.66,4.66,0,0,1,1.35.76.22.22,0,0,1,.1.09.84.84,0,0,0,.54.18A29.18,29.18,0,0,0,198,71a111.11,111.11,0,0,0,13.54-2.59q.47-.16.93-.36A5.25,5.25,0,0,0,214,66.93c.08-.1.17-.18.27-.29a49,49,0,0,0,3.16-3.78c.29-.37.58-.74.85-1.14.56-.77,1.1-1.58,1.58-2.39v0c.27-.41.52-.83.74-1.24s.46-.79.67-1.19.29-.54.41-.79a16.34,16.34,0,0,0,.81-1.55,9.53,9.53,0,0,0,.67-1.62c.08-.34.14-.65.19-1a3,3,0,0,0,.06-.42c0-.22,0-.45,0-.66,0-.39.06-.79.08-1.16.07-.92.13-1.81.19-2.72,0-.46.08-.9.1-1.35.07-.63.11-1.25.15-1.87a.15.15,0,0,0-.1,0c0-.29.06-.61.08-.92,0-.52.1-1.06.14-1.57s.09-.79.11-1.19c.06-.62.1-1.27.1-1.89s0-1,0-1.43A21.45,21.45,0,0,0,223.88,33.6Zm-1.33,5.13c-.11.9-.19,1.81-.23,2.7,0,.56-.08,1.12-.11,1.68q-.06,1.41-.06,2.79v1.31c0,.27,0,.54,0,.81a12.28,12.28,0,0,1-.12,1.93,7.69,7.69,0,0,1-.23,1.18,1.59,1.59,0,0,1-.08.33.2.2,0,0,1,0,.13,5.76,5.76,0,0,1-.19.68c-.11.33-.23.65-.35,1a15.08,15.08,0,0,1-.86,1.7,12.25,12.25,0,0,1-.66,1.06l-.25.39c-.46.69-.87,1.38-1.29,2.08-.25.44-.52.85-.77,1.27a15.73,15.73,0,0,1-1.08,1.62,10.74,10.74,0,0,1-.66.85c-.29.37-.6.73-.91,1.06l-1.77,1.85a2.54,2.54,0,0,1-1.16.68,43.28,43.28,0,0,1-6.94,1.66c-1.6.17-3.18.58-4.75.9-1.15.18-2.29.39-3.41.58-1.72.54-3-.67-4.44-1.16a9.92,9.92,0,0,0-1-.3h0a3.56,3.56,0,0,0-1.23-.16,5.22,5.22,0,0,1-2.36-.35,6.59,6.59,0,0,1-2-1.35,2.49,2.49,0,0,0-.52-.4,4.28,4.28,0,0,0-1.06-.64c-.29-.15-.58-.29-.85-.44a13.2,13.2,0,0,1-2.28-1.54,10.19,10.19,0,0,1-1.23-1.14,8,8,0,0,1-.77-.87,9.8,9.8,0,0,1-.85-1.18,1.09,1.09,0,0,0-.06-.11l-.31-.52-.13-.25a9,9,0,0,1-.47-1,10.28,10.28,0,0,1-.42-1c-.12-.31-.23-.62-.33-.94s-.33-.89-.52-1.32a12.48,12.48,0,0,0-1.2-2.33,4.73,4.73,0,0,1-.52-.85,9.42,9.42,0,0,1-.67-1.44,12.07,12.07,0,0,1-.66-3.77c0-.38,0-.75,0-1.13.06-.62.1-1.22.14-1.84s.09-1,.13-1.58c.06-.85.14-1.71.25-2.56,0-.56.1-1.1.19-1.66.14-1.12.29-2.22.51-3.32,0-.21.07-.44.11-.62a9.74,9.74,0,0,1,.25-1,12.52,12.52,0,0,1,.47-1.54v0a11.23,11.23,0,0,1,.77-1.74,16.51,16.51,0,0,1,2.89-4.07l.48-.52c.39-.4.81-.77,1.22-1.14a38.36,38.36,0,0,1,5.15-3.68h0l1.29-.77c2.12-1.22,4.55-1.35,7-1.47.81,0,1.66-.15,2.47-.27s1.93-.29,2.89-.36h0a12.5,12.5,0,0,1,3.28.15c1.85.35,3.8.27,5.58,1a.69.69,0,0,1,.29.12,15.29,15.29,0,0,0,1.46.58h0a13,13,0,0,1,2.22,1.06,10.47,10.47,0,0,1,1.12.83c.52.46,1,.94,1.52,1.42l.7.68c.36.29.59.75.94,1a6.7,6.7,0,0,1,.79.58h0a9.81,9.81,0,0,1,1.31,1.35,20.05,20.05,0,0,1,2.12,3.34c.2.4.41.79.62,1.19,0,0,0,0,0,0a12.55,12.55,0,0,1,.95,2.24,11.88,11.88,0,0,1,.42,1.66,14.06,14.06,0,0,1,.31,3.1,13.24,13.24,0,0,1-.1,1.53A1.18,1.18,0,0,1,222.55,38.73Z"/><path d="M53.55,61.49c-.08-1.43-.52-2.84-.48-4.24a109.6,109.6,0,0,0-.64-16.71,17,17,0,0,1,0-2.14c0-5.42.39-7.65-.94-11.78a12.63,12.63,0,0,0-5.77-7.06c-.62-.37-1.22-.75-1.81-1.16a10.09,10.09,0,0,0-3.94-1.54,44.2,44.2,0,0,0-5.63-.25,20.78,20.78,0,0,0-10.51,2.33,40.64,40.64,0,0,0-4.17,2.76,16.53,16.53,0,0,0-1.54,1.35c-.14-.66-.35-1.35-.43-2s0-1.44,0-2.14c0-1.31.06-2.6-.07-3.89a18.73,18.73,0,0,1,.25-5.23c.25-1.41.21-2.87.48-4.26s-.37-2.88-.52-4.32c0-.25-.27-.66-.48-.68a35.86,35.86,0,0,0-4-.48c-1-.06-2.06.17-3.08.19C8.8.23,7.37.12,6,.21c-1.8.1-2.2.64-2.28,2.43-.1,2.28-.27,4.55-.41,6.81a7.49,7.49,0,0,0,0,1.16c.1,2.18.29,4.38.35,6.58.1,3.12.06,6.23.23,9.33.2,4.42.16,8.82-.07,13.23-.14,3,0,6.08,0,9.13,0,1.89,0,3.76,0,5.65.08,2.64.56,5.32.29,7.92-.23,2.32.27,4.5.35,6.77,0,.66.27,1,.93.91S7,70,7.74,69.94c1.29,0,2.7-.33,3.86.09a14.25,14.25,0,0,0,5.17.54,1.83,1.83,0,0,0,2-1.71c0-.45,0-.91,0-1.37-.07-3.11-.17-6.23-.19-9.34,0-4.22,0-8.43,0-12.65a2.42,2.42,0,0,1-.38,0c.25-2.76.44-5.55.73-8.31a8,8,0,0,1,.77-3c1.25-2.22,3.51-3.34,5.57-4.65a1.43,1.43,0,0,1,.74-.19c1.6-.18,3.22-.37,4.82-.47a5.34,5.34,0,0,1,5.34,3.42c.93,2.18.89,4.55,1.45,6.81a10.15,10.15,0,0,1,.19,2.14c0,2.06,0,4.11,0,6.19,0,1.29.08,2.6.19,3.88.25,2.64.83,5.26.14,7.92a4,4,0,0,0,.06,1.53,23.17,23.17,0,0,1,0,6C38,68.52,38.69,69.91,40,70c1.08.07,2-.08,3.38-.08a27.87,27.87,0,0,1,5.56.23,12.21,12.21,0,0,0,1.73.21c1.72.1,2.8-.56,3-2.27A53.52,53.52,0,0,0,53.55,61.49Zm-2.64,7.08a14.43,14.43,0,0,1-3-.41,6.43,6.43,0,0,0-2.66-.09,17.94,17.94,0,0,1-3.67.11,1,1,0,0,1-1-1,40,40,0,0,1-.14-4.24c0-1.14.37-2.24-.34-3.38C39.7,59,40,58,39.89,57.27c-.17-2-.42-4-.5-6-.15-2.86-.25-5.75-.27-8.64a32.39,32.39,0,0,0-.69-7c-.31-1.44-.27-2.91-1-4.32a9.11,9.11,0,0,0-3-3.43,2.26,2.26,0,0,0-1-.52c-2.31-.14-4.61-1.08-6.87.17a6.5,6.5,0,0,1-1.71.43c-.37.11-.89.15-1.06.4-1.16,1.66-3.24,2.07-4.54,3.57-.79.89-1.69,1.6-1.35,3a1.51,1.51,0,0,1-.13,1c-1.2,3.35-.79,6.8-.7,10.22,0,1.75,0,3.51.12,5.26.25,2.7-.31,5.44.06,8.12s-.35,5.56.13,8.3c.12.69-.09,1-.77,1a11.14,11.14,0,0,1-2.87.1A26.62,26.62,0,0,0,7,68.3c-1.33,0-1.24,0-1.53-1.37a15.76,15.76,0,0,1-.09-4.65c.15-1.72,0-3.49,0-5.23,0-2.93-.06-5.86-.12-8.77C5.19,46,5,43.73,5,41.47c0-1.68.21-3.36.27-5,0-1.22,0-2.45,0-3.65-.08-3.51-.15-7-.25-10.53-.12-3.82-.31-7.64-.46-11.46a10.47,10.47,0,0,1,0-1.37c.15-2,.31-4,.46-6C5.08,2.1,5.14,2,6.47,1.89s2.6,0,3.89,0V1.79c1.49,0,3-.09,4.46,0C16,1.89,16.19,2.16,16,3.3a16,16,0,0,0,.23,5.21,19.19,19.19,0,0,1-.09,4.07c-.1,1.6-.41,3.22-.43,4.84,0,2.27.18,4.53.33,6.79a9,9,0,0,0,.39,2.08c.17.58.67.67,1,.17,1.95-3.06,4.88-4.92,8-6.61a15.06,15.06,0,0,1,5-1.43,33.81,33.81,0,0,1,5.61-.19c1.28,0,2.57.25,3.86.4a3.34,3.34,0,0,1,.93.23c3.91,1.57,7.23,3.8,8.75,8,.18.48.51.89.7,1.37a8.77,8.77,0,0,1,.4,3.66,18.21,18.21,0,0,0,.23,2.68c.1,2-.29,1.48-.11,3.84.07.9.27,1.78.33,2.68.19,2.51.46,5,.48,7.56a68.29,68.29,0,0,1-.1,8.7,22.27,22.27,0,0,0,.23,4.44c.14,1.79.35,3.59.43,5.38C52.24,68.38,52.12,68.55,50.91,68.57Z"/><path d="M111.08,54.06c-2.52.27-5,.68-7.52.91a9.27,9.27,0,0,1-4.38-.25,1.39,1.39,0,0,0-1.85.6c-.21.33-.31.73-.54,1-1.52,2-3.28,3.43-6,3.34A38.3,38.3,0,0,1,83.27,59a9.2,9.2,0,0,1-6-4.2,12.78,12.78,0,0,1-1.87-4.23c-.29-1.48-.37-1.52,1-1.83a7.53,7.53,0,0,1,1.14-.19c7.79-.54,15.58-1.1,23.36-.19,1.81.21,3.62.3,5.44.38a26.86,26.86,0,0,0,3.1-.08,3,3,0,0,1,2.18.41l1.33-.27a1.49,1.49,0,0,1,.35-.81c.27-.35.15-1.1.06-1.64a12,12,0,0,1-.52-2.06,42.1,42.1,0,0,0-1.06-8.88,18.12,18.12,0,0,0-1.3-4.66,20.45,20.45,0,0,0-5.26-7.12C104,22.53,103,21,101.54,20.25a19.54,19.54,0,0,0-8.45-2.79c-1.41-.06-2.82-.41-4.26-.45a43.51,43.51,0,0,0-6.56.06,47.51,47.51,0,0,0-6.19,1.64,7.56,7.56,0,0,0-1.41.6l-4.9,2.77a11,11,0,0,0-4.61,4.31c-.91,1.71-1.81,3.43-2.68,5.15a5.92,5.92,0,0,0-.39,1.5c-.44,1.83-.92,3.63-1.29,5.46A10.93,10.93,0,0,0,60.59,41c.06,1.87.29,3.74.31,5.61,0,1.56-.27,3.09-.22,4.65s.39,3.35.58,5a4.23,4.23,0,0,0,1.57,3.2,3.41,3.41,0,0,1,.81,1.28,14.48,14.48,0,0,0,4.64,5.65,36.21,36.21,0,0,0,3.28,2.37,17.64,17.64,0,0,0,6.27,2c1.35.11,2.7.29,4,.48,2.43.35,4.88.73,6.87,1a37.4,37.4,0,0,0,4.72-.56c2.82-.73,5.73-1.25,8.3-2.72,1.12-.63,2.29-1.19,3.35-1.91,3.71-2.62,6.87-5.69,8.22-10.24C113.92,55,113.09,53.83,111.08,54.06Zm-1.48,6c-1,1.2-1.89,2.49-3,3.61a23.34,23.34,0,0,1-5.81,3.86,28.4,28.4,0,0,1-7.52,2.54,18.92,18.92,0,0,1-6.15.33,100.55,100.55,0,0,1-10.38-1.5,9.88,9.88,0,0,1-5.19-2.51,21.79,21.79,0,0,0-1.83-1.47A11.46,11.46,0,0,1,66.37,61c-.63-1.2-1.6-2.22-2.29-3.38a6.71,6.71,0,0,1-.66-2.16c-.25-1.08-.38-2.16-.59-3.24a14,14,0,0,1-.08-5,15.64,15.64,0,0,0-.06-6,6.38,6.38,0,0,1,0-2.68c.54-2.32,1.16-4.65,1.91-6.91a14.5,14.5,0,0,1,3.72-6.07,19.94,19.94,0,0,1,7.39-4.77c.93-.31,1.85-.67,2.78-.92,3.51-.93,7-1.59,10.72-.95,1.78.31,3.63.17,5.42.52a13,13,0,0,1,7.56,3.94,9.73,9.73,0,0,0,1.41,1.31A19.3,19.3,0,0,1,108.38,31a22.31,22.31,0,0,1,2,7.46c.37,2.49.5,5,.75,7.5.08.89-.13,1.18-1.06,1.24-1.31.06-2.6,0-3.91,0a.26.26,0,0,1,0,.11c-1.84-.19-3.73-.29-5.58-.54-5.32-.71-10.64-.25-16-.27-3.18,0-6.31.66-9.49.18-1.79-.29-2.78,1-2.37,2.79a16,16,0,0,0,1,2.92,31.74,31.74,0,0,0,2.34,4.24,9.22,9.22,0,0,0,5.49,3.74,31.75,31.75,0,0,0,6.52,1.1,54.25,54.25,0,0,0,7.72-.6,3.41,3.41,0,0,0,2.64-2.35,6.71,6.71,0,0,1,.5-1.27,1.48,1.48,0,0,1,.91-.54c2.7-.27,5.42-.49,8.12-.72a13.67,13.67,0,0,1,1.56-.13c.85,0,1.2.33,1.12,1.17A5.41,5.41,0,0,1,109.6,60.08Z"/><path d="M133.05,0h0c-2.58.06-5.15.19-7.75.29a21,21,0,0,1-3.45.1c-1.53-.2-1.64-.29-2.12,1.13a5.42,5.42,0,0,0-.2,1.89c.06,1.1.37,2.18.37,3.28,0,6.37,0,12.73,0,19.08,0,2-.15,4-.19,6,0,1.25.09,2.48.09,3.7s-.13,2.72-.07,4.09c.15,4.2.44,8.39.54,12.59s0,8.16,0,12.25h.13c-.08,1.43-.19,2.84-.29,4.28a1.29,1.29,0,0,0,1.51,1.49c1.35-.14,2.68-.37,4-.54a7.44,7.44,0,0,1,2.68-.14c1.66.43,3.22-.19,4.84-.15a1.1,1.1,0,0,0,1.18-1.06c.09-1,.17-2.07.17-3.09,0-3.39-.15-6.75-.12-10.12,0-5.06.2-10.13.24-15.2.07-8.64.07-17.28.13-25.91,0-1.89.1-3.76.12-5.65,0-2.06-.39-4.11.15-6.19C135.27,1.12,134.15,0,133.05,0Zm0,6.46c0,3.18,0,6.33,0,9.51-.06,3.61-.23,7.23-.27,10.86,0,1.66.12,3.34.18,5,0,.33,0,.64,0,1,0,2.58,0,5.17,0,7.75a48.28,48.28,0,0,1-.34,6,57,57,0,0,0,.05,6.79c.06,3.3.14,6.6.16,9.93a7.66,7.66,0,0,1-.23,1.72c-.31,2-.45,2.24-2.3,2-2.06-.31-3.93.61-5.92.65-.5,0-1,.16-1.54.23-.77.12-1-.3-1-1V54.62a.78.78,0,0,1,.21,0q-.43-7.58-.85-15.16c-.06-.83,0-1.69,0-2.52,0-3.3.08-6.6.12-9.92.07-4.47.17-8.93.17-13.4,0-3-.17-6.08-.25-9.14,0-1.24.23-1.74,1.5-2a16,16,0,0,1,2.86-.33C127.07,2,128.54,2,130,1.89a13.33,13.33,0,0,1,1.55,0c1.64.12,1.66.25,1.46,1.93A18.24,18.24,0,0,0,133.09,6.46Z"/><path d="M161.35,57.63c0-.58-.06-1.17-.06-1.75-.08-3.36-.15-6.75-.21-10.11,0-1-.08-2-.06-2.93,0-4.61.15-9.2.19-13.81,0-4.17,0-8.33,0-12.48,0-2.39.25-4.78.39-7.18h-.1c0-.52,0-1,0-1.56A26.43,26.43,0,0,0,160.6.73c-.1-.29-.18-.54-.27-.73H147.71c-.38.23-.48.62-.42,1.33.25,3.16.48,6.31.71,9.47.06.85,0,1.68.08,2.53a40.56,40.56,0,0,1,.25,4.26c-.25,4.84-.89,9.66-.48,14.52a2.93,2.93,0,0,1-.06.58,61.78,61.78,0,0,0-.23,10.09c.13,2,.5,4,0,6a5.74,5.74,0,0,0,.07,1.16c.1,3,.31,5.94.29,8.91s-.27,5.8-.4,8.7a1.94,1.94,0,0,0,2.16,2.1c1.56,0,3.1,0,4.65-.06q3.68-.06,7.36-.17h.06v-6.1C161.62,61.41,161.5,59.52,161.35,57.63Zm-2.72,9c-1.87.14-3.72.37-5.58.56,0-.06,0-.15,0-.21-.89.06-1.8.15-2.72.17s-1.12-.21-1.1-1.14c0-1.75.13-3.49.15-5.24,0-3.82.06-7.64,0-11.46,0-3.55-.19-7.12-.23-10.69,0-1.11.09-2.21.09-3.31,0-1.74,0-3.51,0-5.25.06-2.51.14-5.05.29-7.56.21-3.28.66-6.54.1-9.88a58.15,58.15,0,0,1-.29-7.36c0-.91-.14-1.8-.17-2.72,0-.47.11-.87.77-.87,2.7,0,5.38-.1,8.08-.14,1.06,0,1.41.25,1.54,1.26A33.56,33.56,0,0,1,159.9,7c-.06,6.27-.19,12.54-.31,18.79-.11,5.09-.27,10.18-.29,15.27,0,2.26.27,4.52.41,6.79a11.21,11.21,0,0,1,.08,1.53,116.48,116.48,0,0,0,.54,14.35c0,.32,0,.65,0,1C160.42,67,160.19,66.49,158.63,66.62Z"/><path d="M100,37.9a6.91,6.91,0,0,1-.92-1.68A15.51,15.51,0,0,0,95,29.72c-1.64-1.6-3.47-2.95-6-2.87-1.41,0-2.82,0-4.24,0a.06.06,0,0,0,0,0,6.71,6.71,0,0,0-2.45.33c-2,1.14-4,2.39-5,4.67A16.72,16.72,0,0,1,75.44,35a9.9,9.9,0,0,0-1.27,3.64,1.05,1.05,0,0,0,1.08,1.43c2,.14,4,.39,6,.54s4.16.08,6.19.39a15.87,15.87,0,0,0,4.24.23l5.58-.54a1.57,1.57,0,0,1,.92,0,1.62,1.62,0,0,0,2.26-.37C100.82,39.91,100.55,38.73,100,37.9Zm-3.12,1a21,21,0,0,1-8,.58c-1.93-.19-3.88-.19-5.81-.27-1.68-.08-3.34-.15-5-.27-1.2-.08-1.62-.69-1.2-1.83A18.29,18.29,0,0,1,78,34.7c.79-1.41,1.58-2.82,2.43-4.19A3.47,3.47,0,0,1,83,28.93c1.53-.19,3.07-.33,4.61-.5a6.22,6.22,0,0,1,5.31,2,19.87,19.87,0,0,1,2.41,3.22c.79,1.33,1.44,2.74,2.14,4.13C97.72,38.36,97.52,38.73,96.87,38.94Z"/><path d="M300.69,180.32c-1.39-2.26-2.57-4.65-3.94-6.91-1.79-2.95-3.6-5.86-5.53-8.71s-4-5.56-6-8.34a16,16,0,0,1-1.29-2,2.37,2.37,0,0,1,.31-2.88c.9-1,1.79-1.89,2.7-2.83s1.79-1.85,2.66-2.8c1.89-2.12,3.55-4.49,6.11-5.94a2.48,2.48,0,0,0,.45-.35A51.32,51.32,0,0,0,301,135.2c.79-.79,1.68-2.6,1.13-2.63-1.28-.06-3.14-.08-4.16-.1-1.52,0-2.95-.22-4.42-.12a58.48,58.48,0,0,1-6.57.58,3.11,3.11,0,0,0-3.28,2.08,15.67,15.67,0,0,1-2.72,4c-1.06,1.21-2.2,2.37-3.36,3.49-1.79,1.69-3.91,3-5.38,5a14.46,14.46,0,0,1-2.16,2.2,1.08,1.08,0,0,1-.83.33c-.17-.06-.33-.52-.33-.79-.09-3.05-.31-6.1-.15-9.13a94.87,94.87,0,0,0-.06-10.12,63.25,63.25,0,0,1,.71-13.6c.22-1.33-.34-1.81-1.75-1.74a33.63,33.63,0,0,1-5.4.06,11.9,11.9,0,0,0-5.31.17c-.07,0-.13,0-.19,0a1.36,1.36,0,0,0-1.35,1.58c0,1.73,0,3.47,0,5.21h.12c0,1.31,0,2.6,0,3.91.08,4.65.21,9.32.23,14,0,3.9-.15,7.78-.17,11.69,0,3.63.09,7.27.13,10.9,0,2.35.06,4.67,0,7,0,1.89-.25,3.76-.25,5.63,0,2.72.08,5.44.21,8.14a2.23,2.23,0,0,0,.62,1.51,1.24,1.24,0,0,0,1.74-.23,3.88,3.88,0,0,1,3.06-.91c2.05.12,4.11.23,6.16.21s2.31-.48,2.27-2.41c-.11-3.18-.13-6.38-.15-9.55,0-.56-.68-3.19-.18-3.69.68-.65,1-.9,1.14-1.05.87-.93,1.74-1.89,2.7-2.76a.91.91,0,0,1,1.49.25c.61.93,1.17,1.87,1.71,2.82,1.16,2.1,2.2,4.28,3.48,6.29,1.73,2.66,3.66,5.18,5.47,7.79.47.71,2.25,3.45,2.87,3.43s1.61,0,2.13,0c3.55-.06,8.57-.12,12.12-.19C302.74,184.35,301.13,181.05,300.69,180.32Zm-3.22,2.47a13.77,13.77,0,0,1-1.93,0c-2.12,0-4.23,0-6.35-.06a1.7,1.7,0,0,1-1.08-.68c-1.46-1.89-2.87-3.83-4.26-5.78a39.92,39.92,0,0,1-4.42-7.06,56.49,56.49,0,0,0-4.18-7c-.85-1.33-1.68-1.43-2.8-.33-1.5,1.5-2.95,3.05-4.42,4.59a1.86,1.86,0,0,0-.56,1.56,88.54,88.54,0,0,1,.24,12.19c-.06,1.08-.51,1.51-1.59,1.54-.63,0-1.27-.09-1.89-.13-1.56-.14-3.1-.46-4.61.13a2,2,0,0,1-.59,0c-1.3,0-1.64-.27-1.64-1.5,0-2.59,0-5.19.07-7.77h-.11a60.74,60.74,0,0,0,0-7c-.47-4.26,0-8.54-.39-12.82-.17-2.24.1-4.5.14-6.77.05-1.16.05-2.32.07-3.49,0-5.06.18-10.13,0-15.18-.11-2.86.22-5.69.29-8.53,0-1.93.72-2.56,2.59-2.49,2.27,0,4.51.14,6.77.27.71,0,.73.64.69,1.18-.11,1.79-.33,3.59-.33,5.38,0,2.84.2,5.69.18,8.53,0,4.07-.16,8.16-.27,12.23a4.65,4.65,0,0,0,0,1.17c.56,2.2.21,4.38.08,6.58a7.2,7.2,0,0,0,.19,2.12c.06.29.5.58.83.66.17.07.56-.29.69-.54a11.28,11.28,0,0,1,3.24-4c1.08-.89,1.89-2.11,2.92-3.09,1.83-1.74,3.78-3.34,5.55-5.13s3.28-3.65,4.86-5.5c.14-.17.06-.5.14-.71a1.43,1.43,0,0,1,1.75-1c.6.15,1.12.25,1.6-.25.08-.08.27-.18.35-.14,1.37.64,2.74-.27,4.15,0a25.5,25.5,0,0,0,4,.06,3.68,3.68,0,0,1,.94,0c.7.19.85.77.33,1.31s-.87.75-1.33,1.12c-.64.52-1.31,1-2,1.52s-1,.72-1.56,1.1a10.51,10.51,0,0,0-1,.83c-.64.7-1.22,1.49-1.89,2.2-2.3,2.45-4.65,4.86-7,7.31-.7.75-1.43,1.52-2.11,2.28a1.6,1.6,0,0,0-.17,2.29,26.94,26.94,0,0,0,2.08,2.82c1.51,1.77,2.55,3.89,4.38,5.42a5.6,5.6,0,0,1,1.41,2.08,33.81,33.81,0,0,0,4.61,7.62,2.81,2.81,0,0,1,.52.83c.91,2.87,2.76,5.26,4.17,7.87a10.43,10.43,0,0,1,.67,1.79A17.48,17.48,0,0,1,297.47,182.79Z"/><path d="M125.79,161.13a2.65,2.65,0,0,1-.29-.72,2.7,2.7,0,0,1-.06-.54c-.1-2.45-.1-4.93-.29-7.38a8.94,8.94,0,0,0-.75-3.59c-1.57-3-3.32-5.83-5.11-8.7a7.94,7.94,0,0,0-3.19-3c-.71-.36-1.33-.83-2-1.15-2.53-1.12-5.11-2.18-7.66-3.23a1.58,1.58,0,0,0-.56-.13c-2-.21-4-.46-6-.58a15.14,15.14,0,0,0-3.49.21,45.42,45.42,0,0,0-10.53,3.38,13,13,0,0,0-5.82,5c-1.57,2.57-3.42,5-4.61,7.85a2.9,2.9,0,0,1-.41.64,6.48,6.48,0,0,0-1.58,4.3c-.08,2-.06,3.9-.08,5.83h0c0,1.83-.07,3.64-.05,5.47A6.55,6.55,0,0,0,74,167.9a9.06,9.06,0,0,1,.77,2.58c.21,1,0,2.16.46,3.07,1.12,2.41,2.45,4.72,3.71,7a2.87,2.87,0,0,0,.94,1c1.54.95,3.07,1.93,4.65,2.76a17.38,17.38,0,0,0,4.26,1.89c3.72.83,7.47,1.43,11.23,2.07a12,12,0,0,0,3.28.4,22.6,22.6,0,0,0,7.5-2,23.56,23.56,0,0,1,2.64-1.25,14.4,14.4,0,0,0,7.54-6.71c1.14-2.1,2.16-4.26,3.22-6.41.68-1.44.31-2.16-1.27-2.48a7.47,7.47,0,0,0-1.16,0c-3.22,0-6.44.13-9.64.17a2.07,2.07,0,0,0-2,1.31,7.79,7.79,0,0,1-2.31,3A16.71,16.71,0,0,1,97.34,177a8.44,8.44,0,0,1-6.12-3.61,43.72,43.72,0,0,1-3.47-6.07,5,5,0,0,1-.35-2c0-.5.35-.79.91-.79,1.5,0,3-.06,4.47-.13,2.38-.08,4.79-.1,7.18-.27,2.91-.2,5.79-.56,8.7-.76s5.8-.36,8.7-.46a5.33,5.33,0,0,1,2.29.29c1.64.75,3.34.17,5,.37.48.07,1.19-.64,1.6-1.14S126.11,161.55,125.79,161.13Zm-3.44.52c-1.54-.19-3.08-.41-4.61-.62a2.58,2.58,0,0,0-1,0c-2,.68-4,.43-6,.46a52.69,52.69,0,0,0-8.49.72c-1.39.23-2.87,0-4.24.31-2.64.56-5.27-.18-7.91.17a22.31,22.31,0,0,1-2.31.1A2.29,2.29,0,0,0,85.3,165a6.19,6.19,0,0,0,.85,3.71c1.14,2.18,2.49,4.26,3.61,6.44,1,1.89,2.75,2.58,4.55,3.3s3.72.58,5.55.6c2.55,0,5.19-.16,7.43-1.7a11.09,11.09,0,0,0,4.16-4.51,1.12,1.12,0,0,1,1.16-.8c.77,0,1.53,0,2.3,0,1.35,0,2.68-.1,4-.12a12.66,12.66,0,0,1,1.75.1c1.14.17,1.33.42.93,1.54a12.85,12.85,0,0,1-1.08,2.28c-1,1.6-1.91,3.22-3,4.78-1.54,2.26-4.11,3-6.39,4.18-1.11.54-2.31.87-3.43,1.32a11.18,11.18,0,0,1-5.94.61c-2.87-.4-5.79-.52-8.62-1.42-1.51-.49-3.2-.45-4.67-1.2-2.26-1.14-4.57-2.18-6.75-3.45a8.25,8.25,0,0,1-2.06-2.28,16.9,16.9,0,0,1-3.13-7.85,33.44,33.44,0,0,0-1.06-4.92,9.49,9.49,0,0,1-.19-2.85c0-1.74-.19-3.49-.08-5.23A59.33,59.33,0,0,1,76,151a5.87,5.87,0,0,1,1-1.87c1.54-2.64,2.93-5.38,4.65-7.87a12.69,12.69,0,0,1,3.68-3.39,29,29,0,0,1,8.39-3.51,29.82,29.82,0,0,1,9.39-.81c4.81.42,8.63,2.77,12.52,5.2a10.23,10.23,0,0,1,3.28,3.71,32,32,0,0,0,1.85,2.74,14.68,14.68,0,0,1,2.64,8c0,.62,0,1.27,0,1.91.42,1.79-.41,3.59.17,5.4C123.82,161.46,123.41,161.8,122.35,161.65Z"/><path d="M180.49,140.32c-.06-.76.07-1.55,0-2.32-.08-1.14-.35-2.29-.41-3.45-.11-2.05-.73-4.07-.46-6.15a4.11,4.11,0,0,0-.16-1,27.17,27.17,0,0,1,.41-9.47c.19-.75.15-2.14-.14-2.31a20.83,20.83,0,0,0-4.1-.31c-.1,0-.2.06-.31.11a6.42,6.42,0,0,1-2.14,0c-.62,0-1.26,0-1.89-.13-1.72-.23-3.44.87-5.19,0a1.37,1.37,0,0,0-.48.64c-.12,1-.16,1.94-.22,2.91a42.74,42.74,0,0,0-.46,6.56,50.73,50.73,0,0,1-.58,11.22c-.06.43-.4.62-.63.27-1.05-1.58-2.78-2.1-4.27-3a25.72,25.72,0,0,0-3.84-2,32.19,32.19,0,0,0-4.26-1.25,5.39,5.39,0,0,0-2.87.23c-1.68.6-3.28,1.45-4.94,2.18a16.83,16.83,0,0,0-8.08,6.66,10.27,10.27,0,0,1-1.41,1.83,13.38,13.38,0,0,0-3,5.77A53.36,53.36,0,0,0,129,162c0,1,0,2.08,0,3.12a28.83,28.83,0,0,0,1.64,9c.44,1.25,1.56,2.24,1.52,3.72,0,.29.43.6.73.85a68.42,68.42,0,0,0,7.06,5.46,14.41,14.41,0,0,0,6.7,2.3c.92.11,1.85,0,2.72.19a15.12,15.12,0,0,0,7.87-.41,17.67,17.67,0,0,0,6.42-3.51c.58-.48,1.16-1.37,2-1,1,.5.42,1.43.19,2.24-.39,1.31.37,2.16,1.72,2a5.16,5.16,0,0,0,.94-.23,18.71,18.71,0,0,1,8.66-.75,5.08,5.08,0,0,0,2.08-.2v-5.88a1.33,1.33,0,0,1,0-.19,9.88,9.88,0,0,1-.18-2.3c.06-1.94.14-3.91.23-5.86v0c0-.17,0-.33,0-.5,0-.71.06-1.43.1-2.14.12-1.68.31-3.34.37-5,.13-3.58.17-7.15.23-10.7a3,3,0,0,1,0-.6A47.92,47.92,0,0,0,180.49,140.32Zm-1.84,13.27a37.85,37.85,0,0,1-.42,8.08,90.24,90.24,0,0,0-.87,11.38c0,1.35.29,2.7.41,4,.15,1.81.27,3.59.38,5.4,0,.58-.38,1-.85.81-2.6-.7-5.11.21-7.69.27a5.09,5.09,0,0,1-.56,0c-.5-.08-.85-.27-.77-.89.13-1,.23-2.06.34-3.09a12.57,12.57,0,0,0,0-1.94c0-.83-.52-1.2-1.39-1.28a1.45,1.45,0,0,0-1.73.93c-.66,2.74-3,3.93-4.92,5.5-2.3,1.89-5.21,2.16-8,2.68a9.72,9.72,0,0,1-3.45-.31c-2-.31-4-.62-5.92-1.08a6.2,6.2,0,0,1-2-1.1c-1.94-1.27-3.89-2.53-5.76-3.88a9.76,9.76,0,0,1-3-4.43A26.82,26.82,0,0,1,130.09,164c.09-3.22.56-6.44.79-9.68a33.17,33.17,0,0,1,1.48-7.39,7.16,7.16,0,0,1,.66-1.62,33.87,33.87,0,0,1,5.8-7.52,21.8,21.8,0,0,1,4.34-2.84,20.24,20.24,0,0,1,3.65-1.79,8.65,8.65,0,0,1,3.47-.85h.06a6.65,6.65,0,0,1,3.37.93,3.66,3.66,0,0,1,1.78,1,8.8,8.8,0,0,0,1.75,1.18c1.37.84,2.76,1.69,4.19,2.43a2.89,2.89,0,0,1,1.08.92c.77.6,2.53,1.93,3.57,2.93.09-.11.11-1.83.17-2.37.1-.71.12-2.14.12-2.14.19-3.07.36-6.17.54-9.24a4.78,4.78,0,0,0,0-1.56c-.75-2.8.06-5.52.27-8.28a1.29,1.29,0,0,1,1.48-1.38l4.83,0c1.31,0,2.6,0,3.91.09.68,0,1.12.12,1.06,1.1a61.48,61.48,0,0,0-.15,11.59c-.68,2.43.6,4.69.6,7.08,0,1.47,0,2.95.11,4.42C179.35,145.23,178.29,149.38,178.65,153.59Z"/><path d="M31.29,136c-.27-1.29-.5-1.42-1.73-1.08a4.18,4.18,0,0,1-3-.11,4.56,4.56,0,0,0-2.06-.21c-1.12.07-1.57-.2-1.8-1.22a4.62,4.62,0,0,1,2.91-5l.45-.14,2.91-.87c.06-.07.14-.13.21-.21a3.32,3.32,0,0,0,1.39-2,3.14,3.14,0,0,0,.1-.87c-.18-3-.35-5.4-.5-8.37,0-.79-.31-1.24-1.16-1.18-1.56.1-3.11.19-4.65.31s-2.85.27-4.26.44a14.59,14.59,0,0,0-3.24.5,24.58,24.58,0,0,0-4.79,2.07c-2.23,1.37-3.93,3.18-3.68,6.17a41.47,41.47,0,0,1,0,4.86c0,1.37-.12,2.72-.23,4.09a1.22,1.22,0,0,1-1.35,1.31c-1.31,0-2.59,0-3.88.08a11.27,11.27,0,0,0-1.75.11c-.93.18-1.28.58-1.14,1.47a18.83,18.83,0,0,1,.21,6.94c-.17.89.31,1.33,1.2,1.39,1.75.12,3.49.23,5.24.39,1.22.11,1.45.36,1.37,1.56a19.78,19.78,0,0,0-.33,2.49c.16,5.13-.19,10.26.45,15.37a10.16,10.16,0,0,1,0,1.56c-.1,2.05-.23,4.11-.29,6.19a27,27,0,0,1-.08,4.85c-.6,2.85-.25,5.67-.29,8.5a1.31,1.31,0,0,0,.08.48l5.71-.09.13,0a23,23,0,0,1,4.23-.06l3.1-.06A1.84,1.84,0,0,0,22,183.85c0-1.29-.21-2.59-.33-3.88a18.87,18.87,0,0,1-.4-2.87c.07-2.66.25-5.31.36-8,.08-1.93,0-3.89.12-5.84.21-3.61.48-7.25.69-10.88.08-1.81.1-3.63.1-5.46,0-.91.35-1.48,1.29-1.6s1.91-.27,2.89-.35c1.35-.13,2.72-.13,4.07-.31a3.51,3.51,0,0,0,.7-.19V137C31.39,136.67,31.35,136.34,31.29,136Zm-1.17,5.5c0,.64-.18.89-.87,1-1.41.15-2.8.52-4.22.67a7.18,7.18,0,0,1-2.28-.29c-1-.23-1.64.06-1.76,1-.13,1.16-.17,2.32-.21,3.49-.11,2.7-.19,5.42-.31,8.12-.09,1.86-.23,3.73-.29,5.62-.13,3.89-.13,7.79-.38,11.67-.19,2.81-.6,5.57.23,8.31a3.1,3.1,0,0,1,.1,1.35c0,1.16-.2,1.27-1.41,1.33-2.45.15-4.92-.39-7.35.33a1.42,1.42,0,0,1-.58,0c-1.08-.06-1.37-.27-1.48-1.39a20.53,20.53,0,0,1,0-2.72c.07-2.33.19-4.67.27-7,0-1.22,0-2.45,0-3.69,0-1.81.21-3.62.23-5.42,0-1.11-.23-2.21-.23-3.31,0-3.69,0-7.37,0-11.07a13.59,13.59,0,0,1,.65-5.33c.41-1.12,0-1.41-1.25-1.41-2,0-4-.13-6-.23-.23,0-.65-.34-.67-.52,0-1.62,0-3.24,0-4.86A.68.68,0,0,1,3,136.5c1.31-.06,2.6-.18,3.89-.2,1.84,0,2.69-.67,2.86-2.43.19-2.06.27-4.12.4-6.19h-.05c0-1.5.09-3,0-4.49a3.19,3.19,0,0,1,1.92-3.11c.95-.54,1.95-1,2.92-1.54a9.62,9.62,0,0,1,4.84-1.27A21.16,21.16,0,0,0,23.1,117c.85-.1,1.69-.27,2.52-.31a2,2,0,0,1,1.26.31A4.57,4.57,0,0,1,29,120.72c0,1.52.69,3-.21,4.57a7.31,7.31,0,0,0-2.2.77l-.18.1c-.86.42-1.67,1-2.54,1.37-1.76.77-2.41,2.31-2.74,4-.27,1.39-.1,2.82-.62,4.21-.31.81.23,1.33,1.16,1.35A6.21,6.21,0,0,1,23,137a15.59,15.59,0,0,0,5.77.46c.87-.11,1.25.29,1.31,1C30.16,139.47,30.1,140.49,30.12,141.53Z"/><path d="M69.33,133c-.21-1.06-.77-1.35-1.87-1.12A31.92,31.92,0,0,0,63.54,133c-1,.36-1.94,1.12-3,1.37-2.16.5-3.51,2.1-5.11,3.39a6.83,6.83,0,0,1-.89.72c-.5.27-.94.17-1-.45-.06-.92,0-1.83-.06-2.74,0-1.08-.38-1.31-1.5-1.15a39.11,39.11,0,0,1-9.24.23c-.44,0-.89-.31-1.33-.23a7.07,7.07,0,0,0-2.72.77c-.39.25-.39,1.27-.41,1.95-.07,2.33-.13,4.68-.11,7a15.1,15.1,0,0,0,.4,3.68,12.73,12.73,0,0,1,.08,5.79,15.21,15.21,0,0,0-.15,1.91c0,1.23,0,2.45,0,3.7a12.63,12.63,0,0,0,0,1.74c.34,2,.71,4,1.06,5.9a6.2,6.2,0,0,1,.07,1c0,2.39-.05,4.77-.07,7.16h-.25c0,2.35-.08,4.67,0,7a26.91,26.91,0,0,0,.4,3.47.59.59,0,0,0,0,.17l12.31-.23c.15-.07.27-.15.42-.23l.14-4.09v0a12.14,12.14,0,0,1-.16-2.7c0-2.45.35-4.93.48-7.38a39.83,39.83,0,0,0,0-4.09c-.13-2.41-.44-4.81.14-7.18s1.39-4.86,2-7.31A5.62,5.62,0,0,1,58,148.55a14.08,14.08,0,0,1,2.6-1.31,10.6,10.6,0,0,1,7.2-.15,1.27,1.27,0,0,0,.4.09l.87-4.72c.23-1.93.46-3.86.56-5.79A15.66,15.66,0,0,0,69.33,133Zm-2.08,9.16c0,.52-.16,1-.25,1.54-.16,1-.22,1.1-1.24.83a6.12,6.12,0,0,0-3.62.27,17.89,17.89,0,0,0-4.67,1.89c-.35.25-.72.52-1.1.75-2.28,1.43-2.95,3.88-3.61,6.21a77.13,77.13,0,0,0-1.56,7.58,4.94,4.94,0,0,0-.1,1.91c.72,3.88.16,7.76,0,11.65a45.31,45.31,0,0,0,.1,7.18c.17,1.27.08,1.33-1.18,1.37s-2.45,0-3.66.06-2.55.23-3.8.44c-.77.13-.91-.23-.87-.85a.6.6,0,0,1,0-.19c.83-2,.08-4-.14-5.94a42.5,42.5,0,0,1,.12-6.77c.08-2.63.23-5.23-.75-7.83a14.11,14.11,0,0,1-.52-5c0-2,.29-4,.34-6a28.13,28.13,0,0,0-.25-3.66c-.13-1.35-.38-2.7-.44-4.05C40,141.8,40,140,40,138.29a12.16,12.16,0,0,1,0-1.35.8.8,0,0,1,.89-.81c.44,0,.93-.29,1.31-.17,2,.63,4.11,0,6.16.09.44,0,.9,0,1.35,0,2,0,2,0,2,2.86-.12.83-.37,2.41-.62,4-.11.62-.38,1.35.43,1.72.42.19,1.62-.64,1.77-1.26a4.07,4.07,0,0,1,1-2.47,33.29,33.29,0,0,1,4.25-3.66A33.31,33.31,0,0,1,63.47,135a18.12,18.12,0,0,1,2.33-1c1.41-.41,2.22-.37,2.14,1.37C67.83,137.65,67.5,139.91,67.25,142.15Z"/><path d="M221.76,132.91a1.44,1.44,0,0,0-2.06-1.29c-2.86.94-5.9,1.5-8.53,3-1.54.88-3.28,1.6-4,3.49a3.42,3.42,0,0,1-1.06,1.12c-.29.21-.69.15-.69-.33a7.75,7.75,0,0,1,.19-1.33c.19-1.22.46-2.43-.5-3.49a1.21,1.21,0,0,1-.12-.72c0-.87-.46-.94-1.14-.83a12.49,12.49,0,0,1-3.08.31A22.07,22.07,0,0,0,194,133a8.13,8.13,0,0,0-2,.65l-.35,2.66a3.69,3.69,0,0,1,.1,1.18c0,1.56-.08,3.11-.1,4.67-.07,3,.62,5.94.18,8.93a3.37,3.37,0,0,0,0,.77H192c-.17,2.85-.36,5.67-.52,8.51-.11,2.14-.35,4.28-.27,6.42a96.32,96.32,0,0,1,0,10.88c-.17,2-.38,4-.5,6-.1,1.3.29,1.62,1.54,1.43a5.73,5.73,0,0,1,1.16-.13c3.61.11,6.66-.07,10.41.14.73,0,1-.64,1.07-1.13s.09-1,.09-1.39c0-2.21-.07-4.41,0-6.63.12-3.49.41-7,.47-10.51a49.22,49.22,0,0,1,1.5-10.78,12.19,12.19,0,0,0,.37-2.47,3.4,3.4,0,0,1,1.06-2.41,12.28,12.28,0,0,1,11-3.67c1.87.27,2.26-.06,2.26-2a5.57,5.57,0,0,1,.06-1.53C222.48,139.37,222.15,136.15,221.76,132.91Zm-1.6,10.47c-.13.85-.64.93-1.39.93a16.76,16.76,0,0,0-8.54,2.14,17,17,0,0,0-4,3.57,11.55,11.55,0,0,0-2.32,5,5,5,0,0,0-.15,1.14c0,1.93,0,3.86,0,5.79h.23c-.19,4.8-.31,9.6-.6,14.37a50.91,50.91,0,0,1-.88,6.17,1,1,0,0,1-.76.62c-2.33.09-4.66.17-7,.13-1.93,0-2.22-.44-2.16-2.39.14-3.76.31-7.52.37-11.28,0-2.57-.1-5.17-.08-7.74a32.49,32.49,0,0,1,.29-4.07,57.47,57.47,0,0,0,.19-12.23,61.87,61.87,0,0,1,0-9.91.94.94,0,0,1,.95-1,23,23,0,0,1,5.57-.27c.68.11,1.41-.06,2.1,0,1.26,0,1.7.31,1.95,1.48.45,2.1.35,4.13-1.35,5.75-.85.83-.81,1.2.16,2.24.54.58,1.13.58,1.79-.2.93-1.06,1.74-2.25,2.62-3.37a18.72,18.72,0,0,1,5.08-4.4,19.09,19.09,0,0,1,6.53-2.22c.87-.17,1.26.14,1.39.89A27.79,27.79,0,0,1,220.16,143.38Z"/><path d="M243.71,177.54c0-4.55.12-9.08.1-13.62,0-5.72-.18-11.43-.27-17.14-.06-3.88-.06-7.76-.08-11.65h.21a5.07,5.07,0,0,0,0-1.35c-.13-.37-.48-.89-.77-.93-1.93-.25-3.89-.48-5.82-.54-1.6,0-3.22.19-4.81.23-2,.06-3.1,1-3.14,3,0,1.43.14,2.84.14,4.28,0,5,0,10,0,15a39.18,39.18,0,0,0,.09,5.42,42.93,42.93,0,0,1,.54,9.05c-.36,4.65-.81,9.31-1.19,13.94,0,.64,3.66.5,4.59.54,2.91.16,5.82.33,8.7.56,1.33.1,1.37.19,1.75-1a4.52,4.52,0,0,0,.21-1.68C243.9,180.26,243.71,178.91,243.71,177.54Zm-1.31,3.28c-.12,1.6-.42,1.93-1.91,1.64a38.7,38.7,0,0,0-7-.29c-2.93-.06-2.93,0-2.82-3.14.39-3.24.21-6.75.77-10.19a15,15,0,0,0-.09-3.47c-.14-2.45-.43-4.9-.49-7.35-.11-4-.07-8-.11-12,0-2.9-.06-5.83,0-8.74,0-2,.58-2.68,2.6-2.91a28,28,0,0,1,3.67-.08c1.08,0,2.18.15,3.28.25s1.35.37,1.37,1.45a102,102,0,0,1,.25,11.07,15,15,0,0,0,0,2.51,131.4,131.4,0,0,1,.23,15.37c-.08,2.78,0,5.57.1,8.35.05,2.2.13,4.38.19,6.58C242.42,180.18,242.42,180.51,242.4,180.82Z"/><path d="M243.27,125.41c-.23-1.8-.56-3.59-.64-5.4-.06-1.59-.15-2.93-.18-4.55,0-1.13,0-1.63-1.38-1.7-.57,0-1.1,0-1.66-.06-3-.43-5.94.15-8.89.4a1.62,1.62,0,0,0-1.49,1.32,7.44,7.44,0,0,0-.25,1.92c0,.91.06,1.8.1,2.72.08,2.11.19,4.25.29,6.37a.93.93,0,0,0,.94,1c1.6.14,3.1.26,4.7.42.3,0,1.28-.05,1.86,0a15.16,15.16,0,0,0,5.56-.68C243.19,126.83,243.42,126.41,243.27,125.41Zm-3.49.42a17.17,17.17,0,0,1-6.31-.08,6.41,6.41,0,0,0-1.14-.17c-1.41-.12-1.43-.1-1.48-1.52,0-1,0-2.07,0-3.11h0c0-1-.14-2.06-.12-3.1,0-1.86.62-2.32,2.49-2.28,1.12,0,2.26-.19,3.41-.19a32.41,32.41,0,0,1,3.42.29c.23,0,.42.38.63.59a.5.5,0,0,1,0,.18c-.32,2.6.62,5.09.56,7.69C241.2,125.56,241.26,125.62,239.78,125.83Z"/><path d="M112.5,153.37c-.62-2.72-2-5.15-3.07-7.71a1.09,1.09,0,0,0-.39-.41c-2.21-1.52-4.53-2.52-7.29-2.06a11.61,11.61,0,0,1-2.7.06,10.25,10.25,0,0,0-6.56,2,13.73,13.73,0,0,0-5.36,7.64c-.11.37-.21.74-.31,1.12.08.54.22,1,.27,1.56,0,.83.54,1.1,1.28,1.1l.77,0c4.34-.09,8.68-.15,13-.27a34.19,34.19,0,0,0,4-.33,7.73,7.73,0,0,1,4.13.18,1.3,1.3,0,0,0,1.08-.14A2.8,2.8,0,0,0,112.5,153.37Zm-3.28.41c-2.28.31-4.59.71-6.89.91-1.41.13-2.83-.08-4.24,0-2.2.07-4.4.21-6.58.36-2.91.18-3.32-.34-2.12-3a13.9,13.9,0,0,1,2.29-3.8,8.5,8.5,0,0,1,5.89-3c1.29-.07,2.58-.19,3.87-.27v.08a17.53,17.53,0,0,1,2.51,0,4.83,4.83,0,0,1,3.78,2.45,55.19,55.19,0,0,1,2.32,5.07C110.43,153.57,110.34,153.61,109.22,153.78Z"/><path d="M167.41,153.2a15.31,15.31,0,0,0-4-6.79,10.64,10.64,0,0,0-9.09-3.24c-3.26.41-6.44,1-9.26,3-.94.68-1.11,1.72-1.89,2.37a6.19,6.19,0,0,0-1.89,3.3c-.19.68-.5,1.33-.69,2a3.79,3.79,0,0,0,0,2.83,5.21,5.21,0,0,1,.38,1.68c.2,1.6.35,3.22.58,4.82.18,1.12.52,2.2.7,3.34a9,9,0,0,0,2.81,5.17c.83.73,1.22,1.64,1.91,2.35a10.24,10.24,0,0,0,2.7,1.45c.1.06.16.19.27.27,1.62,1.64,3.65,1.33,5.6,1a16.7,16.7,0,0,0,3.31-1.1c1.55-.63,3.24-1.19,4.25-2.6,1.73-2.37,3.18-4.86,3.06-8a10.81,10.81,0,0,1,.43-3.08,45.09,45.09,0,0,0,1.06-6.46A13.27,13.27,0,0,0,167.41,153.2Zm-2.24,7.5c-.08.58-.15,1.16-.23,1.74-.15,1-.27,1.91-.44,2.87a3.46,3.46,0,0,0-.18.74c.2,2.54-1.44,4.3-2.66,6.21a2.2,2.2,0,0,1-.69.67,26.17,26.17,0,0,1-6.56,2.16,4.84,4.84,0,0,1-3.47-.87c-1.41-.92-2.78-1.91-4.15-2.91a6.71,6.71,0,0,1-2.74-4.53,7.16,7.16,0,0,0-.31-1.33,20.58,20.58,0,0,1-1.06-6.52,21.56,21.56,0,0,1,1.45-9.28,6.85,6.85,0,0,1,4.57-4,39.67,39.67,0,0,1,4.57-1c4-.66,7.21.86,9.91,3.66a4.73,4.73,0,0,1,.64,1,21.85,21.85,0,0,1,1.54,3.34,12.66,12.66,0,0,1,.43,3.84A35.47,35.47,0,0,1,165.17,160.7Z"/><line class="cls-2" x1="125.17" y1="164.5" x2="125.68" y2="157.74"/></g></g></svg>