<svg xmlns="http://www.w3.org/2000/svg" viewBox="0 0 265.38 36.2"><defs><style>.cls-1{fill:#fff;}.cls-2{fill:#006278;}.cls-3{fill:none;}</style></defs><g id="Lager_2" data-name="Lager 2"><g id="Lager_1-2" data-name="Lager 1"><path d="M24.23,31c0-.69-.25-1.37-.23-2a52.73,52.73,0,0,0-.31-8,8.81,8.81,0,0,1,0-1c0-2.61.19-3.68-.45-5.67a6.1,6.1,0,0,0-2.78-3.4c-.3-.18-.59-.36-.87-.56a4.87,4.87,0,0,0-1.9-.74A20.48,20.48,0,0,0,15,9.39,10,10,0,0,0,9.9,10.51a18.88,18.88,0,0,0-2,1.33,7.65,7.65,0,0,0-.74.65c-.07-.32-.17-.65-.21-1s0-.69,0-1c0-.63,0-1.25,0-1.87A8.88,8.88,0,0,1,7,6.09c.12-.68.1-1.38.23-2A6.9,6.9,0,0,0,7,2c0-.12-.13-.32-.23-.33A18,18,0,0,0,4.84,1.4c-.49,0-1,.08-1.48.09-.68,0-1.37,0-2,0C.44,1.54.25,1.8.21,2.66c0,1.1-.13,2.19-.2,3.28A5.23,5.23,0,0,0,0,6.5c0,1,.14,2.11.17,3.17.05,1.5,0,3,.11,4.49.1,2.13.08,4.25,0,6.37-.07,1.46,0,2.93,0,4.4,0,.91,0,1.81,0,2.72a28.68,28.68,0,0,1,.14,3.81A23.5,23.5,0,0,0,.6,34.72c0,.32.13.46.45.44s.74-.08,1.12-.09a5.5,5.5,0,0,1,1.86,0,6.81,6.81,0,0,0,2.49.26.87.87,0,0,0,.94-.82c0-.22,0-.44,0-.66,0-1.5-.08-3-.09-4.5,0-2,0-4.06,0-6.09H7.18c.12-1.33.21-2.67.35-4a3.83,3.83,0,0,1,.37-1.44,7,7,0,0,1,2.68-2.24.74.74,0,0,1,.36-.09c.77-.09,1.55-.18,2.32-.23a2.57,2.57,0,0,1,2.57,1.65,20.37,20.37,0,0,1,.7,3.28,5,5,0,0,1,.09,1c0,1,0,2,0,3,0,.62,0,1.25.09,1.87a10.84,10.84,0,0,1,.07,3.81,1.86,1.86,0,0,0,0,.74,11.18,11.18,0,0,1,0,2.89c-.08.84.23,1.51.88,1.55s.94,0,1.62,0a13.31,13.31,0,0,1,2.68.11,5.7,5.7,0,0,0,.83.1c.83.05,1.35-.27,1.42-1.09A25.8,25.8,0,0,0,24.23,31ZM23,34.41a6.67,6.67,0,0,1-1.47-.2,3.06,3.06,0,0,0-1.28,0,8.69,8.69,0,0,1-1.77,0,.46.46,0,0,1-.48-.48,19.87,19.87,0,0,1-.07-2,2.56,2.56,0,0,0-.16-1.63c-.17-.28-.05-.73-.08-1.1-.08-1-.2-1.93-.24-2.9-.07-1.38-.12-2.77-.13-4.16A15.67,15.67,0,0,0,17,18.56a8.53,8.53,0,0,0-.46-2.08A4.38,4.38,0,0,0,15,14.83a1.09,1.09,0,0,0-.49-.25c-1.11-.07-2.22-.52-3.31.08a3.19,3.19,0,0,1-.82.21c-.18.05-.43.07-.51.19-.56.8-1.56,1-2.19,1.72-.38.43-.81.77-.65,1.43a.74.74,0,0,1-.06.46,13.17,13.17,0,0,0-.34,4.92c0,.84,0,1.69.06,2.53.12,1.3-.15,2.62,0,3.91s-.17,2.68.06,4c.06.33,0,.47-.37.48a5.37,5.37,0,0,1-1.38.05,12.81,12.81,0,0,0-3.26-.28c-.64,0-.6,0-.74-.66a7.65,7.65,0,0,1,0-2.24c.07-.83,0-1.68,0-2.52C1,27.45,1,26,1,24.64c0-1.09-.11-2.19-.12-3.28,0-.81.1-1.62.13-2.43,0-.59,0-1.18,0-1.76,0-1.69-.07-3.38-.12-5.07C.8,10.26.71,8.42.64,6.58a4.85,4.85,0,0,1,0-.66C.7,5,.78,4,.85,3c0-.63.07-.69.71-.73s1.25,0,1.87,0v0c.72,0,1.43,0,2.15,0,.56,0,.66.17.58.72a7.84,7.84,0,0,0,.11,2.51,9.22,9.22,0,0,1,0,2C6.18,8.22,6,9,6,9.78c0,1.09.09,2.18.16,3.27a4.21,4.21,0,0,0,.19,1c.08.28.32.32.47.08A9.81,9.81,0,0,1,10.68,11a7.2,7.2,0,0,1,2.42-.69,16.18,16.18,0,0,1,2.7-.09c.62,0,1.24.12,1.86.19a1.74,1.74,0,0,1,.45.11,6.68,6.68,0,0,1,4.21,3.85c.09.23.25.43.34.66a4.16,4.16,0,0,1,.19,1.76A8.57,8.57,0,0,0,23,18c.05,1-.14.71-.05,1.85,0,.43.13.86.16,1.29.09,1.21.22,2.43.23,3.64A32.55,32.55,0,0,1,23.25,29a11.09,11.09,0,0,0,.11,2.14c.07.86.17,1.73.21,2.59C23.6,34.32,23.54,34.4,23,34.41Z"/><path class="cls-1" d="M23.57,33.73c0,.59,0,.67-.61.68a6.67,6.67,0,0,1-1.47-.2,3.06,3.06,0,0,0-1.28,0,8.69,8.69,0,0,1-1.77,0,.46.46,0,0,1-.48-.48,19.87,19.87,0,0,1-.07-2,2.56,2.56,0,0,0-.16-1.63c-.17-.28-.05-.73-.08-1.1-.08-1-.2-1.93-.24-2.9-.07-1.38-.12-2.77-.13-4.16A15.67,15.67,0,0,0,17,18.56a8.53,8.53,0,0,0-.46-2.08A4.38,4.38,0,0,0,15,14.83a1.09,1.09,0,0,0-.49-.25c-1.11-.07-2.22-.52-3.31.08a3.19,3.19,0,0,1-.82.21c-.18.05-.43.07-.51.19-.56.8-1.56,1-2.19,1.72-.38.43-.81.77-.65,1.43a.74.74,0,0,1-.06.46,13.17,13.17,0,0,0-.34,4.92c0,.84,0,1.69.06,2.53.12,1.3-.15,2.62,0,3.91s-.17,2.68.06,4c.06.33,0,.47-.37.48a5.37,5.37,0,0,1-1.38.05,12.81,12.81,0,0,0-3.26-.28c-.64,0-.6,0-.74-.66a7.65,7.65,0,0,1,0-2.24c.07-.83,0-1.68,0-2.52C1,27.45,1,26,1,24.64c0-1.09-.11-2.19-.12-3.28,0-.81.1-1.62.13-2.43,0-.59,0-1.18,0-1.76,0-1.69-.07-3.38-.12-5.07C.8,10.26.71,8.42.64,6.58a4.85,4.85,0,0,1,0-.66C.7,5,.78,4,.85,3c0-.63.07-.69.71-.73s1.25,0,1.87,0v0c.72,0,1.43,0,2.15,0,.56,0,.66.17.58.72a7.84,7.84,0,0,0,.11,2.51,9.22,9.22,0,0,1,0,2C6.18,8.22,6,9,6,9.78c0,1.09.09,2.18.16,3.27a4.21,4.21,0,0,0,.19,1c.08.28.32.32.47.08A9.81,9.81,0,0,1,10.68,11a7.2,7.2,0,0,1,2.42-.69,16.18,16.18,0,0,1,2.7-.09c.62,0,1.24.12,1.86.19a1.74,1.74,0,0,1,.45.11,6.68,6.68,0,0,1,4.21,3.85c.09.23.25.43.34.66a4.16,4.16,0,0,1,.19,1.76A8.57,8.57,0,0,0,23,18c.05,1-.14.71-.05,1.85,0,.43.13.86.16,1.29.09,1.21.22,2.43.23,3.64A32.55,32.55,0,0,1,23.25,29a11.09,11.09,0,0,0,.11,2.14C23.43,32,23.53,32.87,23.57,33.73Z"/><path d="M51.93,27.42c-1.21.13-2.41.33-3.62.44a4.44,4.44,0,0,1-2.11-.12.66.66,0,0,0-.89.29c-.1.16-.15.35-.26.5a3.41,3.41,0,0,1-2.88,1.61,18.53,18.53,0,0,1-3.63-.35,4.42,4.42,0,0,1-2.87-2,6.14,6.14,0,0,1-.9-2c-.14-.71-.18-.73.49-.88a3.5,3.5,0,0,1,.55-.09,60.4,60.4,0,0,1,11.25-.09c.87.1,1.74.14,2.62.18a12.41,12.41,0,0,0,1.49,0,1.5,1.5,0,0,1,1,.2l.64-.13a.73.73,0,0,1,.17-.39c.13-.17.07-.53,0-.79a5.53,5.53,0,0,1-.25-1,20.52,20.52,0,0,0-.51-4.28,8.57,8.57,0,0,0-.63-2.24,9.82,9.82,0,0,0-2.53-3.43,12.92,12.92,0,0,0-1.8-1.62A9.39,9.39,0,0,0,43.27,9.8c-.68,0-1.36-.2-2.05-.22a20.82,20.82,0,0,0-3.16,0,22.58,22.58,0,0,0-3,.79,3.39,3.39,0,0,0-.68.29L32,12a5.3,5.3,0,0,0-2.22,2.08c-.44.82-.87,1.65-1.29,2.48a2.94,2.94,0,0,0-.19.72c-.21.88-.44,1.75-.62,2.63a5.36,5.36,0,0,0-.1,1.2c0,.9.14,1.8.15,2.7s-.13,1.49-.11,2.24.19,1.61.28,2.42A2,2,0,0,0,28.7,30a1.72,1.72,0,0,1,.39.62,6.94,6.94,0,0,0,2.23,2.72,18.49,18.49,0,0,0,1.58,1.14,8.55,8.55,0,0,0,3,1c.65.05,1.3.14,1.95.23l3.31.5a17.5,17.5,0,0,0,2.27-.27,15.63,15.63,0,0,0,4-1.31c.54-.3,1.1-.57,1.61-.92a9.34,9.34,0,0,0,4-4.93C53.3,27.85,52.9,27.31,51.93,27.42Zm-.71,2.9c-.49.58-.91,1.2-1.43,1.74A11.2,11.2,0,0,1,47,33.92a13.68,13.68,0,0,1-3.62,1.22,9.18,9.18,0,0,1-3,.16,49.33,49.33,0,0,1-5-.72,4.77,4.77,0,0,1-2.5-1.21,10.11,10.11,0,0,0-.88-.71,5.51,5.51,0,0,1-1.63-1.89c-.3-.58-.77-1.07-1.1-1.63a3.24,3.24,0,0,1-.32-1c-.12-.52-.18-1-.28-1.56a6.72,6.72,0,0,1,0-2.41,7.55,7.55,0,0,0,0-2.88,3.12,3.12,0,0,1,0-1.29c.26-1.12.56-2.24.92-3.33a7,7,0,0,1,1.79-2.92,9.63,9.63,0,0,1,3.56-2.3c.45-.15.89-.32,1.34-.44a11.85,11.85,0,0,1,5.16-.46c.86.15,1.75.08,2.61.25a6.25,6.25,0,0,1,3.64,1.9,5.08,5.08,0,0,0,.68.63,9.25,9.25,0,0,1,2.32,3,10.68,10.68,0,0,1,1,3.59c.18,1.2.24,2.41.36,3.61,0,.43-.06.57-.51.6-.63,0-1.25,0-1.88,0a.11.11,0,0,1,0,.05c-.89-.09-1.8-.14-2.69-.26a59.67,59.67,0,0,0-7.68-.13,31.7,31.7,0,0,1-4.57.09c-.86-.14-1.34.49-1.14,1.34A7.81,7.81,0,0,0,34,26.62a15.58,15.58,0,0,0,1.13,2,4.44,4.44,0,0,0,2.64,1.8,15.39,15.39,0,0,0,3.14.53,25.89,25.89,0,0,0,3.72-.29,1.64,1.64,0,0,0,1.27-1.13,3,3,0,0,1,.24-.61.69.69,0,0,1,.44-.26c1.3-.13,2.61-.24,3.91-.35a6.32,6.32,0,0,1,.75-.06c.41,0,.58.16.54.56A2.64,2.64,0,0,1,51.22,30.32Z"/><path class="cls-1" d="M34.61,23.87a31.7,31.7,0,0,0,4.57-.09,59.67,59.67,0,0,1,7.68.13c.89.12,1.8.17,2.69.26a.11.11,0,0,0,0-.05c.63,0,1.25,0,1.88,0,.45,0,.55-.17.51-.6-.12-1.2-.18-2.41-.36-3.61a10.68,10.68,0,0,0-1-3.59,9.25,9.25,0,0,0-2.32-3,5.08,5.08,0,0,1-.68-.63A6.25,6.25,0,0,0,44,10.76c-.86-.17-1.75-.1-2.61-.25a11.85,11.85,0,0,0-5.16.46c-.45.12-.89.29-1.34.44a9.63,9.63,0,0,0-3.56,2.3,7,7,0,0,0-1.79,2.92c-.36,1.09-.66,2.21-.92,3.33a3.12,3.12,0,0,0,0,1.29,7.55,7.55,0,0,1,0,2.88,6.72,6.72,0,0,0,0,2.41c.1.52.16,1,.28,1.56a3.24,3.24,0,0,0,.32,1c.33.56.8,1.05,1.1,1.63A5.51,5.51,0,0,0,32,32.66a10.11,10.11,0,0,1,.88.71,4.77,4.77,0,0,0,2.5,1.21,49.33,49.33,0,0,0,5,.72,9.18,9.18,0,0,0,3-.16A13.68,13.68,0,0,0,47,33.92a11.2,11.2,0,0,0,2.8-1.86c.52-.54.94-1.16,1.43-1.74a2.64,2.64,0,0,0,.51-1.47c0-.4-.13-.56-.54-.56a6.32,6.32,0,0,0-.75.06c-1.3.11-2.61.22-3.91.35a.69.69,0,0,0-.44.26,3,3,0,0,0-.24.61,1.64,1.64,0,0,1-1.27,1.13,25.89,25.89,0,0,1-3.72.29,15.39,15.39,0,0,1-3.14-.53,4.44,4.44,0,0,1-2.64-1.8,15.58,15.58,0,0,1-1.13-2,7.81,7.81,0,0,1-.48-1.41C33.27,24.36,33.75,23.73,34.61,23.87ZM34.16,20a4.69,4.69,0,0,1,.61-1.75,8.31,8.31,0,0,0,.88-1.53,5.17,5.17,0,0,1,2.42-2.25,3.22,3.22,0,0,1,1.18-.16v0c.68,0,1.36,0,2,0a3.89,3.89,0,0,1,2.87,1.38,7.51,7.51,0,0,1,2,3.13,3.36,3.36,0,0,0,.44.81c.27.4.4,1,.2,1.18A.78.78,0,0,1,45.7,21a.72.72,0,0,0-.44,0l-2.69.26a7.75,7.75,0,0,1-2-.11c-1-.15-2-.12-3-.19s-1.91-.19-2.87-.26A.5.5,0,0,1,34.16,20Z"/><path class="cls-2" d="M105,25.75l-.09,0c-.55.1-1.1.22-1.66.3-.86.14-1.73.22-2.59.38-1.57.27-3.12.59-4.7.87-4.56.81-7.46,1.25-11,1.84l-1.62.25-.87.14a4.09,4.09,0,0,0,.18.49l.08.17a7.5,7.5,0,0,1,.16.31,4.05,4.05,0,0,0,.36.59l1-.23,1.5-.35c.82-.18,1.65-.33,2.49-.46,1.5-.24,3-.42,4.52-.68,2.06-.35,4.11-.77,6.17-1.12,1.89-.33,3.78-.63,5.68-.93l1-.16a3.89,3.89,0,0,0,.09-.47,1.38,1.38,0,0,0,0-.2c0-.11,0-.22,0-.32s0-.38,0-.56C105.42,25.67,105.19,25.72,105,25.75Zm-.15.73a.08.08,0,0,1,0,.06,2,2,0,0,1-.09.33c-1.2.21-2.41.43-3.66.59-1,.13-2,.31-3,.48l-2.08.37L91.72,29c-2.26.37-4.49.78-6.78,1.08l-.35.06-.84.19,0,0L83.57,30l-.06-.12.19,0c1.54-.27,3.08-.55,4.63-.81l5.11-.82,6.2-1,5.2-.86A.75.75,0,0,1,104.8,26.48Zm-.43,1.64-.26,0c-1.49.23-3,.41-4.47.65-4.91.8-9.81,1.62-14.72,2.43l-.39.06-1.08.18c.16.2.33.39.5.58l1.17-.21.69-.12c1-.17,2-.26,3-.43s2.09-.4,3.14-.56c1.29-.21,2.6-.35,3.89-.56,2.19-.36,4.36-.78,6.55-1.13l1.24-.19,1.1-.15c.14-.25.27-.49.39-.75C104.9,28,104.64,28.08,104.37,28.12Zm.89-4.36-.26,0c-1.58.25-3.16.5-4.73.77-1,.18-2,.23-3,.5a29,29,0,0,1-3.5.59,18.15,18.15,0,0,0-2.59.36,39.25,39.25,0,0,1-5.24,1,15.86,15.86,0,0,0-3.22.83c-.26.1-.52.21-.77.33a6.61,6.61,0,0,1,.29.68c.24-.13.48-.26.73-.37l.52-.2A30.08,30.08,0,0,1,87,27.47c1.1-.22,2.21-.36,3.31-.53.4-.06.79-.08,1.19-.15L95.93,26c1.14-.19,2.28-.36,3.41-.57.68-.14,1.33-.41,2-.51,1.22-.19,2.44-.36,3.66-.52l.75-.11c0-.22,0-.43,0-.65Zm-21.54,6.5L83.57,30l-.9.2a7.5,7.5,0,0,1,.16.31l.92-.21Zm21.08-3.78a.08.08,0,0,1,0,.06l.07,0,.09,0Z"/><path class="cls-2" d="M105.83,17.88l-.59.09-.14,0c-2.7.43-5.4.91-8.1,1.39-.77.14-1.52.34-2.29.48-3.26.58-6.53,1.13-9.79,1.73-1.22.22-2.43.49-3.63.76l-.81.19c0-.14,0-.29,0-.44s0-.24,0-.36l.77-.15c1.77-.35,3.55-.65,5.32-1s3.43-.7,5.14-1c.52-.1,1.07-.1,1.58-.2,2-.39,4-.81,6-1.2.8-.15,1.6-.24,2.4-.36a1.23,1.23,0,0,0,.19,0,9.34,9.34,0,0,1,3-.6l.7-.08h0q.12.36.21.72A.09.09,0,0,0,105.83,17.88Z"/><path class="cls-2" d="M104,13.72l-.86.19c-.51.12-1,.22-1.54.32-1.31.27-2.63.5-3.95.75-.52.1-1,.22-1.57.31-2.85.52-5.71,1.05-8.57,1.56-1.54.28-3.08.52-4.61.82a7.92,7.92,0,0,0-1.06.29l-.74.23-.13.06c0-.27.08-.52.14-.78l.78-.25.12,0c.28-.08,1.06-.29,1.33-.33a14,14,0,0,0,1.42-.2L88,16.06c1.07-.2,2.13-.49,3.2-.59,1.72-.16,3.35-.76,5-1,1-.17,2-.37,3-.47a16,16,0,0,0,2.65-.56l.66-.15h0c.32-.07.65-.12,1-.16A7.64,7.64,0,0,1,104,13.72Z"/><path class="cls-2" d="M105.18,16l-.74.08a17.71,17.71,0,0,0-2.49.5,12.75,12.75,0,0,1-2.21.37,30.94,30.94,0,0,0-4.6.8c-.37.09-.75.07-1.12.13-1.81.3-3.62.59-5.43.95-2.29.45-4.57.95-6.85,1.43l-.27.07a3.87,3.87,0,0,0-.77.26c0-.22,0-.44,0-.66a.53.53,0,0,0,0-.12,5.41,5.41,0,0,1,.8-.28,4.88,4.88,0,0,1,.55-.12c2-.33,4-.67,6-1.05,2.23-.42,4.46-.9,6.7-1.31,2.06-.37,4.13-.68,6.19-1,1-.17,2.07-.36,3.11-.54h0l.7-.13C105,15.6,105.08,15.81,105.18,16Z"/><path class="cls-2" d="M97.38,9.12a8.93,8.93,0,0,1-1.16.11,10.57,10.57,0,0,0-1.65.29l-.73.16h0l-3.74.8-2.81.58h0l-.74.16-1.41.31a9.13,9.13,0,0,1,1.41-1l.13-.06.79-.16c2-.47,4.07-.95,6.11-1.4.36,0,.72,0,1.08,0,.75,0,1.51,0,2.25.15Z"/><path class="cls-2" d="M102.24,12l-.94.19-.4.06c-3.12.47-6.22,1.06-9.33,1.62a3.76,3.76,0,0,0-1.15.36,10.83,10.83,0,0,1-3.93,1.17,21.4,21.4,0,0,0-4.28,1h0c-.33.11-.65.24-1,.38a9.37,9.37,0,0,1,.31-.89h0c.34-.12.68-.24,1-.33l.18-.05c1.85-.46,3.73-.8,5.59-1.22a7.65,7.65,0,0,0,1.59-.54,16.74,16.74,0,0,1,2.3-.76c1.86-.58,3.82-.58,5.69-1.11.48-.13,1-.06,1.49-.15s.76-.16,1.15-.26.63-.15,1-.2h0c.09.08.17.17.26.26S102.09,11.86,102.24,12Z"/><path class="cls-2" d="M106,19.39q0,.34,0,.69l-.83.14c-2.2.37-4.42.74-6.62,1.13s-4.17.76-6.27,1.12c-1.71.29-3.45.52-5.17.82-1.56.28-3.12.62-4.68.94-.4.09-.8.15-1.21.22l-.77.14c0-.22,0-.46,0-.69l.37-.07.4,0c2.91-.4,5.78-.9,8.66-1.49,1.22-.25,2.47-.35,3.7-.56,1-.19,2.06-.47,3.11-.65,1.5-.26,3-.47,4.53-.71a5.83,5.83,0,0,0,1.46-.31,8.32,8.32,0,0,1,2.59-.58Q105.64,19.45,106,19.39Z"/><path class="cls-2" d="M105.93,21.56c0,.25-.05.51-.07.76l-.83.14-.43.07c-1.21.16-2.42.27-3.62.45s-2.42.48-3.67.57A22.71,22.71,0,0,0,95,24c-1.47.26-3,.48-4.42.73s-3.06.58-4.59.85c-.43.08-.88.07-1.31.15-.92.17-1.83.37-2.75.56h-.13a1.76,1.76,0,0,1-.51,0c-.09,0-.2-.16-.23-.26a.44.44,0,0,1,.12-.32c.1-.06.2-.1.3-.15a1.18,1.18,0,0,1,.3-.1,17.14,17.14,0,0,1,1.85-.34c2.31-.21,4.57-.69,6.85-1.08,1.42-.24,2.84-.43,4.26-.67.71-.12,1.4-.31,2.11-.44,1-.17,2-.39,3-.47a30.26,30.26,0,0,0,4.24-.71c.3-.06.6-.11.9-.14Z"/><path class="cls-2" d="M100.34,10.34h-.06L99,10.59h0c-1.27.23-2.55.47-3.82.72-2.75.56-5.5,1.15-8.24,1.73L84,13.63l-1.39.29a6.14,6.14,0,0,1,.54-.72l0,0,1.64-.34,3.37-.67c1.47-.29,2.94-.56,4.41-.84l5.54-1.07.16,0c.48-.09,1-.16,1.46-.24C99.94,10.08,100.14,10.21,100.34,10.34Z"/><path class="cls-2" d="M104.25,29.66q-.16.3-.36.6h0l-1.21.2-6.8,1.18c-1.23.21-2.46.39-3.7.6-1.68.28-3.36.55-5,.86l-1.3.24-.18,0-.07,0c-.27-.17-.53-.35-.78-.53l1.41-.22,4.68-.73c1.45-.23,2.89-.52,4.34-.75,1.7-.28,3.4-.52,5.09-.79l2.72-.46Z"/><path class="cls-2" d="M103.13,31.42c-.13.19-.27.37-.41.55h0l-1.31.2c-2.09.33-4.18.75-6.26,1.12-1.68.3-3.36.59-5,.91h0L88,34.61l-.22,0-.24-.14L87,34.2,88.37,34l5.84-1c2.19-.38,4.38-.71,6.57-1.08l1.06-.19Z"/><path class="cls-2" d="M101.19,33.78a.86.86,0,0,1-.13.14,2.3,2.3,0,0,1-.73.52l-5.45.76c-1.23.17-2.48.28-3.7.47a3.55,3.55,0,0,0-.47.09,2.23,2.23,0,0,0-.65-.37l6.81-1Z"/><path class="cls-2" d="M105.83,17.88a.09.09,0,0,1,0-.05q-.09-.36-.21-.72a10.12,10.12,0,0,0-.43-1.08c-.1-.22-.21-.43-.32-.64-.19-.39-.4-.77-.6-1.17-.09-.17-.19-.33-.29-.5a7.64,7.64,0,0,0-.51-.62c-.2-.21-.41-.4-.63-.59s-.4-.34-.59-.52-.3-.28-.45-.43-.17-.18-.26-.26h0a8.13,8.13,0,0,0-1.18-1c-.2-.13-.4-.26-.61-.37a8.14,8.14,0,0,0-2.35-.85L96.89,9c-.74-.1-1.5-.12-2.25-.15-.36,0-.72,0-1.08,0L93,8.9c-1.14.12-2.28.38-3.42.41a6.75,6.75,0,0,0-2.89,1.12l-.13.06a9.13,9.13,0,0,0-1.41,1l-.08.06c-.61.46-1.13,1.06-1.8,1.47,0,0-.06.07-.09.11l0,0a6.14,6.14,0,0,0-.54.72,11.13,11.13,0,0,0-1,1.94l0,.06h0a9.37,9.37,0,0,0-.31.89h0c0,.21-.11.42-.16.64s-.1.51-.14.78c-.09.52-.14,1.05-.18,1.59a.53.53,0,0,1,0,.12c0,.22,0,.44,0,.66,0,.38-.07.75-.12,1.12,0,.12,0,.24,0,.36s0,.3,0,.44a7.81,7.81,0,0,0,0,1.36c0,.23,0,.47,0,.69a7,7,0,0,0,.92,2.66c.17.29.35.59.5.9a6.61,6.61,0,0,1,.29.68l.09.28a3.19,3.19,0,0,0,.13.44,4.09,4.09,0,0,0,.18.49l.08.17a7.5,7.5,0,0,1,.16.31,4.05,4.05,0,0,0,.36.59,2.26,2.26,0,0,0,.26.37c.16.2.33.39.5.58a10.26,10.26,0,0,0,.86.75c.25.18.51.36.78.53l.07,0L87,34.2l.54.32.24.14a3.94,3.94,0,0,0,.85.36c.49.15,1,.2,1.48.37a2.23,2.23,0,0,1,.65.37.1.1,0,0,1,.05,0,.39.39,0,0,0,.26.09,14,14,0,0,0,2.34,0,53.55,53.55,0,0,0,6.52-1.25l.45-.17a2.66,2.66,0,0,0,.74-.52l.13-.14A23.63,23.63,0,0,0,102.72,32c.14-.18.28-.36.41-.55.27-.37.53-.76.76-1.15h0q.19-.3.36-.6c.11-.19.22-.38.32-.57l.2-.38c.14-.25.27-.49.39-.75a4.41,4.41,0,0,0,.32-.78,3.89,3.89,0,0,0,.09-.47,1.38,1.38,0,0,0,0-.2c0-.11,0-.22,0-.32s0-.38,0-.56l.09-1.31c0-.22,0-.43,0-.65s0-.6.07-.9h-.05c0-.14,0-.29,0-.44s0-.51.07-.76,0-.38,0-.57,0-.61,0-.91,0-.46,0-.69A9.93,9.93,0,0,0,105.83,17.88Zm-.64,2.47c0,.43-.09.87-.11,1.3,0,.27,0,.54,0,.81,0,.45,0,.9,0,1.34v.63c0,.13,0,.26,0,.39a5.66,5.66,0,0,1-.06.93,3.59,3.59,0,0,1-.11.57.75.75,0,0,1,0,.16.08.08,0,0,1,0,.06,2,2,0,0,1-.09.33c0,.16-.11.31-.17.47a7.84,7.84,0,0,1-.41.82c-.1.17-.2.34-.32.51l-.12.19c-.22.33-.42.66-.62,1s-.25.41-.37.61a8.13,8.13,0,0,1-.52.78c-.1.14-.21.28-.32.41s-.29.35-.44.51l-.85.89a1.23,1.23,0,0,1-.56.33,21.1,21.1,0,0,1-3.34.8c-.77.08-1.53.28-2.29.43l-1.64.28c-.83.26-1.46-.32-2.14-.56a4.19,4.19,0,0,0-.47-.14h0a1.65,1.65,0,0,0-.59-.08A2.51,2.51,0,0,1,88.37,34a3,3,0,0,1-1-.65,1.5,1.5,0,0,0-.25-.19,2.25,2.25,0,0,0-.51-.31l-.41-.21a6.61,6.61,0,0,1-1.1-.74,5.12,5.12,0,0,1-.59-.55,3.7,3.7,0,0,1-.37-.42,4.57,4.57,0,0,1-.41-.57l0,0L83.57,30l-.06-.12a4.23,4.23,0,0,1-.23-.48,4.34,4.34,0,0,1-.2-.5c-.06-.15-.11-.3-.16-.45s-.16-.43-.25-.64a5.92,5.92,0,0,0-.58-1.12,2.5,2.5,0,0,1-.25-.41,4.32,4.32,0,0,1-.32-.69,5.06,5.06,0,0,1-.27-1.15,4.91,4.91,0,0,1,0-.67c0-.18,0-.36,0-.54s0-.59.07-.89l.06-.76q0-.61.12-1.23c0-.27,0-.53.09-.8.07-.54.14-1.07.25-1.6a2.68,2.68,0,0,1,0-.3c0-.17.07-.32.12-.48a5.79,5.79,0,0,1,.23-.74h0a5.23,5.23,0,0,1,.37-.84,8,8,0,0,1,1.39-2l.23-.25c.19-.19.39-.37.59-.55a18.65,18.65,0,0,1,2.48-1.77h0l.62-.37A7.24,7.24,0,0,1,91.25,10c.39,0,.8-.07,1.19-.13s.93-.14,1.39-.17h0a6,6,0,0,1,1.58.07,12.38,12.38,0,0,1,2.69.5.35.35,0,0,1,.14.06c.23.1.46.2.7.28h0a5.84,5.84,0,0,1,1.07.51,5.39,5.39,0,0,1,.54.4c.25.22.49.45.73.68l.34.33c.17.14.28.36.45.47a3.73,3.73,0,0,1,.38.28h0a4.82,4.82,0,0,1,.63.65,9.31,9.31,0,0,1,1,1.61l.3.57s0,0,0,0a6.37,6.37,0,0,1,.46,1.08,6.24,6.24,0,0,1,.2.8,6.79,6.79,0,0,1,.15,1.49,6.13,6.13,0,0,1,0,.74A.57.57,0,0,1,105.19,20.35Z"/><path class="cls-2" d="M83.72,30.26l-.61.11-.29.07a.34.34,0,0,1-.06-.06.85.85,0,0,1-.25-.33h.08l.92-.15.06.12Z"/><path class="cls-2" d="M105.62,26.19c0,.1,0,.21,0,.32a1.38,1.38,0,0,1,0,.2l-.35.06-.53.1a2,2,0,0,0,.09-.33.08.08,0,0,0,0-.06.75.75,0,0,0,0-.16Z"/><path d="M62.51,1.39h0c-1.24,0-2.48.09-3.73.14a10.27,10.27,0,0,1-1.66.05c-.74-.1-.79-.14-1,.54A2.53,2.53,0,0,0,56,3c0,.53.18,1.05.18,1.58,0,3.07,0,6.13,0,9.19,0,1-.07,1.94-.09,2.9,0,.6,0,1.19,0,1.78s-.06,1.31,0,2c.07,2,.21,4,.26,6.06s0,3.93,0,5.9h.06c0,.69-.09,1.37-.14,2.06a.62.62,0,0,0,.73.72c.65-.07,1.29-.18,1.94-.26a3.56,3.56,0,0,1,1.29-.07,9.54,9.54,0,0,0,2.33-.07.53.53,0,0,0,.57-.51c0-.5.08-1,.08-1.49,0-1.63-.07-3.25-.06-4.87,0-2.44.1-4.88.12-7.32,0-4.16,0-8.32.06-12.48,0-.91,0-1.81.06-2.72a11.45,11.45,0,0,1,.07-3C63.58,1.93,63,1.39,62.51,1.39Zm0,3.11c0,1.53,0,3.05,0,4.58,0,1.74-.11,3.48-.13,5.23,0,.8.06,1.61.09,2.42,0,.16,0,.31,0,.47,0,1.24,0,2.49,0,3.73a23.33,23.33,0,0,1-.16,2.89,27.47,27.47,0,0,0,0,3.27c0,1.59.07,3.18.08,4.78a3.85,3.85,0,0,1-.11.83c-.15.94-.22,1.08-1.11.95a15.94,15.94,0,0,0-2.85.31c-.24,0-.49.08-.74.11s-.5-.14-.5-.48v-5.9h.1Q57,24,56.82,20.38c0-.4,0-.81,0-1.21l.06-4.78c0-2.15.08-4.3.08-6.45,0-1.47-.08-2.93-.12-4.4,0-.6.11-.84.72-1a7.88,7.88,0,0,1,1.38-.16c.7,0,1.41-.07,2.12-.1a6.26,6.26,0,0,1,.75,0c.79.06.8.12.7.93A9.16,9.16,0,0,0,62.53,4.5Z"/><path class="cls-1" d="M62.53,4.5c0,1.53,0,3.05,0,4.58,0,1.74-.11,3.48-.13,5.23,0,.8.06,1.61.09,2.42,0,.16,0,.31,0,.47,0,1.24,0,2.49,0,3.73a23.33,23.33,0,0,1-.16,2.89,27.47,27.47,0,0,0,0,3.27c0,1.59.07,3.18.08,4.78a3.85,3.85,0,0,1-.11.83c-.15.94-.22,1.08-1.11.95a15.94,15.94,0,0,0-2.85.31c-.24,0-.49.08-.74.11s-.5-.14-.5-.48v-5.9h.1Q57,24,56.82,20.38c0-.4,0-.81,0-1.21l.06-4.78c0-2.15.08-4.3.08-6.45,0-1.47-.08-2.93-.12-4.4,0-.6.11-.84.72-1a7.88,7.88,0,0,1,1.38-.16c.7,0,1.41-.07,2.12-.1a6.26,6.26,0,0,1,.75,0c.79.06.8.12.7.93A9.16,9.16,0,0,0,62.53,4.5Z"/><path d="M76.14,29.14q0-.42,0-.84c0-1.62-.07-3.25-.1-4.87,0-.47,0-.94,0-1.41,0-2.22.07-4.43.09-6.65,0-2,0-4,0-6,0-1.15.12-2.3.19-3.46h0c0-.25,0-.5,0-.75a12.68,12.68,0,0,0-.45-3.41c0-.14-.09-.26-.13-.35H69.57c-.18.11-.23.3-.2.64.12,1.52.23,3,.34,4.56,0,.41,0,.81,0,1.22a20.13,20.13,0,0,1,.12,2.05,51,51,0,0,0-.23,7,1.33,1.33,0,0,1,0,.28A29.21,29.21,0,0,0,69.5,22a9.65,9.65,0,0,1,0,2.89,2.67,2.67,0,0,0,0,.56c0,1.43.15,2.86.14,4.29s-.13,2.79-.19,4.19a.93.93,0,0,0,1,1l2.24,0,3.54-.08h0V31.88C76.27,31,76.21,30.05,76.14,29.14Zm-1.31,4.33c-.9.07-1.79.18-2.69.27,0,0,0-.07,0-.1-.43,0-.87.07-1.31.08s-.54-.1-.53-.55c0-.84.06-1.68.07-2.52,0-1.84,0-3.68,0-5.52s-.09-3.43-.11-5.15c0-.53,0-1.06,0-1.59,0-.84,0-1.69,0-2.53,0-1.21.07-2.43.14-3.64a20.47,20.47,0,0,0,0-4.76,27.79,27.79,0,0,1-.14-3.54c0-.44-.07-.87-.08-1.31,0-.23,0-.42.37-.42,1.3,0,2.59,0,3.89-.07.51,0,.68.12.74.61a15.54,15.54,0,0,1,.14,2c0,3-.09,6-.15,9.05-.05,2.45-.13,4.9-.14,7.35,0,1.09.13,2.18.2,3.27a6.12,6.12,0,0,1,0,.74,55,55,0,0,0,.26,6.91c0,.15,0,.31,0,.46C75.69,33.64,75.58,33.41,74.83,33.47Z"/><path class="cls-1" d="M74.83,33.47c-.9.07-1.79.18-2.69.27,0,0,0-.07,0-.1-.43,0-.87.07-1.31.08s-.54-.1-.53-.55c0-.84.06-1.68.07-2.52,0-1.84,0-3.68,0-5.52s-.09-3.43-.11-5.15c0-.53,0-1.06,0-1.59,0-.84,0-1.69,0-2.53,0-1.21.07-2.43.14-3.64a20.47,20.47,0,0,0,0-4.76,27.79,27.79,0,0,1-.14-3.54c0-.44-.07-.87-.08-1.31,0-.23,0-.42.37-.42,1.3,0,2.59,0,3.89-.07.51,0,.68.12.74.61a15.54,15.54,0,0,1,.14,2c0,3-.09,6-.15,9.05-.05,2.45-.13,4.9-.14,7.35,0,1.09.13,2.18.2,3.27a6.12,6.12,0,0,1,0,.74,55,55,0,0,0,.26,6.91c0,.15,0,.31,0,.46C75.69,33.64,75.58,33.41,74.83,33.47Z"/><path d="M46.59,19.64a3.36,3.36,0,0,1-.44-.81,7.51,7.51,0,0,0-2-3.13,3.89,3.89,0,0,0-2.87-1.38c-.68,0-1.36,0-2,0v0a3.22,3.22,0,0,0-1.18.16,5.17,5.17,0,0,0-2.42,2.25,8.31,8.31,0,0,1-.88,1.53A4.69,4.69,0,0,0,34.16,20a.5.5,0,0,0,.52.69c1,.07,1.91.19,2.87.26s2,0,3,.19a7.75,7.75,0,0,0,2,.11L45.26,21a.72.72,0,0,1,.44,0,.78.78,0,0,0,1.09-.18C47,20.61,46.86,20,46.59,19.64Zm-1.5.5a10.1,10.1,0,0,1-3.87.28c-.93-.09-1.87-.09-2.8-.13s-1.61-.07-2.42-.13c-.58,0-.78-.33-.58-.88A8.49,8.49,0,0,1,36,18.1c.38-.68.76-1.36,1.17-2a1.68,1.68,0,0,1,1.24-.76l2.22-.24a3,3,0,0,1,2.56,1,9.78,9.78,0,0,1,1.16,1.55c.38.64.69,1.32,1,2C45.5,19.86,45.4,20,45.09,20.14Z"/><path d="M264.59,32.16c-.67-1.09-1.24-2.24-1.9-3.33C261.83,27.41,261,26,260,24.64s-1.94-2.68-2.9-4a7.37,7.37,0,0,1-.62-.95,1.15,1.15,0,0,1,.15-1.39c.43-.46.86-.91,1.3-1.36s.86-.89,1.28-1.35a12.48,12.48,0,0,1,2.94-2.86,1.18,1.18,0,0,0,.22-.17,24.39,24.39,0,0,0,2.32-2.11c.38-.38.81-1.25.54-1.26-.61,0-1.51,0-2-.05-.73,0-1.42-.11-2.13-.06a28.3,28.3,0,0,1-3.16.28,1.49,1.49,0,0,0-1.58,1,7.62,7.62,0,0,1-1.31,1.91c-.51.58-1.06,1.14-1.62,1.68a18.6,18.6,0,0,0-2.59,2.43,6.94,6.94,0,0,1-1,1.06.54.54,0,0,1-.4.16c-.08,0-.16-.25-.16-.38,0-1.47-.15-2.94-.07-4.4a46.52,46.52,0,0,0,0-4.87,30.57,30.57,0,0,1,.34-6.55c.11-.64-.16-.87-.84-.84a16.15,16.15,0,0,1-2.6,0,5.82,5.82,0,0,0-2.56.08s-.06,0-.09,0a.66.66,0,0,0-.65.76c0,.83,0,1.67,0,2.51h.06c0,.63,0,1.25,0,1.88,0,2.24.1,4.49.11,6.73,0,1.88-.07,3.75-.08,5.63s0,3.5.06,5.25c0,1.13,0,2.25,0,3.37,0,.91-.12,1.81-.12,2.71,0,1.31,0,2.62.1,3.92a1.08,1.08,0,0,0,.3.73A.6.6,0,0,0,244,34a1.86,1.86,0,0,1,1.47-.44c1,.06,2,.11,3,.1s1.11-.23,1.09-1.16c0-1.53-.06-3.07-.07-4.6,0-.27-.33-1.54-.09-1.78s.49-.43.55-.5c.42-.45.84-.91,1.3-1.33a.44.44,0,0,1,.72.12c.29.45.56.9.82,1.36.56,1,1.06,2.06,1.68,3,.83,1.28,1.76,2.49,2.63,3.75.23.34,1.07,1.65,1.38,1.65l1,0,5.84-.09C265.58,34.1,264.8,32.51,264.59,32.16ZM263,33.35a7.2,7.2,0,0,1-.93,0c-1,0-2,0-3.06,0a.82.82,0,0,1-.52-.33c-.7-.91-1.38-1.84-2-2.78a19.44,19.44,0,0,1-2.13-3.4,27.37,27.37,0,0,0-2-3.36c-.41-.64-.81-.69-1.35-.16-.72.72-1.42,1.47-2.13,2.21a.91.91,0,0,0-.27.75,42.58,42.58,0,0,1,.12,5.87c0,.52-.25.73-.77.74-.3,0-.61,0-.91-.06a4.76,4.76,0,0,0-2.22.06.88.88,0,0,1-.28,0c-.63,0-.79-.13-.79-.72,0-1.25,0-2.5,0-3.74h-.05a29.33,29.33,0,0,0,0-3.38c-.23-2.05,0-4.11-.19-6.17-.08-1.08.05-2.17.07-3.26,0-.56,0-1.12,0-1.68,0-2.44.09-4.88,0-7.31,0-1.38.11-2.74.14-4.11,0-.93.35-1.23,1.25-1.2,1.09,0,2.17.07,3.26.13.34,0,.35.31.33.57-.05.86-.16,1.73-.16,2.59,0,1.37.1,2.74.09,4.11,0,2-.08,3.93-.13,5.89a2.13,2.13,0,0,0,0,.56,10.21,10.21,0,0,1,0,3.17,3.5,3.5,0,0,0,.09,1c0,.14.24.28.4.32s.27-.14.33-.26a5.43,5.43,0,0,1,1.56-1.94c.52-.43.91-1,1.41-1.49.88-.84,1.82-1.61,2.67-2.47s1.58-1.76,2.34-2.65c.07-.08,0-.24.07-.34a.68.68,0,0,1,.84-.5c.29.07.54.12.77-.12,0,0,.13-.09.17-.07.66.31,1.32-.13,2,0a12.4,12.4,0,0,0,1.93,0,1.69,1.69,0,0,1,.45,0c.34.09.41.37.16.63A8.3,8.3,0,0,1,263,11c-.31.25-.63.49-.95.73l-.75.53a4.87,4.87,0,0,0-.5.4c-.31.34-.59.72-.91,1.06-1.11,1.18-2.24,2.34-3.35,3.52-.34.36-.69.73-1,1.1a.77.77,0,0,0-.08,1.1,13.2,13.2,0,0,0,1,1.36,20.24,20.24,0,0,0,2.11,2.61,2.69,2.69,0,0,1,.68,1,16.32,16.32,0,0,0,2.22,3.67,1.41,1.41,0,0,1,.25.4,22.92,22.92,0,0,0,2,3.79,5.22,5.22,0,0,1,.32.86A8.08,8.08,0,0,1,263,33.35Z"/><path class="cls-1" d="M264,33.16a8.08,8.08,0,0,1-1,.19,7.2,7.2,0,0,1-.93,0c-1,0-2,0-3.06,0a.82.82,0,0,1-.52-.33c-.7-.91-1.38-1.84-2-2.78a19.44,19.44,0,0,1-2.13-3.4,27.37,27.37,0,0,0-2-3.36c-.41-.64-.81-.69-1.35-.16-.72.72-1.42,1.47-2.13,2.21a.91.91,0,0,0-.27.75,42.58,42.58,0,0,1,.12,5.87c0,.52-.25.73-.77.74-.3,0-.61,0-.91-.06a4.76,4.76,0,0,0-2.22.06.88.88,0,0,1-.28,0c-.63,0-.79-.13-.79-.72,0-1.25,0-2.5,0-3.74h-.05a29.33,29.33,0,0,0,0-3.38c-.23-2.05,0-4.11-.19-6.17-.08-1.08.05-2.17.07-3.26,0-.56,0-1.12,0-1.68,0-2.44.09-4.88,0-7.31,0-1.38.11-2.74.14-4.11,0-.93.35-1.23,1.25-1.2,1.09,0,2.17.07,3.26.13.34,0,.35.31.33.57-.05.86-.16,1.73-.16,2.59,0,1.37.1,2.74.09,4.11,0,2-.08,3.93-.13,5.89a2.13,2.13,0,0,0,0,.56,10.21,10.21,0,0,1,0,3.17,3.5,3.5,0,0,0,.09,1c0,.14.24.28.4.32s.27-.14.33-.26a5.43,5.43,0,0,1,1.56-1.94c.52-.43.91-1,1.41-1.49.88-.84,1.82-1.61,2.67-2.47s1.58-1.76,2.34-2.65c.07-.08,0-.24.07-.34a.68.68,0,0,1,.84-.5c.29.07.54.12.77-.12,0,0,.13-.09.17-.07.66.31,1.32-.13,2,0a12.4,12.4,0,0,0,1.93,0,1.69,1.69,0,0,1,.45,0c.34.09.41.37.16.63A8.3,8.3,0,0,1,263,11c-.31.25-.63.49-.95.73l-.75.53a4.87,4.87,0,0,0-.5.4c-.31.34-.59.72-.91,1.06-1.11,1.18-2.24,2.34-3.35,3.52-.34.36-.69.73-1,1.1a.77.77,0,0,0-.08,1.1,13.2,13.2,0,0,0,1,1.36,20.24,20.24,0,0,0,2.11,2.61,2.69,2.69,0,0,1,.68,1,16.32,16.32,0,0,0,2.22,3.67,1.41,1.41,0,0,1,.25.4,22.92,22.92,0,0,0,2,3.79A5.22,5.22,0,0,1,264,33.16Z"/><path d="M180.37,22.92a1.07,1.07,0,0,1-.14-.35.25.25,0,0,1,0-.08.55.55,0,0,1,0-.18c0-1.18,0-2.37-.14-3.55A4.32,4.32,0,0,0,179.7,17c-.76-1.43-1.6-2.81-2.46-4.19a3.89,3.89,0,0,0-1.54-1.47c-.34-.17-.64-.4-1-.55-1.22-.54-2.46-1.05-3.69-1.56a.82.82,0,0,0-.27-.06c-1-.1-1.93-.22-2.9-.28a7.3,7.3,0,0,0-1.68.1,21.91,21.91,0,0,0-5.07,1.63,6.3,6.3,0,0,0-2.8,2.41,28.56,28.56,0,0,0-2.22,3.78,1.27,1.27,0,0,1-.2.31,3.12,3.12,0,0,0-.76,2.07c0,.94,0,1.88,0,2.81h0c0,.88,0,1.75,0,2.63a3.16,3.16,0,0,0,.37,1.52,4.34,4.34,0,0,1,.37,1.24A7,7,0,0,0,156,28.9c.54,1.16,1.18,2.27,1.79,3.39a1.32,1.32,0,0,0,.45.46c.74.46,1.48.93,2.24,1.33a8.51,8.51,0,0,0,2,.91c1.79.4,3.6.69,5.41,1a5.74,5.74,0,0,0,1.58.19,10.86,10.86,0,0,0,3.61-1,12.24,12.24,0,0,1,1.27-.6A6.92,6.92,0,0,0,178,31.39c.55-1,1-2.05,1.55-3.09.33-.69.15-1-.61-1.19a3.47,3.47,0,0,0-.56,0l-4.64.08a1,1,0,0,0-.94.63,3.78,3.78,0,0,1-1.11,1.45,8,8,0,0,1-5.06,1.32,4.07,4.07,0,0,1-2.95-1.74,21,21,0,0,1-1.67-2.92,2.44,2.44,0,0,1-.17-1c0-.24.17-.38.44-.38.72,0,1.43,0,2.15-.06,1.15,0,2.31-.05,3.46-.13,1.4-.1,2.79-.27,4.19-.37s2.79-.17,4.19-.22a2.53,2.53,0,0,1,1.1.14c.79.36,1.61.08,2.41.18a.53.53,0,0,0,.29-.09,3,3,0,0,0,.48-.46C180.79,23.31,180.52,23.12,180.37,22.92Zm-1.66.25-2.22-.3a1.19,1.19,0,0,0-.46,0,8.75,8.75,0,0,1-2.88.22,25.57,25.57,0,0,0-4.09.35c-.67.11-1.38,0-2,.15-1.27.27-2.54-.09-3.81.08a10.31,10.31,0,0,1-1.11,0,1.1,1.1,0,0,0-1.23,1.06,3,3,0,0,0,.41,1.79c.55,1.05,1.2,2.05,1.74,3.1a3.71,3.71,0,0,0,2.19,1.59,7.13,7.13,0,0,0,2.67.29,6,6,0,0,0,3.58-.82,5.36,5.36,0,0,0,2-2.17.55.55,0,0,1,.56-.39c.37,0,.74,0,1.11,0,.65,0,1.29-.05,1.94-.06a5.83,5.83,0,0,1,.84,0c.55.08.64.2.45.74a6.5,6.5,0,0,1-.52,1.1c-.46.77-.92,1.55-1.43,2.3-.74,1.09-2,1.46-3.08,2-.53.26-1.11.42-1.65.64a5.38,5.38,0,0,1-2.86.29,24.6,24.6,0,0,1-4.15-.68,14.87,14.87,0,0,1-2.25-.58c-1.09-.55-2.2-1-3.25-1.66a3.9,3.9,0,0,1-1-1.1,8.12,8.12,0,0,1-1.51-3.78,16.14,16.14,0,0,0-.51-2.37,4.54,4.54,0,0,1-.09-1.37c0-.84-.09-1.68,0-2.52a30,30,0,0,1,.36-3.13,2.88,2.88,0,0,1,.47-.9c.74-1.27,1.41-2.59,2.24-3.79a6,6,0,0,1,1.77-1.63,13.91,13.91,0,0,1,4-1.69,14.26,14.26,0,0,1,4.52-.39,13.49,13.49,0,0,1,6,2.5A4.93,4.93,0,0,1,177,13.93c.27.46.58.89.89,1.32a7,7,0,0,1,1.27,3.86c0,.3,0,.61,0,.92.2.86-.2,1.73.08,2.6C179.42,23.08,179.22,23.24,178.71,23.17Z"/><path class="cls-1" d="M179.27,22.63c-.28-.87.12-1.74-.08-2.6,0-.31,0-.62,0-.92a7,7,0,0,0-1.27-3.86c-.31-.43-.62-.86-.89-1.32a4.93,4.93,0,0,0-1.58-1.79,13.49,13.49,0,0,0-6-2.5,14.26,14.26,0,0,0-4.52.39,13.91,13.91,0,0,0-4,1.69,6,6,0,0,0-1.77,1.63c-.83,1.2-1.5,2.52-2.24,3.79a2.88,2.88,0,0,0-.47.9,30,30,0,0,0-.36,3.13c-.05.84.06,1.68,0,2.52a4.54,4.54,0,0,0,.09,1.37,16.14,16.14,0,0,1,.51,2.37,8.12,8.12,0,0,0,1.51,3.78,3.9,3.9,0,0,0,1,1.1c1.05.61,2.16,1.11,3.25,1.66a14.87,14.87,0,0,0,2.25.58,24.6,24.6,0,0,0,4.15.68,5.38,5.38,0,0,0,2.86-.29c.54-.22,1.12-.38,1.65-.64,1.1-.55,2.34-.92,3.08-2,.51-.75,1-1.53,1.43-2.3a6.5,6.5,0,0,0,.52-1.1c.19-.54.1-.66-.45-.74a5.83,5.83,0,0,0-.84,0c-.65,0-1.29,0-1.94.06-.37,0-.74,0-1.11,0a.55.55,0,0,0-.56.39,5.36,5.36,0,0,1-2,2.17,6,6,0,0,1-3.58.82,7.13,7.13,0,0,1-2.67-.29A3.71,3.71,0,0,1,163,29.67c-.54-1.05-1.19-2.05-1.74-3.1a3,3,0,0,1-.41-1.79,1.1,1.1,0,0,1,1.23-1.06,10.31,10.31,0,0,0,1.11,0c1.27-.17,2.54.19,3.81-.08.66-.14,1.37,0,2-.15a25.57,25.57,0,0,1,4.09-.35,8.75,8.75,0,0,0,2.88-.22,1.19,1.19,0,0,1,.46,0l2.22.3C179.22,23.24,179.42,23.08,179.27,22.63Zm-5.82-2.13a.63.63,0,0,1-.52.07,3.74,3.74,0,0,0-2-.09,15.86,15.86,0,0,1-1.95.16c-2.09.06-4.18.09-6.27.13h-.37c-.36,0-.6-.13-.62-.53s-.09-.49-.13-.75l.15-.54a6.65,6.65,0,0,1,2.58-3.68,4.93,4.93,0,0,1,3.16-.95,5.64,5.64,0,0,0,1.3,0,4.67,4.67,0,0,1,3.51,1,.52.52,0,0,1,.19.2A24.73,24.73,0,0,1,174,19.18,1.35,1.35,0,0,1,173.45,20.5Z"/><path d="M206.71,12.9c0-.37,0-.75,0-1.12,0-.55-.17-1.1-.2-1.66a16.33,16.33,0,0,1-.22-3,1.93,1.93,0,0,0-.08-.46,13.19,13.19,0,0,1,.2-4.56c.09-.36.07-1-.07-1.11a9.94,9.94,0,0,0-2-.15l-.15.05a3,3,0,0,1-1,0c-.3,0-.61,0-.91-.06-.83-.11-1.66.42-2.5,0a.61.61,0,0,0-.23.31c-.06.47-.08.93-.11,1.4a21.08,21.08,0,0,0-.22,3.16,24.38,24.38,0,0,1-.28,5.4c0,.21-.19.3-.3.13a5.33,5.33,0,0,0-2.06-1.43,12.89,12.89,0,0,0-1.85-1,15.41,15.41,0,0,0-2.05-.6,2.59,2.59,0,0,0-1.38.11c-.81.29-1.58.7-2.38,1A8.09,8.09,0,0,0,185,12.64a5.18,5.18,0,0,1-.68.88,6.45,6.45,0,0,0-1.44,2.78,25.67,25.67,0,0,0-1,7c0,.5,0,1,0,1.5a13.8,13.8,0,0,0,.79,4.31c.21.6.75,1.08.73,1.79,0,.14.21.29.35.41a33.48,33.48,0,0,0,3.4,2.63,7,7,0,0,0,3.23,1.11c.44.05.89,0,1.31.09a7.28,7.28,0,0,0,3.79-.2,8.49,8.49,0,0,0,3.09-1.69c.28-.23.56-.66.94-.47s.2.69.09,1.08c-.19.63.18,1,.83,1a2.46,2.46,0,0,0,.45-.11,9,9,0,0,1,4.17-.36,2.43,2.43,0,0,0,1-.1V31.47s0-.06,0-.09a4.58,4.58,0,0,1-.09-1.11c0-.93.07-1.88.11-2.82v0c0-.08,0-.16,0-.24,0-.34,0-.69,0-1,.06-.81.15-1.61.18-2.42.06-1.72.08-3.44.11-5.15a1.42,1.42,0,0,1,0-.29A23.25,23.25,0,0,0,206.71,12.9Zm-.89,6.39a18.17,18.17,0,0,1-.2,3.89,43.66,43.66,0,0,0-.42,5.48c0,.65.14,1.3.2,1.95.07.87.13,1.73.18,2.6,0,.28-.18.46-.41.39-1.25-.34-2.46.1-3.7.13a2.45,2.45,0,0,1-.27,0c-.24,0-.41-.13-.37-.43.06-.49.11-1,.16-1.49a5.78,5.78,0,0,0,0-.93c0-.4-.25-.58-.67-.62a.7.7,0,0,0-.83.45c-.32,1.32-1.45,1.89-2.37,2.65a8,8,0,0,1-3.83,1.29,4.73,4.73,0,0,1-1.66-.15c-1-.15-1.91-.3-2.85-.52a3.13,3.13,0,0,1-1-.53c-.93-.61-1.87-1.22-2.77-1.87a4.68,4.68,0,0,1-1.45-2.13,12.9,12.9,0,0,1-1.16-5.17c0-1.55.27-3.1.38-4.66a15.94,15.94,0,0,1,.71-3.56,3.55,3.55,0,0,1,.32-.78,16.35,16.35,0,0,1,2.79-3.62,10.62,10.62,0,0,1,2.09-1.37,9.88,9.88,0,0,1,1.76-.86A4.11,4.11,0,0,1,192.16,9h0a3.18,3.18,0,0,1,1.62.45,1.74,1.74,0,0,1,.86.5,4.43,4.43,0,0,0,.84.57c.66.4,1.33.81,2,1.17a1.42,1.42,0,0,1,.52.44c.37.29,1.22.93,1.72,1.41,0-.05,0-.88.08-1.14s.06-1,.06-1c.09-1.48.17-3,.26-4.45a2.35,2.35,0,0,0,0-.75c-.36-1.35,0-2.66.13-4a.62.62,0,0,1,.71-.66h2.33l1.88,0c.33,0,.54.06.51.53a29.73,29.73,0,0,0-.07,5.58c-.33,1.17.29,2.26.29,3.41,0,.71,0,1.42,0,2.13C206.16,15.26,205.65,17.26,205.82,19.29Z"/><path class="cls-1" d="M206,13.24c-.06-.71,0-1.42,0-2.13,0-1.15-.62-2.24-.29-3.41a29.73,29.73,0,0,1,.07-5.58c0-.47-.18-.53-.51-.53l-1.88,0H201a.62.62,0,0,0-.71.66c-.1,1.33-.49,2.64-.13,4a2.35,2.35,0,0,1,0,.75c-.09,1.48-.17,3-.26,4.45,0,0,0,.69-.06,1s0,1.09-.08,1.14c-.5-.48-1.35-1.12-1.72-1.41a1.42,1.42,0,0,0-.52-.44c-.69-.36-1.36-.77-2-1.17a4.43,4.43,0,0,1-.84-.57,1.74,1.74,0,0,0-.86-.5A3.18,3.18,0,0,0,192.19,9h0a4.11,4.11,0,0,0-1.67.41,9.88,9.88,0,0,0-1.76.86,10.62,10.62,0,0,0-2.09,1.37,16.35,16.35,0,0,0-2.79,3.62,3.55,3.55,0,0,0-.32.78,15.94,15.94,0,0,0-.71,3.56c-.11,1.56-.34,3.11-.38,4.66a12.9,12.9,0,0,0,1.16,5.17,4.68,4.68,0,0,0,1.45,2.13c.9.65,1.84,1.26,2.77,1.87a3.13,3.13,0,0,0,1,.53c.94.22,1.89.37,2.85.52a4.73,4.73,0,0,0,1.66.15,8,8,0,0,0,3.83-1.29c.92-.76,2.05-1.33,2.37-2.65a.7.7,0,0,1,.83-.45c.42,0,.65.22.67.62a5.78,5.78,0,0,1,0,.93c-.05.5-.1,1-.16,1.49,0,.3.13.39.37.43a2.45,2.45,0,0,0,.27,0c1.24,0,2.45-.47,3.7-.13.23.07.43-.11.41-.39-.05-.87-.11-1.73-.18-2.6-.06-.65-.2-1.3-.2-1.95a43.66,43.66,0,0,1,.42-5.48,18.17,18.17,0,0,0,.2-3.89C205.65,17.26,206.16,15.26,206,13.24Zm-6,10.08a5.35,5.35,0,0,0-.21,1.48,6.05,6.05,0,0,1-1.47,3.84,4.27,4.27,0,0,1-2.05,1.25,7.81,7.81,0,0,1-1.59.53,2.78,2.78,0,0,1-2.7-.48c-.05,0-.08-.1-.13-.13a4.9,4.9,0,0,1-1.3-.7c-.33-.34-.52-.78-.92-1.13a4.3,4.3,0,0,1-1.35-2.49c-.09-.55-.25-1.07-.34-1.61-.11-.77-.18-1.55-.28-2.32a2.45,2.45,0,0,0-.18-.81,1.83,1.83,0,0,1,0-1.36c.09-.33.24-.64.33-1a3,3,0,0,1,.91-1.59c.38-.31.46-.81.91-1.14a9.42,9.42,0,0,1,4.46-1.42,5.13,5.13,0,0,1,4.38,1.56,7.37,7.37,0,0,1,1.93,3.27,6.62,6.62,0,0,1,.12,1.11A21.68,21.68,0,0,1,200,23.32Z"/><path d="M134.86,10.83c-.13-.62-.24-.68-.83-.52a2,2,0,0,1-1.45-.05,2.18,2.18,0,0,0-1-.1c-.54,0-.76-.1-.87-.59a2.23,2.23,0,0,1,1.4-2.43l.22-.07,1.4-.42.1-.1a1.59,1.59,0,0,0,.67-1,1.47,1.47,0,0,0,.05-.42c-.09-1.44-.17-2.6-.24-4,0-.38-.15-.6-.56-.57-.75.05-1.5.09-2.24.15s-1.37.13-2.05.21a7.35,7.35,0,0,0-1.56.24,11.86,11.86,0,0,0-2.31,1,3.07,3.07,0,0,0-1.77,3,20.3,20.3,0,0,1,0,2.34c0,.66-.06,1.31-.11,2a.59.59,0,0,1-.65.63c-.63,0-1.25,0-1.87,0a5.83,5.83,0,0,0-.84,0c-.45.09-.62.28-.55.71a9.15,9.15,0,0,1,.1,3.34c-.08.43.15.64.58.67.84.06,1.68.11,2.52.19.59.05.7.17.66.75a10.14,10.14,0,0,0-.16,1.2c.08,2.47-.09,4.94.22,7.4a4.7,4.7,0,0,1,0,.75c0,1-.11,2-.14,3a13,13,0,0,1,0,2.34,20.76,20.76,0,0,0-.14,4.09.59.59,0,0,0,0,.23l2.75,0h.06a10.7,10.7,0,0,1,2,0l1.49,0a.88.88,0,0,0,.59-.86c0-.62-.1-1.25-.16-1.87a9.34,9.34,0,0,1-.19-1.38c0-1.28.12-2.56.17-3.84,0-.93,0-1.87.06-2.81.1-1.74.23-3.49.33-5.24,0-.87,0-1.75,0-2.63,0-.44.17-.71.62-.77s.92-.13,1.39-.17c.65-.06,1.31-.06,2-.15a1.39,1.39,0,0,0,.34-.09V11.29C134.91,11.14,134.89,11,134.86,10.83Zm-.56,2.65c0,.31-.09.43-.42.47-.68.07-1.35.25-2,.32a3.47,3.47,0,0,1-1.1-.14c-.47-.11-.79,0-.85.5s-.08,1.12-.1,1.68c-.05,1.3-.09,2.61-.15,3.91,0,.9-.11,1.8-.14,2.71-.06,1.87-.06,3.75-.18,5.62a11,11,0,0,0,.11,4,1.6,1.6,0,0,1,.05.65c0,.56-.1.61-.68.64a15,15,0,0,0-3.54.16.66.66,0,0,1-.28,0c-.52,0-.66-.13-.71-.67a9.52,9.52,0,0,1,0-1.31c0-1.12.09-2.25.13-3.37,0-.59,0-1.18,0-1.78,0-.87.1-1.74.11-2.61,0-.53-.11-1.06-.11-1.59,0-1.78,0-3.55,0-5.33a6.59,6.59,0,0,1,.31-2.57c.2-.54,0-.68-.6-.68-1,0-1.93-.06-2.9-.11-.11,0-.31-.16-.32-.25,0-.78,0-1.56,0-2.34,0-.22.14-.32.36-.33.63,0,1.25-.09,1.87-.1.89,0,1.3-.32,1.38-1.17s.13-2,.19-3h0c0-.72,0-1.44,0-2.16a1.54,1.54,0,0,1,.92-1.5c.46-.26.94-.49,1.41-.74a4.61,4.61,0,0,1,2.33-.61,10.42,10.42,0,0,0,1.58-.14c.41,0,.81-.13,1.21-.15a1,1,0,0,1,.61.15,2.2,2.2,0,0,1,1,1.8c0,.73.33,1.47-.1,2.2A3.44,3.44,0,0,0,132.6,6l-.09,0c-.41.2-.8.47-1.22.66A2.37,2.37,0,0,0,130,8.66a11.85,11.85,0,0,1-.3,2c-.15.39.11.64.56.65.21,0,.45-.11.64-.06a7.45,7.45,0,0,0,2.78.22c.42-.05.6.14.63.49C134.32,12.49,134.29,13,134.3,13.48Z"/><path class="cls-1" d="M134.3,13.48c0,.31-.09.43-.42.47-.68.07-1.35.25-2,.32a3.47,3.47,0,0,1-1.1-.14c-.47-.11-.79,0-.85.5s-.08,1.12-.1,1.68c-.05,1.3-.09,2.61-.15,3.91,0,.9-.11,1.8-.14,2.71-.06,1.87-.06,3.75-.18,5.62a11,11,0,0,0,.11,4,1.6,1.6,0,0,1,.05.65c0,.56-.1.61-.68.64a15,15,0,0,0-3.54.16.66.66,0,0,1-.28,0c-.52,0-.66-.13-.71-.67a9.52,9.52,0,0,1,0-1.31c0-1.12.09-2.25.13-3.37,0-.59,0-1.18,0-1.78,0-.87.1-1.74.11-2.61,0-.53-.11-1.06-.11-1.59,0-1.78,0-3.55,0-5.33a6.59,6.59,0,0,1,.31-2.57c.2-.54,0-.68-.6-.68-1,0-1.93-.06-2.9-.11-.11,0-.31-.16-.32-.25,0-.78,0-1.56,0-2.34,0-.22.14-.32.36-.33.63,0,1.25-.09,1.87-.1.89,0,1.3-.32,1.38-1.17s.13-2,.19-3h0c0-.72,0-1.44,0-2.16a1.54,1.54,0,0,1,.92-1.5c.46-.26.94-.49,1.41-.74a4.61,4.61,0,0,1,2.33-.61,10.42,10.42,0,0,0,1.58-.14c.41,0,.81-.13,1.21-.15a1,1,0,0,1,.61.15,2.2,2.2,0,0,1,1,1.8c0,.73.33,1.47-.1,2.2A3.44,3.44,0,0,0,132.6,6l-.09,0c-.41.2-.8.47-1.22.66A2.37,2.37,0,0,0,130,8.66a11.85,11.85,0,0,1-.3,2c-.15.39.11.64.56.65.21,0,.45-.11.64-.06a7.45,7.45,0,0,0,2.78.22c.42-.05.6.14.63.49C134.32,12.49,134.29,13,134.3,13.48Z"/><path d="M153.18,9.37c-.1-.51-.37-.65-.9-.54a15.07,15.07,0,0,0-1.89.52c-.49.17-.93.54-1.43.66a6.32,6.32,0,0,0-2.46,1.63,3.65,3.65,0,0,1-.43.35c-.24.13-.45.08-.47-.22s0-.88,0-1.32-.18-.63-.72-.55a18.92,18.92,0,0,1-4.45.11c-.21,0-.43-.15-.64-.11a3.37,3.37,0,0,0-1.31.37c-.19.12-.19.61-.2.94,0,1.12-.06,2.25-.05,3.37a7.5,7.5,0,0,0,.19,1.77,6.12,6.12,0,0,1,0,2.79,7,7,0,0,0-.07.92c0,.59,0,1.18,0,1.78a5.89,5.89,0,0,0,0,.84c.16.95.34,1.9.51,2.84a3.55,3.55,0,0,1,0,.46l0,3.45h-.12c0,1.13,0,2.25,0,3.38a13.34,13.34,0,0,0,.19,1.67.24.24,0,0,0,0,.08l5.93-.11.2-.11.07-2h0a5.62,5.62,0,0,1-.08-1.3c0-1.18.17-2.37.23-3.55a18.48,18.48,0,0,0,0-2,11.79,11.79,0,0,1,.07-3.46c.29-1.18.67-2.34,1-3.52a2.69,2.69,0,0,1,1.37-1.7,7,7,0,0,1,1.25-.63,5.11,5.11,0,0,1,3.47-.07.72.72,0,0,0,.19,0l.42-2.27c.11-.93.22-1.86.27-2.79A7.5,7.5,0,0,0,153.18,9.37Zm-1,4.41c0,.25-.08.49-.12.74-.08.48-.11.53-.6.4a3,3,0,0,0-1.74.13,8.64,8.64,0,0,0-2.25.91c-.17.12-.35.25-.53.36a4.65,4.65,0,0,0-1.74,3c-.35,1.19-.52,2.43-.75,3.65a2.39,2.39,0,0,0,0,.92,25.06,25.06,0,0,1,0,5.61,22.21,22.21,0,0,0,.05,3.46c.08.61,0,.64-.57.66s-1.18,0-1.76,0-1.23.11-1.83.21c-.37.06-.44-.11-.42-.41,0,0,0-.07,0-.09a5.44,5.44,0,0,0-.07-2.86,20.86,20.86,0,0,1,.06-3.26,9.48,9.48,0,0,0-.36-3.77,6.79,6.79,0,0,1-.25-2.4c0-1,.14-1.93.16-2.9a13,13,0,0,0-.12-1.76c-.06-.65-.18-1.3-.21-1.95-.05-.84,0-1.69-.06-2.53,0-.22,0-.43,0-.65a.38.38,0,0,1,.43-.39c.21,0,.45-.14.63-.08a10.56,10.56,0,0,0,3,0h.65c1,0,1,0,1,1.38-.06.4-.18,1.16-.3,1.93-.05.3-.18.65.21.83.2.09.78-.31.85-.61a2,2,0,0,1,.48-1.19A16.17,16.17,0,0,1,148,11.42a16.48,16.48,0,0,1,2.37-1.1,9.08,9.08,0,0,1,1.12-.46c.68-.2,1.07-.18,1,.66C152.46,11.61,152.3,12.7,152.18,13.78Z"/><path class="cls-1" d="M152.51,10.52c0,1.09-.21,2.18-.33,3.26,0,.25-.08.49-.12.74-.08.48-.11.53-.6.4a3,3,0,0,0-1.74.13,8.64,8.64,0,0,0-2.25.91c-.17.12-.35.25-.53.36a4.65,4.65,0,0,0-1.74,3c-.35,1.19-.52,2.43-.75,3.65a2.39,2.39,0,0,0,0,.92,25.06,25.06,0,0,1,0,5.61,22.21,22.21,0,0,0,.05,3.46c.08.61,0,.64-.57.66s-1.18,0-1.76,0-1.23.11-1.83.21c-.37.06-.44-.11-.42-.41,0,0,0-.07,0-.09a5.44,5.44,0,0,0-.07-2.86,20.86,20.86,0,0,1,.06-3.26,9.48,9.48,0,0,0-.36-3.77,6.79,6.79,0,0,1-.25-2.4c0-1,.14-1.93.16-2.9a13,13,0,0,0-.12-1.76c-.06-.65-.18-1.3-.21-1.95-.05-.84,0-1.69-.06-2.53,0-.22,0-.43,0-.65a.38.38,0,0,1,.43-.39c.21,0,.45-.14.63-.08a10.56,10.56,0,0,0,3,0h.65c1,0,1,0,1,1.38-.06.4-.18,1.16-.3,1.93-.05.3-.18.65.21.83.2.09.78-.31.85-.61a2,2,0,0,1,.48-1.19A16.17,16.17,0,0,1,148,11.42a16.48,16.48,0,0,1,2.37-1.1,9.08,9.08,0,0,1,1.12-.46C152.16,9.66,152.55,9.68,152.51,10.52Z"/><path d="M226.58,9.33a.69.69,0,0,0-1-.62,21.12,21.12,0,0,0-4.11,1.45c-.74.42-1.58.77-1.94,1.68a1.63,1.63,0,0,1-.51.54c-.14.1-.33.07-.33-.16a3.52,3.52,0,0,1,.09-.64,1.83,1.83,0,0,0-.24-1.68.58.58,0,0,1-.06-.35c0-.42-.22-.45-.55-.4a5.77,5.77,0,0,1-1.48.15,10.54,10.54,0,0,0-3.27.08,3.77,3.77,0,0,0-.95.31L212.07,11a1.73,1.73,0,0,1,.05.57c0,.75,0,1.5-.05,2.25a34.26,34.26,0,0,1,.09,4.3,1.56,1.56,0,0,0,0,.37h0c-.08,1.37-.17,2.73-.25,4.1,0,1-.17,2.06-.13,3.09a45.8,45.8,0,0,1,0,5.24c-.08,1-.18,1.92-.24,2.89-.05.63.14.78.74.69a2.67,2.67,0,0,1,.56-.06c1.74.05,3.21,0,5,.06.35,0,.48-.3.52-.54s0-.5,0-.67c0-1.06,0-2.12,0-3.19.06-1.68.2-3.37.23-5.06a23.35,23.35,0,0,1,.72-5.19,6,6,0,0,0,.18-1.19,1.6,1.6,0,0,1,.51-1.16,5.9,5.9,0,0,1,5.3-1.77c.9.13,1.09,0,1.09-1a2.6,2.6,0,0,1,0-.74A12.59,12.59,0,0,0,226.58,9.33Zm-.77,5c-.06.41-.31.45-.67.45a8.08,8.08,0,0,0-4.11,1,8.2,8.2,0,0,0-1.95,1.72A5.61,5.61,0,0,0,218,20a2.59,2.59,0,0,0-.07.55c0,.93,0,1.86,0,2.79H218c-.09,2.31-.15,4.62-.29,6.92a24.68,24.68,0,0,1-.42,3,.5.5,0,0,1-.37.3c-1.12,0-2.24.08-3.35.06-.93,0-1.07-.21-1-1.15.07-1.81.15-3.62.18-5.43,0-1.24-.05-2.49,0-3.73a16,16,0,0,1,.14-2,27.61,27.61,0,0,0,.09-5.89,30.38,30.38,0,0,1,0-4.77.45.45,0,0,1,.46-.48A10.91,10.91,0,0,1,216,10c.33.05.68,0,1,0,.61,0,.82.15.94.71a2.73,2.73,0,0,1-.65,2.77c-.41.4-.39.58.08,1.08.26.28.54.28.86-.1s.84-1.08,1.26-1.62A9.1,9.1,0,0,1,222,10.74a9.29,9.29,0,0,1,3.14-1.07c.42-.08.61.07.67.43A13.3,13.3,0,0,1,225.81,14.37Z"/><path class="cls-1" d="M225.81,14.37c-.06.41-.31.45-.67.45a8.08,8.08,0,0,0-4.11,1,8.2,8.2,0,0,0-1.95,1.72A5.61,5.61,0,0,0,218,20a2.59,2.59,0,0,0-.07.55c0,.93,0,1.86,0,2.79H218c-.09,2.31-.15,4.62-.29,6.92a24.68,24.68,0,0,1-.42,3,.5.5,0,0,1-.37.3c-1.12,0-2.24.08-3.35.06-.93,0-1.07-.21-1-1.15.07-1.81.15-3.62.18-5.43,0-1.24-.05-2.49,0-3.73a16,16,0,0,1,.14-2,27.61,27.61,0,0,0,.09-5.89,30.38,30.38,0,0,1,0-4.77.45.45,0,0,1,.46-.48A10.91,10.91,0,0,1,216,10c.33.05.68,0,1,0,.61,0,.82.15.94.71a2.73,2.73,0,0,1-.65,2.77c-.41.4-.39.58.08,1.08.26.28.54.28.86-.1s.84-1.08,1.26-1.62A9.1,9.1,0,0,1,222,10.74a9.29,9.29,0,0,1,3.14-1.07c.42-.08.61.07.67.43A13.3,13.3,0,0,1,225.81,14.37Z"/><path d="M237.15,30.82c0-2.19.06-4.37,0-6.56,0-2.75-.09-5.5-.13-8.25,0-1.87,0-3.74,0-5.61h.1a2.35,2.35,0,0,0,0-.65c-.06-.18-.23-.43-.37-.45-.93-.12-1.87-.23-2.8-.26-.77,0-1.55.09-2.32.11-1,0-1.49.48-1.51,1.45,0,.69.07,1.37.07,2.06,0,2.4,0,4.8,0,7.21a18.93,18.93,0,0,0,0,2.61,20.57,20.57,0,0,1,.26,4.36c-.17,2.24-.39,4.48-.57,6.71,0,.31,1.76.24,2.21.26,1.4.08,2.8.16,4.19.27.64.05.66.09.84-.48a2.2,2.2,0,0,0,.1-.81C237.24,32.13,237.15,31.48,237.15,30.82Zm-.63,1.58c-.06.77-.2.93-.92.79a18.83,18.83,0,0,0-3.35-.14c-1.41,0-1.41,0-1.36-1.51s.1-3.25.37-4.91a7.19,7.19,0,0,0,0-1.67c-.07-1.18-.21-2.36-.24-3.54,0-1.93,0-3.86,0-5.79,0-1.4,0-2.81,0-4.21,0-1,.28-1.29,1.25-1.4a13,13,0,0,1,1.77,0c.52,0,1,.07,1.58.12s.65.18.66.7a49.8,49.8,0,0,1,.12,5.33,7,7,0,0,0,0,1.21,63,63,0,0,1,.11,7.4c0,1.34,0,2.68.05,4,0,1.06.06,2.11.09,3.17C236.53,32.09,236.53,32.25,236.52,32.4Z"/><path class="cls-1" d="M236.53,31.93c0,.16,0,.32,0,.47-.06.77-.2.93-.92.79a18.83,18.83,0,0,0-3.35-.14c-1.41,0-1.41,0-1.36-1.51s.1-3.25.37-4.91a7.19,7.19,0,0,0,0-1.67c-.07-1.18-.21-2.36-.24-3.54,0-1.93,0-3.86,0-5.79,0-1.4,0-2.81,0-4.21,0-1,.28-1.29,1.25-1.4a13,13,0,0,1,1.77,0c.52,0,1,.07,1.58.12s.65.18.66.7a49.8,49.8,0,0,1,.12,5.33,7,7,0,0,0,0,1.21,63,63,0,0,1,.11,7.4c0,1.34,0,2.68.05,4C236.46,29.82,236.5,30.87,236.53,31.93Z"/><path d="M236.94,5.72c-.11-.87-.27-1.73-.31-2.6s-.07-1.41-.09-2.19c0-.55,0-.79-.66-.82-.27,0-.53,0-.8,0a18.57,18.57,0,0,0-4.28.19.79.79,0,0,0-.72.64,3.63,3.63,0,0,0-.12.92c0,.44,0,.87,0,1.31,0,1,.09,2.05.14,3.07a.45.45,0,0,0,.45.49c.77.07,1.5.12,2.27.2.14,0,.61,0,.89,0a7.37,7.37,0,0,0,2.68-.33C236.9,6.4,237,6.2,236.94,5.72Zm-1.68.2a8.18,8.18,0,0,1-3,0,3.47,3.47,0,0,0-.55-.08c-.68-.06-.69,0-.71-.73,0-.5,0-1,0-1.5h0c0-.49-.07-1-.06-1.49,0-.9.3-1.12,1.2-1.1.54,0,1.09-.09,1.64-.09a15.09,15.09,0,0,1,1.65.14c.11,0,.2.18.3.28a.25.25,0,0,1,0,.09c-.15,1.25.3,2.45.27,3.7C235.94,5.79,236,5.82,235.26,5.92Z"/><path class="cls-1" d="M236,5.1c0,.69,0,.72-.7.82a8.18,8.18,0,0,1-3,0,3.47,3.47,0,0,0-.55-.08c-.68-.06-.69,0-.71-.73,0-.5,0-1,0-1.5h0c0-.49-.07-1-.06-1.49,0-.9.3-1.12,1.2-1.1.54,0,1.09-.09,1.64-.09a15.09,15.09,0,0,1,1.65.14c.11,0,.2.18.3.28a.25.25,0,0,1,0,.09C235.54,2.65,236,3.85,236,5.1Z"/><path d="M174,19.18a24.73,24.73,0,0,0-1.48-3.71.52.52,0,0,0-.19-.2,4.67,4.67,0,0,0-3.51-1,5.64,5.64,0,0,1-1.3,0,4.93,4.93,0,0,0-3.16.95,6.65,6.65,0,0,0-2.58,3.68l-.15.54c0,.26.11.5.13.75s.26.53.62.53h.37c2.09,0,4.18-.07,6.27-.13a15.86,15.86,0,0,0,1.95-.16,3.74,3.74,0,0,1,2,.09.63.63,0,0,0,.52-.07A1.35,1.35,0,0,0,174,19.18Zm-1.58.2c-1.1.15-2.21.34-3.32.44-.68.06-1.36,0-2,0-1.06,0-2.12.1-3.17.17-1.4.09-1.6-.16-1-1.43a6.75,6.75,0,0,1,1.1-1.83,4.12,4.12,0,0,1,2.84-1.44c.62,0,1.24-.09,1.86-.13v0a8.15,8.15,0,0,1,1.21,0,2.32,2.32,0,0,1,1.82,1.18c.42.79.78,1.61,1.12,2.44C173,19.28,172.93,19.3,172.39,19.38Z"/><path d="M200.41,19.1a7.37,7.37,0,0,0-1.93-3.27,5.13,5.13,0,0,0-4.38-1.56,9.42,9.42,0,0,0-4.46,1.42c-.45.33-.53.83-.91,1.14a3,3,0,0,0-.91,1.59c-.09.33-.24.64-.33,1a1.83,1.83,0,0,0,0,1.36,2.45,2.45,0,0,1,.18.81c.1.77.17,1.55.28,2.32.09.54.25,1.06.34,1.61A4.3,4.3,0,0,0,189.65,28c.4.35.59.79.92,1.13a4.9,4.9,0,0,0,1.3.7s.08.09.13.13a2.78,2.78,0,0,0,2.7.48,7.81,7.81,0,0,0,1.59-.53,4.27,4.27,0,0,0,2.05-1.25,6.05,6.05,0,0,0,1.47-3.84,5.35,5.35,0,0,1,.21-1.48,21.68,21.68,0,0,0,.51-3.11A6.62,6.62,0,0,0,200.41,19.1Zm-1.08,3.61c0,.28-.07.56-.11.84-.07.46-.13.92-.21,1.38,0,.12-.1.24-.09.36.1,1.22-.69,2.07-1.28,3a1,1,0,0,1-.33.32,12.47,12.47,0,0,1-3.16,1,2.32,2.32,0,0,1-1.67-.42c-.68-.44-1.34-.92-2-1.4a3.24,3.24,0,0,1-1.32-2.18A3.32,3.32,0,0,0,189,25a10,10,0,0,1-.51-3.14,10.39,10.39,0,0,1,.7-4.47,3.3,3.3,0,0,1,2.2-1.91,18.38,18.38,0,0,1,2.2-.49,5.17,5.17,0,0,1,4.77,1.76,2.13,2.13,0,0,1,.31.47,10.14,10.14,0,0,1,.74,1.61,6,6,0,0,1,.21,1.85A17.43,17.43,0,0,1,199.33,22.71Z"/><line class="cls-3" x1="180.06" y1="24.54" x2="180.31" y2="21.28"/></g></g></svg>